<svg xmlns="http://www.w3.org/2000/svg" width="788.5" height="283.5" viewBox="0 0 788.5 283.5"><g fill="#29338A"><path d="M157.1 132.6c-1.5 0-4.1-.1-7.8-.3-3.7-.2-5.8-1-6.3-2.4-.5-1.3-.4-3 .3-5.3s1.1-3.9 1.3-4.8L175.4 0h-42.5c-.2 0-4.5 4-13 11.9s-18.1 17.2-28.8 27.7C77.9 52.6 67.8 63 60.9 70.9 53 80 44 91.3 33.7 104.9 25.6 115.4 17.8 126.1 10 137c-3.4 4.8-6.7 9.5-10.1 14.2h87.4l-12.1 47.3h50.6c1.2-8.1 2.3-14.2 3.5-18.3 3.5-12.7 8.4-21 14.6-24.7 3.2-1.8 6.8-3 11-3.5 4.1-.5 8.4-.8 13-.8h2.8l5.3-18.4-18.9-.2zm-45.5-75.9c-.8 2.9-1.3 5-1.6 6.4l-17.8 69.5H43.8c-2.5 0-4.4-.8-5.5-2.4-.8-1.2 1-5.2 5.5-11.8 5.4-7.8 14.1-18.9 26.2-33.2 7.9-9.3 15.9-18 24.2-26.2 9.2-9.1 14.6-13.3 16.1-12.6 1.7.7 2.5 2.1 2.5 4.3 0 1.2-.4 3.1-1.2 6zM339.8 10.3l-13.3 57.6h-18.7c.4-1.8.8-3.8 1.2-6.1.4-2.2.5-5.1.5-8.5 0-7.9-1.3-14.1-3.9-18.6-3.6-6.3-9.6-9.4-18-9.4-10.9 0-22.4 7.5-34.6 22.4-12.7 15.6-19 31.5-19 47.6 0 12.2 3 21.9 8.9 28.9s13.6 10.5 23.1 10.5c7.7 0 17.2-4 28.3-12 3.7-2.7 8.6-6.7 14.6-12.2l18.7 12.5c-2.7 2.7-5.4 5.3-7.9 7.8-7.2 6.2-14.9 11.2-23.2 14.7-12.2 5.4-24.8 8-37.8 8-18.9 0-34.6-4.9-47.2-14.8-14-11-21-26.3-21-45.7 0-26.1 10.9-47.4 32.6-63.8C243.6 13.8 268.9 6 299 6c6.9 0 15.6.7 26.2 2 3.6.5 8.4 1.2 14.6 2.3zM475 132.7c-4.6 4.5-8.4 7.8-11.6 9.9-9.9 6.7-19.5 10.1-28.8 10.1-11.7 0-18-9.4-18.7-28.1-.7-18.8-3.4-28.1-8.2-28.1-5.6 0-11.9 4.7-18.9 14.1-4.9 6.6-10 15.4-15.5 26.5-2.1 4.8-4.3 9.6-6.4 14.4h-29l32.6-143h34.8l-17.8 75.4c-.7 3.3-1.1 5.4-1.1 6.3 0 1.2.3 1.8.9 1.8 8.2-9 16-16.7 23.6-23.3 8.3-7.3 15.5-11 21.7-11 10.6 0 16.2 11.2 16.7 33.6.6 22.4 2.9 34.4 7.1 35.9 1.1.3 2 .4 2.6.4 2.7 0 5.8-1 9.2-3.1.6-.3 1.4-.8 2.4-1.6l4.4 9.8zM549.7 138.3c-5.7 3.1-10.4 5.5-14 6.9-11 4.8-20 7.2-26.8 7.2-7.4 0-14.1-3-19.9-9.1-5.8-6.1-8.7-13-8.7-20.7 0-10.3 2.4-23.9 7.3-40.8 1.6-5.5 4-12.9 7.3-22.2H529l-12.4 51.1c-.4 2.1-.6 4.3-.6 6.7 0 4 .8 7.5 2.3 10.5 1.5 3 3.8 4.5 6.8 4.5 3.1 0 7.2-1.3 12-3.8 1.6-.8 3.7-2 6.4-3.8l6.2 13.5zM541.5 21c0 6.9-2.4 12.6-7.1 17-4.7 4.5-10.7 6.7-17.8 6.7-4.9 0-9.3-1.8-13.2-5.3-3.9-3.5-5.9-7.8-5.9-12.9 0-5.7 2.5-10.7 7.4-15.1s10.6-6.6 16.8-6.6c5.2 0 9.7 1.5 13.7 4.5 4.1 3.1 6.1 6.9 6.1 11.7zM635.1 133.6c-5.1 4.3-9.4 7.6-12.9 9.6-10.6 6.4-20.7 9.6-30.5 9.6-9.9 0-17.9-2.5-24.1-7.4-7.2-5.7-10.7-14-10.7-24.9 0-5.2.5-10.2 1.5-15 .3-1.2 1.6-6.1 3.9-14.8l23.2-84.1H620l-24.2 96.7c-.6 2.5-1.1 5.6-1.7 9.1-.6 3.5-.9 6.6-.9 9.3 0 4 .7 7.3 2.1 9.8 1.4 2.5 3.9 3.7 7.3 3.7 4.1 0 9.1-2.6 14.8-7.8 1.9-1.6 4.3-4.3 7.3-7.9l10.4 14.1zM788.5 137.4c-5 3.3-9 5.9-12 7.5-9.4 5.2-17.2 7.7-23.2 7.7-9.1 0-16-3.5-20.4-10.4-2.9-7.5-5.7-15.1-8.6-22.8-9.3 8.5-18.7 16-28.1 22.4-10.6 7.2-19.7 10.8-27.2 10.8-7.7 0-14.5-3.6-20.3-10.6-5.8-7.1-8.7-15-8.7-23.7 0-12.7 3.9-24.4 11.8-35 5.6-7.5 12.9-14 21.9-19.7 6.6-4.2 10.5-6.3 11.8-6.3l50.6 11.4 16.1-60.5h35.2l-22.8 94c-.7 2.7-1.4 5.5-2 8.4-.6 2.9-1 5.4-1 7.5 0 4.6 1.6 8.2 4.9 10.5 1.6 1 3.7 1.6 6.2 1.6 3 0 6.3-.6 9.9-1.8 1.1-.3 2.7-1 4.7-2l1.2 11zm-57.5-59c-.4-.4-1.6-.7-3.4-.7-9.2 0-19 2.9-29.6 8.7-13.7 7.5-20.6 17-20.6 28.5 0 4.6 1.2 8 3.5 10.2 2.4 2.2 5.4 3.3 9.1 3.3 4 0 8.3-1.1 12.8-3.3 4.5-2.2 8.1-4.8 10.8-8 5.2-5.8 9.4-12.3 12.9-19.5 3.4-7.2 5.1-12.6 5.1-16.4.1-1-.2-2-.6-2.8z"/></g><g fill="#B20933"><path d="M165.4 215.6c0-1-.4-1.2-1.8-1.4v-.5H180c0 1.7.1 3.4.2 5.1h-.7c-.4-2.8-1.6-3.2-3.1-3.2h-7.6v8.1h5c1.6-.1 2-.4 2.1-1.9h.7c-.1 1.1-.2 2-.2 2.8 0 1 .1 1.9.2 3h-.7c-.2-1.6-.6-1.8-2.1-1.9h-5v8.2c0 1 .4 1.2 1.8 1.4v.5c-.7 0-2.1-.2-3.4-.2s-2.7.2-3.4.2v-.5c1.3-.2 1.8-.5 1.8-1.4-.2-.1-.2-18.3-.2-18.3zM189.7 219.1c5.2 0 8.1 4.2 8.1 8.5 0 5.4-3.6 8.5-8.4 8.5-4.8 0-8.1-3.6-8.1-8.6.1-4.8 3.6-8.4 8.4-8.4zm.3 15.1c3.3 0 4.9-2.9 4.9-5.9 0-3-1.4-7.2-5.3-7.2-2.3 0-5.2 1.5-5.2 5.8 0 3.5 1.8 7.3 5.6 7.3zM202.1 222.5c0-1.2-.4-1.5-1.6-1.5v-.3c1.5-.4 3.4-1.1 4.6-1.6-.1.8-.1 1.9-.1 3.1v9.5c0 1.1.6 2.2 2.4 2.2 3 0 4.6-2.7 4.6-7v-4.4c0-1.2-.4-1.5-1.6-1.5v-.3c1.5-.4 3.4-1.1 4.6-1.6-.1.8-.1 1.9-.1 3.1v11.4c0 1 .3 1.5 1.6 1.6v.5c-.7-.1-1.6-.2-2.4-.2-.6 0-1.8.1-2.4.2.1-.7.2-1.5.2-2.2v-1h.1c-.8 2.2-2.6 3.5-5.1 3.5-2.2 0-4.9-1.3-4.9-5l.1-8.5zM220.9 222.5c0-1.2-.4-1.5-1.6-1.5v-.3c1.5-.4 3.4-1.1 4.6-1.6-.1.8-.1 1.9-.1 3.1h.1c.9-1.7 2.6-2.8 4.3-2.8.7 0 1.1.1 1.3.3.1.8.1 1.7.1 2.9-.8-.5-1.2-.8-2.2-.8-2.2 0-3.6 2-3.6 4.2v7.9c0 .8.9 1.2 1.9 1.3v.5c-1.2-.1-2.1-.2-3.3-.2-1.2 0-2.2.1-3.3.2v-.5c1-.1 1.9-.5 1.9-1.3l-.1-11.4zM257.1 233.4c-1.8 1.8-4.7 2.7-7.6 2.7-4.5 0-10.6-3.3-10.6-11.4 0-8.4 7.3-11.6 12.1-11.6 1.8 0 3.6.3 5.2 1.1 0 1.7.2 3.4.3 5.2h-.5c-.7-3.1-3.6-4.1-6-4.1-4.6 0-8 3.3-8 8.3 0 5.3 3.8 10.2 8.6 10.2 2.4 0 4.7-1 6.6-2.2l-.1 1.8zM267.9 219.1c5.2 0 8.1 4.2 8.1 8.5 0 5.4-3.6 8.5-8.4 8.5-4.8 0-8.1-3.6-8.1-8.6 0-4.8 3.6-8.4 8.4-8.4zm.2 15.1c3.3 0 4.9-2.9 4.9-5.9 0-3-1.4-7.2-5.3-7.2-2.3 0-5.2 1.5-5.2 5.8 0 3.5 1.8 7.3 5.6 7.3zM280.2 222.5c0-1.2-.4-1.5-1.6-1.5v-.3c1.5-.4 3.4-1.1 4.6-1.6-.1.8-.1 1.9-.1 3.1v9.5c0 1.1.6 2.2 2.4 2.2 3 0 4.6-2.7 4.6-7v-4.4c0-1.2-.4-1.5-1.6-1.5v-.3c1.5-.4 3.4-1.1 4.6-1.6-.1.8-.1 1.9-.1 3.1v11.4c0 1 .3 1.5 1.6 1.6v.5c-.7-.1-1.6-.2-2.4-.2-.6 0-1.8.1-2.4.2.1-.7.2-1.5.2-2.2v-1h-.1c-.8 2.2-2.5 3.5-5.1 3.5-2.2 0-4.9-1.3-4.9-5l.3-8.5zM299.1 222.5c0-1.2-.4-1.5-1.6-1.5v-.3c1.5-.4 3.4-1.1 4.6-1.6-.1.8-.1 1.9-.1 2.8h.1c.9-1.7 2.5-2.8 4.4-2.8 3.3 0 5.5 1.9 5.5 6.1v8.4c0 1 .3 1.5 1.6 1.6v.5c-.7-.1-1.6-.2-2.4-.2-.6 0-1.8.1-2.4.2.1-.7.2-1.5.2-2.2v-8.8c0-2.5-1.3-3.4-2.9-3.4-2.3 0-4.1 2-4.1 4.9v7.8c0 .8.9 1.2 1.9 1.3v.5c-1.2-.1-2.1-.2-3.3-.2-1.2 0-2.2.1-3.3.2v-.5c1-.1 1.9-.5 1.9-1.3l-.1-11.5zM315.7 219.5h2.2v-2.7c1.3-.5 2.3-1.3 3-2.3v5h4.7v1.7h-4.7v10.3c0 1.6.3 2.9 1.9 2.9 1.1 0 2.1-.4 3-1l-.3 2c-1 .5-2.1.8-3.3.8-3.1 0-4.2-1.3-4.2-4.3v-10.6h-2.2l-.1-1.8zM329.4 222.4c0-.9-.4-1.1-1.5-1.3-.2 0-.3-.1-.6-.1v-.3c1.8-.4 3.5-1 5.2-1.5-.1 1.1-.2 2.4-.2 3.5V234c0 .8.9 1.2 1.9 1.3v.5c-1.2-.1-2.1-.2-3.3-.2-1.2 0-2.2.1-3.3.2v-.5c1-.1 1.9-.5 1.9-1.3l-.1-11.6zm1.5-9.6c1.1 0 2 .9 2 2s-.9 2-2 2-2-.9-2-2 .9-2 2-2zM339.9 227c0 3.9 2.6 6.7 6.6 6.7 1.8 0 2.8-.3 5.6-2.3l-.2 2.2c-1.7 1.5-4.1 2.4-7.1 2.4-4.8 0-8.1-3.6-8.1-8.6 0-4.8 3.5-8.4 8.3-8.4 5.2 0 7.8 3.1 7.8 7.9l-12.9.1zm9.6-1.7c0-2.6-1.7-4.4-4.4-4.4-2.6 0-4.7 1.9-5 4.4h9.4zM355.8 231.3h.4c1.2 2.6 3.3 3.1 5.5 3.1 2.6 0 4-1.1 4-2.6 0-1.8-.9-2.1-4.9-2.9-3.2-.7-5.1-2-5.1-4.5 0-3.1 2.7-5.2 7.1-5.2 1.5 0 3 .4 4.5.7v3.9h-.5c-.6-1.9-2.3-2.8-4.2-2.8-2.5 0-4.1 1-4.1 2.9 0 1.6 1.5 2 4.5 2.6 3.6.7 5.3 1.6 5.3 4.6 0 3.2-2.6 5.1-7.2 5.1-1.7 0-3.5-.4-5-1.2l-.3-3.7zM387.7 213.7c8.7 0 13.4 4.3 13.4 10.8 0 6.6-5.6 11-12.4 11h-9.1v-.5c1.3-.2 1.8-.5 1.8-1.4v-18c0-1-.4-1.2-1.8-1.4v-.5h8.1zm-3 19.9h4.8c3.5 0 8.2-3.2 8.2-8.5 0-3.9-1.9-9.5-11.3-9.5h-1.7v18zM405.5 220.1c1.7-.7 3.4-1 5.2-1 3.8 0 6.5 1.6 6.5 6v8.1c0 1.1.1 1.9 1.4 2v.5c-.7-.1-1.4-.2-2.1-.2-.7 0-1.3.1-2 .2v-3.3h-.1c-1.2 2.5-3 3.6-5.7 3.6-3 0-5.1-1.6-5.1-4.6 0-2.8 1.8-4.4 5.3-4.9l4.9-.6c.7-.1.7-.7.7-1.2 0-2.4-1.3-3.6-3.8-3.6-2.3 0-4 .8-5 2.8h-.4l.2-3.8zm4.5 8.1c-2.4.4-3.4 1.4-3.4 3.1 0 1.9 1.3 2.7 3.1 2.7 3.3 0 4.6-3.5 4.6-5.8v-.7l-4.3.7zM420.1 219.5h2.2v-2.7c1.3-.5 2.3-1.3 3-2.3v5h4.7v1.7h-4.7v10.3c0 1.6.3 2.9 1.9 2.9 1.1 0 2.1-.4 3-1l-.3 2c-1 .5-2.1.8-3.3.8-3.1 0-4.2-1.3-4.2-4.3v-10.6h-2.2l-.1-1.8zM433.7 220.1c1.7-.7 3.4-1 5.2-1 3.7 0 6.5 1.6 6.5 6v8.1c0 1.1.1 1.9 1.4 2v.5c-.7-.1-1.4-.2-2.1-.2-.7 0-1.3.1-2 .2v-3.3h-.1c-1.2 2.5-3 3.6-5.8 3.6-3 0-5.1-1.6-5.1-4.6 0-2.8 1.8-4.4 5.3-4.9l4.9-.6c.7-.1.7-.7.7-1.2 0-2.4-1.3-3.6-3.7-3.6-2.3 0-4 .8-5 2.8h-.4l.2-3.8zm4.5 8.1c-2.4.4-3.4 1.4-3.4 3.1 0 1.9 1.3 2.7 3.1 2.7 3.3 0 4.6-3.5 4.6-5.8v-.7l-4.3.7zM450.5 213.6c0-.8-.3-1-1.2-1.2-.2-.1-.5-.1-.8-.2v-.3c1.6-.4 3.9-1.1 5.2-1.5-.1 1.6-.2 3.2-.2 4.9v6.6h.1c1.3-1.8 3.5-2.7 5.7-2.7 4 0 7.6 3 7.6 8.2 0 4.4-3.1 8.7-8.2 8.7-2.6 0-4.8-.7-6.3-2.3l-1.7 2h-.4c.1-1 .2-2 .2-2.9v-19.3zm8.2 7.7c-3.4 0-5.3 2.5-5.3 6.4 0 4.4 1.8 6.4 4.8 6.4 3.6 0 5.4-3.2 5.4-6.4.1-4.6-2.2-6.4-4.9-6.4zM471.5 220.1c1.7-.7 3.4-1 5.2-1 3.8 0 6.5 1.6 6.5 6v8.1c0 1.1.1 1.9 1.4 2v.5c-.7-.1-1.4-.2-2.1-.2-.7 0-1.3.1-2 .2v-3.3h-.1c-1.2 2.5-3 3.6-5.7 3.6-3 0-5.1-1.6-5.1-4.6 0-2.8 1.8-4.4 5.3-4.9l4.9-.6c.7-.1.7-.7.7-1.2 0-2.4-1.3-3.6-3.8-3.6-2.3 0-4 .8-5 2.8h-.4l.2-3.8zm4.4 8.1c-2.4.4-3.4 1.4-3.4 3.1 0 1.9 1.3 2.7 3.1 2.7 3.3 0 4.6-3.5 4.6-5.8v-.7l-4.3.7zM486.6 231.3h.4c1.2 2.6 3.3 3.1 5.5 3.1 2.6 0 4-1.1 4-2.6 0-1.8-.9-2.1-4.9-2.9-3.2-.7-5.1-2-5.1-4.5 0-3.1 2.7-5.2 7.1-5.2 1.5 0 3 .4 4.5.7v3.9h-.5c-.6-1.9-2.3-2.8-4.2-2.8-2.5 0-4.1 1-4.1 2.9 0 1.6 1.5 2 4.5 2.6 3.6.7 5.3 1.6 5.3 4.6 0 3.2-2.6 5.1-7.2 5.1-1.7 0-3.5-.4-5-1.2l-.3-3.7zM504.7 227c0 3.9 2.6 6.7 6.6 6.7 1.8 0 2.8-.3 5.6-2.3l-.2 2.2c-1.7 1.5-4.1 2.4-7.1 2.4-4.8 0-8.1-3.6-8.1-8.6 0-4.8 3.5-8.4 8.3-8.4 5.2 0 7.9 3.1 7.9 7.9l-13 .1zm9.6-1.7c0-2.6-1.7-4.4-4.4-4.4-2.6 0-4.7 1.9-5 4.4h9.4zM537.1 219.1c5.2 0 8.1 4.2 8.1 8.5 0 5.4-3.6 8.5-8.4 8.5-4.8 0-8.1-3.6-8.1-8.6.1-4.8 3.6-8.4 8.4-8.4zm.3 15.1c3.3 0 4.9-2.9 4.9-5.9 0-3-1.4-7.2-5.3-7.2-2.3 0-5.2 1.5-5.2 5.8-.1 3.5 1.7 7.3 5.6 7.3zM549.4 221.2h-2v-.9c1.8-.2 2-.5 2-2.8 0-5.7 4-6.5 5.1-6.5.7 0 1.3.1 2 .2l.1 2.5h-.4c-.1-.6-.9-.9-1.5-.9-1.9 0-2.5 1.4-2.5 2.6v4.1h3.8v1.7h-3.8v12.7c0 .8.9 1.2 1.9 1.3v.5c-1.2-.1-2.1-.2-3.3-.2-1.2 0-2.2.1-3.3.2v-.5c1-.1 1.9-.5 1.9-1.3v-12.7zM583.7 233.4c-1.8 1.8-4.7 2.7-7.6 2.7-4.5 0-10.6-3.3-10.6-11.4 0-8.4 7.3-11.6 12.1-11.6 1.8 0 3.6.3 5.2 1.1 0 1.7.2 3.4.3 5.2h-.5c-.7-3.1-3.6-4.1-6-4.1-4.6 0-8 3.3-8 8.3 0 5.3 3.8 10.2 8.6 10.2 2.4 0 4.7-1 6.6-2.2l-.1 1.8zM589.3 227c0 3.9 2.6 6.7 6.6 6.7 1.8 0 2.8-.3 5.6-2.3l-.2 2.2c-1.7 1.5-4.1 2.4-7.1 2.4-4.8 0-8.1-3.6-8.1-8.6 0-4.8 3.5-8.4 8.3-8.4 5.2 0 7.9 3.1 7.9 7.9l-13 .1zm9.6-1.7c0-2.6-1.7-4.4-4.4-4.4-2.6 0-4.7 1.9-5 4.4h9.4zM606.8 222.5c0-1.2-.4-1.5-1.6-1.5v-.3c1.5-.4 3.4-1.1 4.6-1.6-.1.8-.1 1.9-.1 3.1h.1c.9-1.7 2.6-2.8 4.3-2.8.7 0 1.1.1 1.3.3.1.8.1 1.7.1 2.9-.8-.5-1.2-.8-2.2-.8-2.2 0-3.6 2-3.6 4.2v7.9c0 .8.9 1.2 1.9 1.3v.5c-1.2-.1-2.1-.2-3.3-.2-1.2 0-2.2.1-3.3.2v-.5c1-.1 1.9-.5 1.9-1.3l-.1-11.4zM619.4 227c0 3.9 2.7 6.7 6.6 6.7 1.8 0 2.8-.3 5.6-2.3l-.2 2.2c-1.7 1.5-4.1 2.4-7.1 2.4-4.8 0-8.1-3.6-8.1-8.6 0-4.8 3.5-8.4 8.3-8.4 5.2 0 7.9 3.1 7.9 7.9l-13 .1zm9.6-1.7c0-2.6-1.7-4.4-4.4-4.4-2.6 0-4.7 1.9-5 4.4h9.4zM636.9 213.6c0-.8-.3-1-1.2-1.2-.2-.1-.5-.1-.8-.2v-.3c1.6-.4 3.9-1.1 5.2-1.5-.1 1.6-.2 3.2-.2 4.9v6.6h.1c1.3-1.8 3.5-2.7 5.6-2.7 4 0 7.6 3 7.6 8.2 0 4.4-3.1 8.7-8.2 8.7-2.6 0-4.8-.7-6.3-2.3l-1.7 2h-.4c.1-1 .2-2 .2-2.9l.1-19.3zm8.2 7.7c-3.4 0-5.3 2.5-5.3 6.4 0 4.4 1.8 6.4 4.8 6.4 3.6 0 5.4-3.2 5.4-6.4.1-4.6-2.3-6.4-4.9-6.4zM657.7 222.5c0-1.2-.4-1.5-1.6-1.5v-.3c1.5-.4 3.4-1.1 4.6-1.6-.1.8-.1 1.9-.1 3.1h.1c.9-1.7 2.6-2.8 4.3-2.8.7 0 1.1.1 1.3.3.1.8.1 1.7.1 2.9-.8-.5-1.2-.8-2.2-.8-2.2 0-3.6 2-3.6 4.2v7.9c0 .8.9 1.2 1.9 1.3v.5c-1.2-.1-2.1-.2-3.3-.2-1.2 0-2.2.1-3.3.2v-.5c1-.1 1.9-.5 1.9-1.3l-.1-11.4zM669 220.1c1.7-.7 3.4-1 5.2-1 3.8 0 6.5 1.6 6.5 6v8.1c0 1.1.1 1.9 1.4 2v.5c-.7-.1-1.4-.2-2.1-.2-.7 0-1.3.1-2 .2v-3.3h-.1c-1.2 2.5-3 3.6-5.8 3.6-3 0-5.1-1.6-5.1-4.6 0-2.8 1.8-4.4 5.3-4.9l4.9-.6c.7-.1.7-.7.7-1.2 0-2.4-1.3-3.6-3.8-3.6-2.3 0-4 .8-5 2.8h-.4l.3-3.8zm4.5 8.1c-2.4.4-3.4 1.4-3.4 3.1 0 1.9 1.3 2.7 3.1 2.7 3.3 0 4.6-3.5 4.6-5.8v-.7l-4.3.7zM686 213.6c0-.8-.3-1-1.2-1.2-.2-.1-.5-.1-.8-.2v-.3c1.6-.4 3.9-1.1 5.2-1.5-.1 1.6-.2 3.2-.2 4.9V234c0 .8.9 1.2 1.9 1.3v.5c-1.2-.1-2.1-.2-3.3-.2-1.2 0-2.2.1-3.3.2v-.5c1-.1 1.9-.5 1.9-1.3l-.2-20.4zM704 215.6c0-1-.4-1.2-1.8-1.4v-.5h10.1c4.5 0 6.8 2.6 6.8 6.4 0 4.2-3.3 6.9-7.9 6.9-.8 0-2.7-.3-3.3-.9-.1-.1-.2-.2-.2-.3 0-.2.2-.3.5-.3h2.1c3.2 0 5.7-1.8 5.7-5 0-4.4-3.1-5.1-7.7-5.1h-.9v18.4c0 1 .4 1.2 1.8 1.4v.5c-.7 0-2.1-.2-3.4-.2-1.3 0-2.7.2-3.4.2v-.5c1.3-.2 1.8-.5 1.8-1.4l-.2-18.2zM722.6 220.1c1.7-.7 3.4-1 5.2-1 3.7 0 6.5 1.6 6.5 6v8.1c0 1.1.1 1.9 1.4 2v.5c-.7-.1-1.4-.2-2.1-.2-.7 0-1.3.1-2 .2v-3.3h-.1c-1.2 2.5-3 3.6-5.7 3.6-3 0-5.1-1.6-5.1-4.6 0-2.8 1.8-4.4 5.3-4.9l4.9-.6c.7-.1.7-.7.7-1.2 0-2.4-1.3-3.6-3.7-3.6-2.3 0-4 .8-5 2.8h-.4l.1-3.8zm4.4 8.1c-2.4.4-3.4 1.4-3.4 3.1 0 1.9 1.3 2.7 3.1 2.7 3.3 0 4.6-3.5 4.6-5.8v-.7l-4.3.7zM739.6 213.6c0-.8-.3-1-1.2-1.2-.2-.1-.5-.1-.8-.2v-.3c1.6-.4 3.9-1.1 5.2-1.5-.1 1.6-.2 3.2-.2 4.9V234c0 .8.9 1.2 1.9 1.3v.5c-1.2-.1-2.1-.2-3.3-.2-1.2 0-2.2.1-3.3.2v-.5c1-.1 1.9-.5 1.9-1.3l-.2-20.4zM747.1 231.3h.4c1.2 2.6 3.3 3.1 5.5 3.1 2.6 0 4-1.1 4-2.6 0-1.8-.9-2.1-4.9-2.9-3.2-.7-5.1-2-5.1-4.5 0-3.1 2.7-5.2 7.1-5.2 1.5 0 3 .4 4.5.7v3.9h-.5c-.6-1.9-2.3-2.8-4.2-2.8-2.5 0-4.1 1-4.1 2.9 0 1.6 1.5 2 4.5 2.6 3.6.7 5.3 1.6 5.3 4.6 0 3.2-2.6 5.1-7.2 5.1-1.7 0-3.5-.4-5-1.2l-.3-3.7zM762.4 220.8c-.2-.6-1-.8-1.6-.8v-.5c1.3.1 2.3.2 3.5.2 1.2 0 2.3-.1 3.3-.2v.5c-.6.1-1.6.2-1.6 1 0 .3.1.8 1.6 4.5l2.6 6.7h.1l1.3-3.7c2.1-6.1 2.3-6.8 2.3-7.2 0-.9-.7-1.2-1.4-1.3v-.5c1 .1 2 .2 3 .2.7 0 1.4-.1 2.1-.2v.5c-1.1.1-1.4.7-1.8 1.7l-5.2 14c-.7 1.9-1.3 3-2 4.3-.6 1.2-2.2 2.2-3.5 2.2-.6 0-1.1-.1-1.6-.2l-.2-3.9h.4c.2.8.5 1.6 1.4 1.6 1 .1 1.7-.4 2.3-1.3.7-1.1 1.1-1.8 1.1-2.5 0-.2-.6-1.5-1.9-4.8l-4.2-10.3zM781.7 231.7v1c0 .9-.4 3.3-1 4.5-1 2.1-1.8 2.7-2 2.7-.2 0-.4-.1-.4-.3 0-.2.6-1.6.6-3.2s-.3-3.1-.6-4.7h3.4zM168.1 254.8c1.4 0 2.8.2 4.2.2 1 0 2-.2 3-.2v.5c-1.3 0-1.8.3-1.8 1 0 .4.2 1.1.4 1.5l5.5 15.3h.1l4.9-14.8c.3-.9.4-1.5.4-1.9 0-.7-.9-.9-1.6-1v-.5c1 0 2.1.2 3.1.2.9 0 1.7-.2 2.6-.2v.5c-1.1.1-1.7.8-2.1 1.9l-6.7 19.9h-2.3l-7.6-20.2c-.3-.8-.6-1.4-2.1-1.5v-.7zM192.1 263.7c0-.9-.4-1.1-1.5-1.3-.2 0-.3-.1-.6-.1v-.3c1.8-.4 3.5-1 5.2-1.5-.1 1.1-.2 2.4-.2 3.5v11.3c0 .8.9 1.2 1.9 1.3v.5c-1.2-.1-2.1-.2-3.3-.2-1.2 0-2.2.1-3.3.2v-.5c1-.1 1.9-.5 1.9-1.3l-.1-11.6zm1.6-9.6c1.1 0 2 .9 2 2s-.9 2-2 2-2-.9-2-2 .9-2 2-2zM199.7 272.6h.4c1.2 2.6 3.3 3.1 5.5 3.1 2.6 0 4-1.1 4-2.6 0-1.8-.9-2.1-4.9-2.9-3.2-.6-5.1-2-5.1-4.5 0-3.1 2.7-5.2 7.1-5.2 1.5 0 3 .4 4.5.7v3.9h-.5c-.6-1.9-2.3-2.8-4.2-2.8-2.5 0-4.1 1-4.1 2.9 0 1.6 1.5 2 4.5 2.6 3.6.7 5.3 1.6 5.3 4.6 0 3.2-2.7 5.1-7.2 5.1-1.7 0-3.5-.4-5-1.2l-.3-3.7zM216.6 263.7c0-.9-.4-1.1-1.5-1.3-.2 0-.3-.1-.5-.1v-.3c1.8-.4 3.5-1 5.2-1.5-.1 1.1-.2 2.4-.2 3.5v11.3c0 .8.9 1.2 1.9 1.3v.5c-1.2-.1-2.1-.2-3.3-.2-1.2 0-2.2.1-3.3.2v-.5c1-.1 1.9-.5 1.9-1.3l-.2-11.6zm1.5-9.6c1.1 0 2 .9 2 2s-.9 2-2 2-2-.9-2-2 .9-2 2-2zM232.3 260.4c5.2 0 8.1 4.2 8.1 8.5 0 5.4-3.6 8.5-8.4 8.5-4.8 0-8.1-3.6-8.1-8.6.1-4.8 3.6-8.4 8.4-8.4zm.2 15c3.3 0 4.9-2.9 4.9-5.9 0-3-1.4-7.2-5.3-7.2-2.3 0-5.2 1.5-5.2 5.8 0 3.6 1.8 7.3 5.6 7.3zM244.6 263.8c0-1.2-.4-1.5-1.6-1.5v-.3c1.5-.4 3.4-1.1 4.6-1.5-.1.8-.1 1.9-.1 2.8h.1c.9-1.7 2.5-2.8 4.4-2.8 3.3 0 5.5 1.9 5.5 6.1v8.4c0 1 .3 1.5 1.6 1.6v.5c-.7-.1-1.6-.2-2.4-.2-.6 0-1.8.1-2.4.2.1-.7.2-1.5.2-2.2v-8.8c0-2.5-1.3-3.4-2.9-3.4-2.3 0-4.1 2-4.1 4.9v7.7c0 .8.9 1.2 1.9 1.3v.5c-1.2-.1-2.1-.2-3.3-.2-1.2 0-2.2.1-3.3.2v-.5c1-.1 1.9-.5 1.9-1.3l-.1-11.5zM272.5 256.7c0-1-.4-1.2-1.8-1.4v-.5c.7 0 2.1.2 3.4.2 1.3 0 2.7-.2 3.9-.2v.5c-1.8.1-2.2.7-2.2 1.4v18.2h6.5c3.2 0 4.1-.9 4.4-4.1h.6c-.2 2-.2 4-.3 6h-16.4v-.5c1.3-.2 1.8-.5 1.8-1.4l.1-18.2zM297.5 260.4c5.2 0 8.1 4.2 8.1 8.5 0 5.4-3.6 8.5-8.4 8.5-4.8 0-8.1-3.6-8.1-8.6 0-4.8 3.5-8.4 8.4-8.4zm.2 15c3.3 0 4.9-2.9 4.9-5.9 0-3-1.4-7.2-5.3-7.2-2.3 0-5.2 1.5-5.2 5.8 0 3.6 1.8 7.3 5.6 7.3zM308.2 272.6h.4c1.2 2.6 3.3 3.1 5.5 3.1 2.6 0 4-1.1 4-2.6 0-1.8-.9-2.1-4.9-2.9-3.2-.6-5.1-2-5.1-4.5 0-3.1 2.6-5.2 7.1-5.2 1.5 0 3 .4 4.5.7v3.9h-.5c-.6-1.9-2.3-2.8-4.2-2.8-2.5 0-4.1 1-4.1 2.9 0 1.6 1.5 2 4.5 2.6 3.6.7 5.3 1.6 5.3 4.6 0 3.2-2.7 5.1-7.2 5.1-1.7 0-3.5-.4-5-1.2l-.3-3.7zM323.3 272.6h.4c1.2 2.6 3.3 3.1 5.5 3.1 2.6 0 4-1.1 4-2.6 0-1.8-.9-2.1-4.9-2.9-3.2-.6-5.1-2-5.1-4.5 0-3.1 2.7-5.2 7.1-5.2 1.5 0 3 .4 4.5.7v3.9h-.5c-.6-1.9-2.3-2.8-4.2-2.8-2.5 0-4.1 1-4.1 2.9 0 1.6 1.5 2 4.5 2.6 3.6.7 5.3 1.6 5.3 4.6 0 3.2-2.7 5.1-7.2 5.1-1.7 0-3.5-.4-5-1.2l-.3-3.7zM348.5 261.4c1.7-.7 3.4-1 5.2-1 3.8 0 6.5 1.6 6.5 6v8.1c0 1.1.1 1.9 1.4 2v.5c-.7-.1-1.4-.2-2.1-.2-.7 0-1.3.1-2 .2v-3.3h-.1c-1.2 2.5-3 3.6-5.7 3.6-3 0-5.1-1.5-5.1-4.6 0-2.8 1.8-4.4 5.3-4.9l4.9-.6c.7-.1.7-.7.7-1.2 0-2.4-1.3-3.6-3.8-3.6-2.3 0-4 .8-5 2.8h-.4l.2-3.8zm4.4 8.1c-2.4.4-3.4 1.4-3.4 3.1 0 1.9 1.3 2.7 3.1 2.7 3.3 0 4.6-3.5 4.6-5.8v-.7l-4.3.7zM365.3 263.8c0-1.2-.4-1.5-1.6-1.5v-.3c1.5-.4 3.4-1.1 4.6-1.5-.1.8-.1 1.9-.1 2.8h.1c.9-1.7 2.5-2.8 4.4-2.8 3.3 0 5.5 1.9 5.5 6.1v8.4c0 1 .3 1.5 1.6 1.6v.5c-.7-.1-1.6-.2-2.4-.2-.6 0-1.8.1-2.4.2.1-.7.2-1.5.2-2.2v-8.8c0-2.5-1.3-3.4-2.9-3.4-2.3 0-4.1 2-4.1 4.9v7.7c0 .8.9 1.2 1.9 1.3v.5c-1.2-.1-2.1-.2-3.3-.2-1.2 0-2.2.1-3.3.2v-.5c1-.1 1.9-.5 1.9-1.3l-.1-11.5zM400.8 277c-.8-.1-1.6-.2-2.3-.2s-1.5.1-2.2.2v-2.7h-.1c-1.5 2.4-3.5 3.1-6.1 3.1-2.6 0-7.4-2.1-7.4-8.1 0-6.1 4.9-8.8 8.4-8.8 2.1 0 3.8.9 5.1 2.7h.1V255c0-.8-.3-1-1.2-1.2-.2-.1-.5-.1-.8-.2v-.3c1.6-.4 3.9-1.1 5.2-1.5-.1 1.6-.2 3.2-.2 4.9v18.9c0 .6.2 1 1.6 1.1l-.1.3zm-14.9-8c0 3.4 2.3 6.4 5.5 6.4 2.8 0 4.9-2 4.9-6.4 0-4.9-2.6-6.5-5.2-6.5-2.2.1-5.2 1.4-5.2 6.5zM412.2 276.5c1.3-.2 1.8-.5 1.8-1.4v-18.4c0-1-.4-1.2-1.8-1.4v-.5c.7 0 2.1.2 3.4.2 1.3 0 2.7-.2 3.4-.2v.5c-1.3.2-1.8.5-1.8 1.4v7.6h10.9v-7.6c0-1-.4-1.2-1.8-1.4v-.5c.7 0 2.1.2 3.4.2s2.7-.2 3.4-.2v.5c-1.3.2-1.8.5-1.8 1.4v18.4c0 1 .4 1.2 1.8 1.4v.5c-.7 0-2.1-.2-3.4-.2s-2.7.2-3.4.2v-.5c1.3-.2 1.8-.5 1.8-1.4v-8.7h-10.9v8.7c0 1 .4 1.2 1.8 1.4v.5c-.7 0-2.1-.2-3.4-.2-1.3 0-2.7.2-3.4.2v-.5zM439.5 268.3c0 3.9 2.7 6.7 6.6 6.7 1.8 0 2.8-.3 5.6-2.3l-.2 2.2c-1.6 1.5-4.1 2.4-7.1 2.4-4.8 0-8.1-3.6-8.1-8.6 0-4.8 3.5-8.4 8.3-8.4 5.2 0 7.9 3.1 7.9 7.9l-13 .1zm9.6-1.7c0-2.7-1.7-4.4-4.4-4.4-2.6 0-4.7 1.9-5 4.4h9.4zM457.2 261.4c1.7-.7 3.4-1 5.2-1 3.8 0 6.5 1.6 6.5 6v8.1c0 1.1.1 1.9 1.4 2v.5c-.7-.1-1.4-.2-2.1-.2-.7 0-1.3.1-2 .2v-3.3h-.1c-1.2 2.5-3 3.6-5.8 3.6-3 0-5.1-1.5-5.1-4.6 0-2.8 1.8-4.4 5.3-4.9l4.9-.6c.7-.1.7-.7.7-1.2 0-2.4-1.3-3.6-3.8-3.6-2.3 0-4 .8-5 2.8h-.3l.2-3.8zm4.4 8.1c-2.4.4-3.4 1.4-3.4 3.1 0 1.9 1.3 2.7 3.1 2.7 3.3 0 4.6-3.5 4.6-5.8v-.7l-4.3.7zM474 263.8c0-1.2-.4-1.5-1.6-1.5v-.3c1.5-.4 3.4-1.1 4.6-1.5-.1.8-.1 1.9-.1 3.1h.1c.9-1.7 2.6-2.8 4.3-2.8.7 0 1.1.1 1.3.3.1.8.1 1.7.1 2.9-.8-.5-1.2-.8-2.2-.8-2.2 0-3.6 2-3.6 4.2v7.9c0 .8.9 1.2 1.9 1.3v.5c-1.2-.1-2.1-.2-3.3-.2-1.2 0-2.2.1-3.3.2v-.5c1-.1 1.9-.5 1.9-1.3l-.1-11.5zM485.5 263.7c0-.9-.4-1.1-1.5-1.3-.2 0-.3-.1-.6-.1v-.3c1.8-.4 3.5-1 5.2-1.5-.1 1.1-.2 2.4-.2 3.5v11.3c0 .8.9 1.2 1.9 1.3v.5c-1.2-.1-2.1-.2-3.3-.2-1.2 0-2.2.1-3.3.2v-.5c1-.1 1.9-.5 1.9-1.3l-.1-11.6zm1.5-9.6c1.1 0 2 .9 2 2s-.9 2-2 2-2-.9-2-2 .9-2 2-2zM494.6 263.8c0-1.2-.4-1.5-1.6-1.5v-.3c1.5-.4 3.4-1.1 4.6-1.5-.1.8-.1 1.9-.1 2.8h.1c.9-1.7 2.5-2.8 4.4-2.8 3.3 0 5.5 1.9 5.5 6.1v8.4c0 1 .3 1.5 1.6 1.6v.5c-.6-.1-1.6-.2-2.4-.2-.6 0-1.8.1-2.4.2.1-.7.2-1.5.2-2.2v-8.8c0-2.5-1.3-3.4-2.9-3.4-2.3 0-4.1 2-4.1 4.9v7.7c0 .8.9 1.2 1.9 1.3v.5c-1.2-.1-2.1-.2-3.3-.2-1.2 0-2.2.1-3.3.2v-.5c1-.1 1.9-.5 1.9-1.3l-.1-11.5zM514.4 270.1c-1-1.1-1.6-2.5-1.6-4 0-2.6 1.9-5.7 6.4-5.7 1 0 2.1.1 3.1.2s2.1.3 3.1.3c.6 0 1.2-.1 1.9-.2l-.4 1.7c-.4.1-.9.2-1.4.2-.6 0-1.2-.1-1.7-.2l-.1.1c1 .9 1.6 2.3 1.6 3.7 0 2.8-1.9 5.5-6.7 5.5-1.1 0-2.2-.3-3.2-.9-1.4 1-1.7 1.3-1.7 2 0 .6.7 1.3 2 1.3h5.7c4.4 0 5.6 2 5.6 4 0 3-3.3 5.3-7.6 5.3-2.4 0-6.1-.5-6.1-3.6 0-.6.1-.9.4-1.6l2.2-1c-.2.5-.3.9-.3 1.5 0 2 1.9 3.2 3.8 3.2s4.8-.9 4.8-3.2c0-1.6-1-1.8-2.5-1.8h-5.3c-2.9 0-5.1-.8-5.2-3.4 0-.5 0-1.1.2-1.5l3-1.9zm4.8-.1c2.1 0 2.9-1.7 2.9-3.4 0-2-1-4.4-3.5-4.4-1.8 0-2.9 1.4-2.9 3.1.1 2 1.1 4.7 3.5 4.7zM539.4 256.7c0-1-.4-1.2-1.8-1.4v-.5c.7 0 2.1.2 3.4.2 1.3 0 2.7-.2 3.9-.2v.5c-1.8.1-2.2.7-2.2 1.4v18.2h6.5c3.2 0 4.1-.9 4.4-4.1h.6c-.2 2-.2 4-.3 6h-16.4v-.5c1.3-.2 1.8-.5 1.8-1.4l.1-18.2zM564.4 260.4c5.2 0 8.1 4.2 8.1 8.5 0 5.4-3.6 8.5-8.4 8.5-4.8 0-8.1-3.6-8.1-8.6.1-4.8 3.6-8.4 8.4-8.4zm.3 15c3.3 0 4.9-2.9 4.9-5.9 0-3-1.4-7.2-5.3-7.2-2.3 0-5.2 1.5-5.2 5.8 0 3.6 1.7 7.3 5.6 7.3zM575.1 272.6h.4c1.2 2.6 3.3 3.1 5.5 3.1 2.6 0 4-1.1 4-2.6 0-1.8-.9-2.1-4.9-2.9-3.2-.6-5.1-2-5.1-4.5 0-3.1 2.7-5.2 7.1-5.2 1.5 0 3 .4 4.5.7v3.9h-.5c-.6-1.9-2.3-2.8-4.2-2.8-2.5 0-4.1 1-4.1 2.9 0 1.6 1.5 2 4.5 2.6 3.6.7 5.3 1.6 5.3 4.6 0 3.2-2.7 5.1-7.2 5.1-1.7 0-3.5-.4-5-1.2l-.3-3.7zM590.2 272.6h.4c1.2 2.6 3.3 3.1 5.5 3.1 2.6 0 4-1.1 4-2.6 0-1.8-.9-2.1-4.9-2.9-3.2-.6-5.1-2-5.1-4.5 0-3.1 2.6-5.2 7.1-5.2 1.5 0 3 .4 4.5.7v3.9h-.5c-.6-1.9-2.3-2.8-4.2-2.8-2.5 0-4.1 1-4.1 2.9 0 1.6 1.5 2 4.5 2.6 3.6.7 5.3 1.6 5.3 4.6 0 3.2-2.6 5.1-7.2 5.1-1.7 0-3.5-.4-5-1.2l-.3-3.7zM615.5 263.7c0-.9-.4-1.1-1.5-1.3-.2 0-.3-.1-.6-.1v-.3c1.8-.4 3.5-1 5.2-1.5-.1 1.1-.2 2.4-.2 3.5v11.3c0 .8.9 1.2 1.9 1.3v.5c-1.2-.1-2.1-.2-3.3-.2-1.2 0-2.2.1-3.3.2v-.5c1-.1 1.9-.5 1.9-1.3l-.1-11.6zm1.6-9.6c1.1 0 2 .9 2 2s-.9 2-2 2-2-.9-2-2 .8-2 2-2zM624.7 263.8c0-1.2-.4-1.5-1.6-1.5v-.3c1.5-.4 3.4-1.1 4.6-1.5-.1.8-.1 1.9-.1 2.8h.1c.9-1.7 2.5-2.8 4.4-2.8 3.3 0 5.5 1.9 5.5 6.1v8.4c0 1 .3 1.5 1.6 1.6v.5c-.6-.1-1.6-.2-2.4-.2-.6 0-1.8.1-2.4.2.1-.7.2-1.5.2-2.2v-8.8c0-2.5-1.3-3.4-2.9-3.4-2.3 0-4.1 2-4.1 4.9v7.7c0 .8.9 1.2 1.9 1.3v.5c-1.2-.1-2.1-.2-3.3-.2-1.2 0-2.2.1-3.3.2v-.5c1-.1 1.9-.5 1.9-1.3l-.1-11.5zM668.6 274.7c-1.8 1.8-4.7 2.6-7.6 2.6-4.5 0-10.6-3.3-10.6-11.4 0-8.4 7.3-11.6 12.1-11.6 1.8 0 3.7.3 5.2 1.1 0 1.7.2 3.4.3 5.2h-.5c-.7-3.1-3.6-4.1-6-4.1-4.6 0-8 3.3-8 8.3 0 5.3 3.8 10.2 8.6 10.2 2.4 0 4.7-1 6.6-2.2l-.1 1.9zM672.8 254.9c0-.8-.3-1-1.2-1.2-.2-.1-.5-.1-.8-.2v-.3c1.6-.4 3.9-1.1 5.2-1.5-.1 1.6-.2 3.2-.2 4.9v6.6h.1c.9-1.7 2.5-2.8 4.4-2.8 3.3 0 5.5 1.9 5.5 6.1v8.4c0 1 .3 1.5 1.6 1.6v.5c-.7-.1-1.6-.2-2.4-.2-.6 0-1.8.1-2.4.2.1-.7.2-1.5.2-2.2V266c0-2.5-1.3-3.4-2.9-3.4-2.3 0-4.1 2-4.1 4.9v7.7c0 .8.9 1.2 1.9 1.3v.5c-1.2-.1-2.1-.2-3.3-.2-1.2 0-2.2.1-3.3.2v-.5c1-.1 1.9-.5 1.9-1.3l-.2-20.3zM691.9 263.7c0-.9-.4-1.1-1.5-1.3-.2 0-.3-.1-.5-.1v-.3c1.8-.4 3.5-1 5.2-1.5-.1 1.1-.2 2.4-.2 3.5v11.3c0 .8.9 1.2 1.9 1.3v.5c-1.2-.1-2.1-.2-3.3-.2s-2.2.1-3.3.2v-.5c1-.1 1.9-.5 1.9-1.3l-.2-11.6zm1.6-9.6c1.1 0 2 .9 2 2s-.9 2-2 2-2-.9-2-2 .9-2 2-2zM701.3 254.9c0-.8-.3-1-1.2-1.2-.2-.1-.5-.1-.8-.2v-.3c1.6-.4 3.9-1.1 5.2-1.5-.1 1.6-.2 3.2-.2 4.9v18.7c0 .8.9 1.2 1.9 1.3v.5c-1.2-.1-2.1-.2-3.3-.2-1.2 0-2.2.1-3.3.2v-.5c1-.1 1.9-.5 1.9-1.3l-.2-20.4zM727 277c-.8-.1-1.5-.2-2.3-.2s-1.6.1-2.2.2v-2.7h-.1c-1.5 2.4-3.5 3.1-6.1 3.1-2.6 0-7.4-2.1-7.4-8.1 0-6.1 4.9-8.8 8.4-8.8 2.1 0 3.8.9 5.1 2.7h.1V255c0-.8-.3-1-1.2-1.2-.2-.1-.5-.1-.8-.2v-.3c1.6-.4 3.9-1.1 5.2-1.5-.1 1.6-.2 3.2-.2 4.9v18.9c0 .6.2 1 1.6 1.1v.3zm-14.9-8c0 3.4 2.3 6.4 5.5 6.4 2.8 0 4.9-2 4.9-6.4 0-4.9-2.6-6.5-5.2-6.5-2.3.1-5.2 1.4-5.2 6.5zM731.2 263.8c0-1.2-.4-1.5-1.6-1.5v-.3c1.5-.4 3.4-1.1 4.6-1.5-.1.8-.1 1.9-.1 3.1h.1c.9-1.7 2.6-2.8 4.3-2.8.7 0 1.1.1 1.3.3.1.8.1 1.7.1 2.9-.8-.5-1.2-.8-2.2-.8-2.2 0-3.6 2-3.6 4.2v7.9c0 .8.9 1.2 1.9 1.3v.5c-1.2-.1-2.1-.2-3.3-.2-1.2 0-2.2.1-3.3.2v-.5c1-.1 1.9-.5 1.9-1.3l-.1-11.5zM743.9 268.3c0 3.9 2.7 6.7 6.6 6.7 1.8 0 2.8-.3 5.6-2.3l-.2 2.2c-1.7 1.5-4.1 2.4-7.1 2.4-4.8 0-8.1-3.6-8.1-8.6 0-4.8 3.5-8.4 8.3-8.4 5.2 0 7.9 3.1 7.9 7.9l-13 .1zm9.6-1.7c0-2.7-1.7-4.4-4.4-4.4-2.6 0-4.7 1.9-5 4.4h9.4zM761.4 263.8c0-1.2-.4-1.5-1.6-1.5v-.3c1.5-.4 3.4-1.1 4.6-1.5-.1.8-.1 1.9-.1 2.8h.1c.9-1.7 2.5-2.8 4.4-2.8 3.3 0 5.5 1.9 5.5 6.1v8.4c0 1 .3 1.5 1.6 1.6v.5c-.7-.1-1.6-.2-2.4-.2-.6 0-1.8.1-2.4.2.1-.7.2-1.5.2-2.2v-8.8c0-2.5-1.3-3.4-2.9-3.4-2.3 0-4.1 2-4.1 4.9v7.7c0 .8.9 1.2 1.9 1.3v.5c-1.2-.1-2.1-.2-3.3-.2-1.2 0-2.2.1-3.3.2v-.5c1-.1 1.9-.5 1.9-1.3l-.1-11.5z"/></g></svg>