<svg xmlns="http://www.w3.org/2000/svg" width="363.9" height="100" viewBox="0 0 363.9 100"><path fill="#2B3383" d="M13.6 44.8c3.2 0 5.9.3 8.1.8 2.3.5 4.5 1.4 6.9 2.6l2.3-5 2.3-5H0c.8 2.8 1.4 5.5 1.7 8.1s.5 5.8.5 9.6v25.5c0 3.9-.1 7.1-.5 9.8S.8 96.3 0 99h13.5c-.8-2.7-1.4-5.4-1.7-8-.3-2.6-.5-5.8-.5-9.6V71.2c3.2 0 5.8.3 8 .8s4.1 1.3 6.2 2.6l2.8-4.9 2.8-4.9H11.4v-20h2.2zM70 77.9l-4.4-6.5c1.8-.8 3.3-1.5 4.9-2.6 4.6-3.2 6.9-7.3 6.9-12.5 0-5.8-2.1-10.3-6.3-13.4-4.2-3.1-10.1-4.7-18-4.7H41.7c.8 2.8 1.4 5.4 1.7 8.1.3 2.6.5 5.8.5 9.6v25.5c0 3.9-.1 7.1-.5 9.8-.3 2.6-.9 5.3-1.7 8h13.5c-.8-2.7-1.4-5.4-1.7-8-.3-2.6-.5-5.8-.5-9.6V71.2l1.5 2.4c3 4.5 6.5 9.2 10.7 14.1 4.2 5 7.8 8.7 10.9 11.4h11.2c-4.4-4.9-7.8-8.7-10.4-11.8-2.6-3.2-4.9-6.3-6.9-9.4zm-7-12.6c-2.6 2.1-5.8 3.2-9.8 3.5V44c4.1.1 7.4 1.3 10 3.2 2.7 2.2 4.1 5 4.1 8.6 0 4-1.4 7.1-4.3 9.5zm115.3-1.8c-3.3-2.1-5.6-4-6.9-5.5-1.3-1.5-1.9-3.3-1.9-5.4 0-2.3.8-4.2 2.4-5.8 1.7-1.5 3.7-2.3 6.3-2.3 2.2 0 4.1.4 6 1.3 1.8.9 3.6 2.3 5.4 4.2V39.5c-1.5-.8-3.2-1.4-4.9-1.8s-3.7-.6-5.9-.6c-5.5 0-10 1.5-13.7 4.7-3.6 3.2-5.4 7.2-5.4 11.9 0 3.5 1 6.5 3 9.1 2.1 2.7 5.4 5.5 10.4 8.6 3.5 2.2 5.8 4.1 7.1 5.8 1.3 1.8 2.1 3.7 2.1 6 0 2.6-1 4.7-3 6.4-1.9 1.7-4.5 2.6-7.4 2.6-2.4 0-4.6-.5-6.5-1.7-1.9-1.2-4-2.8-5.8-5.1v11.4c2.6 1 4.7 1.8 6.7 2.2 1.9.4 4.2.6 6.9.6 5.4 0 9.9-1.7 13.5-5 3.6-3.3 5.4-7.6 5.4-12.6 0-3.7-1-6.9-3.1-9.8-2.2-2.6-5.7-5.4-10.7-8.7zm22.3-25.4l-1.8 5.3-1.8 5.3c3-1.5 6.5-2.6 11-3.2 2.3-.4 5-.5 8.2-.6v36.6c0 3.6-.1 6.7-.5 9.2-.4 2.6-.9 5.4-1.8 8.3h13.9c-.9-3.1-1.5-5.9-1.8-8.5-.4-2.6-.5-5.6-.5-9.1V44.5c2.3.1 4.5.4 6.8.8 2.6.5 5.5 1.5 9.1 2.8l1.4-5 1.4-5H200.6zm-79.8-.9c-9.1 0-16.7 3-22.8 8.9-6 5.9-9.1 13.2-9.1 22.1 0 9.1 2.8 16.7 8.6 22.7 5.6 6 12.8 9.1 21.4 9.1 9.1 0 16.8-3 22.8-8.9s9.1-13.2 9.1-22.1c0-9.1-2.8-16.7-8.6-22.8-5.7-5.9-12.8-9-21.4-9z"/><path fill="#613392" d="M312.2 81.4V58.5l-4.6 7.4-4.6-7.3v22.8c0 3.9-.1 7.2-.5 9.8-.3 2.6-.9 5.3-1.7 8h13.5c-.8-2.7-1.4-5.4-1.7-8-.3-2.8-.4-6-.4-9.8z"/><path fill="#613392" d="M351.2 91.1c-3.6.6-8.1 1-13.6 1.2V71.2h.4c3.2 0 5.9.3 8 .8 2.2.5 4.1 1.3 6.2 2.6l2.8-4.9 2.8-4.9h-20v-20h2.4c3.2 0 5.9.3 8.2.8 2.3.5 4.5 1.4 6.9 2.6l2.3-5 2.3-5h-34l-3.6-1.9 4.5-1.2-.3-1.2-5.6 1.5-2.1-1.2 3.6-.9-.3-1.2-4.7 1.3-2.1-1.2 7.6-2.1-.3-1.2-8.6 2.3-4.9-2.8 4.9-2.8 8.6 2.3.4-.9-7.6-2.1 2.1-1.2 4.7 1.3.3-1.2-3.6-.9 2.1-1.2 5.8 1.5.3-1.2-4.6-1.3 3.6-2.1 2.3.4 3.5-.9-3.5-.5.8-.5 3.3-3-4.2 1.4-.8.4 1.3-3.3-2.6 2.6-.9 2.2-3.6 2.1 1.2-4.5-1.2-.3-1.5 5.6-2.1 1.2.9-3.6-1.2-.3-1.3 4.7-2.1 1.2 2.1-7.6-1.2-.3-2.3 8.6-4.9 2.8v-5.6l6.3-6.3-.8-.9-5.5 5.5v-2.3l3.7-3.6-.9-.8-2.6 2.7v-2.3l4.2-4.2-.8-1-3.5 3.5V7.8l1.4-1.8.9-3.5-2.2 2.8v-.8l-.7-4.5-.9 4.4v.9l-2.2-2.8.9 3.5 1.4 1.8v4.1l-3.3-3.3-.8.8 4.1 4.1v2.3l-2.6-2.6-.8.8 3.5 3.5v2.3l-5.5-5.5-.8.8 6.3 6.3V27l-4.9-2.8-2.3-8.6-1.2.3 2.1 7.6-2.1-1.2-1.3-4.7-1.2.3 1 3.6-2.1-1.2-1.5-5.8-1.2.3 1.3 4.6-3.6-2.1-.9-2.2-2.6-2.6 1.3 3.3-.8-.4-4.2-1.4 3.3 3 .8.5-3.5.5 3.5.9 2.3-.4 3.6 2.1-4.5 1.2.3 1.2 5.6-1.5 2.1 1.2-3.6.9.3 1.2 4.7-1.3 2.1 1.2-7.6 2.1.3 1.2 8.6-2.3 5 2.3-1.5.9-3.3 1.9-8.6-2.3-.3 1.2 7.6 2.1-2.1 1.2-4.7-1.3-.3 1.2 3.6.9-2.1 1.2-5.8-1.5-.3 1.2 4.6 1.3-3.3 1.9h-39l-1.8 5.3-1.8 5.3c3-1.5 6.5-2.6 11-3.2 2.3-.4 5-.5 8.2-.6v36.6c0 3.6-.1 6.7-.5 9.2-.4 2.6-.9 5.4-1.8 8.3h13.9c-.9-3.1-1.5-5.9-1.8-8.5-.4-2.6-.5-5.6-.5-9.1V44.5c2.3.1 4.5.4 6.8.8 2.6.5 5.5 1.5 9.1 2.8l1.3-4.4 2.4-7.2 2.1-1.2-.9 3.6 1.2.3 1.3-4.7 2.1-1.2-2.1 7.6 1.2.3 2.3-8.6 4.9-2.8v5.6l-6.3 6.3.8.9 5.5-5.5v2.3l-3.5 3.5.9.8 2.6-2.7v2.3l-4.2 4.2.9.8 3.5-3.5v4.1l-1.4 1.8-.9 3.5 2.2-2.8v.9l.9 4.4.9-4.4v-.9l2.2 2.8-.9-3.5-1.4-1.8v-4.1l3.3 3.3.8-.8-4.1-4.1v-2.3l2.6 2.6.8-.8-3.5-3.5V37l5.5 5.5.8-.8-6.3-6.3v-5.6l1.5.9 3.3 1.9 2.3 8.6 1.2-.3-2.1-7.6 2.1 1.2 1.3 4.7 1.2-.3-1-3.6 2.1 1.2 1.5 5.8 1.2-.3-1.3-4.6 4.6 2.7c.6 2.1 1.4 4.1 1.7 6 .3 2.6.5 5.8.5 9.6v25.5c0 3.9-.1 7.1-.5 9.8-.3 2.6-.9 5.3-1.7 8H359l2.6-6.2 2.6-6.2c-4.1 2.2-8.2 3.6-13 4.5z"/><path fill="#FFF" d="M119.6 88.6l-.6 3.2.9 4.2.9-4.2-.8-3.2h.1l.6 2.3 2.1 2.7-.9-3.2-1.4-1.8v-4l3.2 3.1.8-.8-4-4v-2.3l2.6 2.6.8-.8-3.3-3.3v-2.3l5.4 5.4.8-.9-6.2-6v-5.4l1.5.8 3.2 1.9 2.2 8.3 1-.3-1.9-7.3 2.1 1.2 1.2 4.6 1-.3-.9-3.5 2.1 1.2 1.4 5.5.9-.3-1-4.5 3.3 2.1.8 2.1 2.4 2.4-1.3-3.2-1.7-1.7v-.1l2.6 2.3 4 1.4-3.2-3-3.1-1v-.1l2.4.8 3.3-.5-3.3-.9-2.2.3L134 76l4.2-1-.3-1.2-5.4 1.4-1.9-1.2 3.5-.9-.3-1-4.6 1.2-1.9-1.2 7.1-1.9-.1-1-8.3 2.2-4.6-2.8 1.4-.8 3.3-1.8 8.2 2.3.3-1-7.1-2.1 1.9-1.2 4.5 1.3.4-1-3.5-1 2.1-1.2 5.4 1.7.3-1.2-4.4-1.3 3.5-1.9 2.2.4 3.3-.8-3.3-.5-2.4.5 3.2-1 3.2-2.8-4.1 1.3-2.6 2.2 1.8-1.8 1.3-3.1-2.4 2.3-.9 2.2-3.3 1.9 1.2-4.4-1-.3-1.5 5.4-1.9 1 .9-3.3-1-.4-1.3 4.5-2.1 1.2 2.1-7.2-1-.3-2.3 8.2-4.9 2.7v-5.5l6.2-6-.8-.9-5.4 5.4V58l3.3-3.3-.8-.8-2.6 2.6v-2.3l4.1-4.1-.8-.8-3.3 3.2v-4l1.4-1.8.9-3.2-2.1 2.7-.6 2.3h-.4l.6-3.2-.8-4.2-.9 4.2.6 3.2-.6-2.3-2.2-2.7.9 3.2 1.4 1.8v4l-3.2-3.1-.8.8 4 4v2.3l-2.4-2.6-.8.8L119 58v2.3l-5.3-5.4-.8.9 6 6v5.4l-1.4-.8-3.2-1.9-2.2-8.3-1 .3 1.8 7.3-1.9-1.2-1-4.6-1.2.3.9 3.5-1.9-1.2-1.4-5.5-1.2.3 1.2 4.5-3.5-2.1-.8-2.1-2.3-2.4 1.2 3.1 1.8 1.8-.1.1-2.4-2.3-4-1.4 3.1 3 3.2 1v.1l-2.4-.8-3.3.5 3.2.9 2.3-.3 3.5 2.1-4.4 1 .3 1.2 5.4-1.4 2.1 1.2-3.5.9.3 1 4.5-1.2 2.1 1.2-7.3 1.9.3 1 8.3-2.2 4.7 2.8-1.5.8-3.2 1.8-8.3-2.3-.3 1 7.2 2.1-2.1 1.2-4.5-1.3-.3 1 3.5 1-2.1 1.2-5.5-1.7-.4 1.2 4.5 1.3-3.5 1.9-2.2-.4-3.5.7 3.3.5 2.4-.5-3.2 1-3.2 2.8 4.1-1.3 2.4-2.2h.1l-1.8 1.8-1.4 3.1 2.6-2.3.8-2.2 3.6-1.9-1.3 4.4 1 .3 1.5-5.4 2.1-1-1 3.3 1.2.4 1.3-4.5 1.9-1.2-2.1 7.2 1.2.3 2.3-8.2 4.7-2.7v5.5l-6 6 .8.9 5.3-5.4V79l-3.3 3.3.9.8 2.4-2.6v2.3l-4 4.1.8.8 3.2-3.2v4l-1.4 1.8-.9 3.2 2.2-2.7.6-2.2z"/></svg>