<svg xmlns="http://www.w3.org/2000/svg" width="1474.7" height="283.5" viewBox="0 0 1474.7 283.5"><path fill="#B51A82" d="M730.2 41.7C702.3 13.9 669.1 0 630.3 0 591.4 0 558 13.9 530.2 41.7c-27.7 27.7-41.5 61-41.5 100.1 0 38.9 13.8 72.2 41.5 99.9 27.8 27.8 61.2 41.7 100.1 41.7 38.7 0 72-13.9 99.9-41.7 27.8-27.8 41.8-61.1 41.8-99.9-.1-38.9-14-72.2-41.8-100.1zM630 258.5c-64.4 0-116.7-52.4-116.7-116.7C513.2 77.4 565.6 25 630 25s116.7 52.4 116.7 116.7c0 64.4-52.3 116.8-116.7 116.8z"/><g fill="#009590"><path d="M844.6 212.6c0 4.1-1.5 7.6-4.4 10.5-2.9 2.9-6.4 4.4-10.5 4.4s-7.6-1.5-10.5-4.4c-2.9-2.9-4.4-6.4-4.4-10.5s1.5-7.6 4.4-10.5c3-3 6.5-4.4 10.5-4.4 4.1 0 7.6 1.5 10.5 4.4 2.9 3 4.4 6.5 4.4 10.5zm-4.1 0c0-3-1.1-5.6-3.2-7.7-2.2-2.2-4.7-3.2-7.7-3.2s-5.6 1.1-7.7 3.2c-2.2 2.2-3.2 4.7-3.2 7.7s1.1 5.6 3.2 7.7 4.7 3.2 7.7 3.2 5.6-1.1 7.7-3.2 3.2-4.7 3.2-7.7zM874.6 214.5c0 3.6-1.3 6.7-3.9 9.2-2.6 2.6-5.7 3.8-9.3 3.8-3.7 0-6.7-1.3-9.1-4v9.3c0 .5-.2 1-.6 1.4-.4.4-.9.6-1.4.6-.5 0-1-.2-1.4-.6-.4-.4-.6-.9-.6-1.4v-29.5c0-.5.2-1 .6-1.4.4-.4.9-.6 1.4-.6.5 0 1 .2 1.4.6.4.4.6.9.6 1.4v2.1c2.4-2.7 5.5-4.1 9.1-4.1 3.6 0 6.7 1.3 9.3 3.9 2.6 2.6 3.9 5.7 3.9 9.3zm-4 0c0-2.5-.9-4.7-2.7-6.4-1.8-1.8-3.9-2.7-6.4-2.7-2.5 0-4.7.9-6.5 2.7-1.8 1.8-2.7 3.9-2.7 6.4 0 2.5.9 4.6 2.7 6.4 1.8 1.8 4 2.7 6.5 2.7s4.6-.9 6.4-2.7c1.8-1.8 2.7-3.9 2.7-6.4zM892.3 225.6c0 .5-.2 1-.6 1.4-.4.4-.9.6-1.4.6h-8c-.5 0-1-.2-1.4-.6-.4-.4-.6-.8-.6-1.4v-20.2H877c-.3 0-.5-.1-.8-.2-.2-.1-.5-.3-.6-.4-.2-.2-.3-.4-.4-.6-.1-.2-.2-.5-.2-.8 0-.5.2-1 .6-1.4.4-.4.9-.6 1.4-.6h3.3v-1.6c0-.3.1-.5.2-.7.1-.2.3-.5.4-.6.2-.2.4-.3.6-.4.2-.1.5-.2.7-.2.5 0 1 .2 1.4.6.4.4.6.9.6 1.4v1.6h3.3c.5 0 1 .2 1.4.6.4.4.6.9.6 1.4 0 .5-.2 1-.6 1.4-.4.4-.9.6-1.4.6h-3.3v18.2h6c.5 0 1 .2 1.4.6.5.3.7.8.7 1.3zM898.6 225.6c0 .3-.1.5-.2.8-.1.2-.3.5-.4.6-.2.2-.4.3-.6.4-.2.1-.5.1-.8.1-.5 0-1-.2-1.4-.6-.4-.4-.6-.8-.6-1.4v-22.3c0-.5.2-1 .6-1.4.4-.4.9-.6 1.4-.6s1 .2 1.4.6c.4.4.6.9.6 1.4v22.4zM938.7 225.6c0 .5-.2 1-.6 1.4-.4.4-.9.6-1.4.6-.3 0-.5 0-.8-.1-.2-.1-.5-.2-.6-.4-.2-.2-.3-.4-.4-.6-.1-.2-.2-.5-.2-.8v-14.4c0-1.6-.6-3-1.7-4.1-1.2-1.2-2.5-1.7-4.1-1.7-1.6 0-3 .6-4.1 1.7-1.2 1.2-1.7 2.5-1.7 4.1v14.4c0 .3-.1.5-.2.8-.1.2-.3.5-.4.6-.2.2-.4.3-.6.4-.2.1-.5.1-.8.1-.3 0-.5 0-.8-.1-.2-.1-.5-.2-.6-.4-.2-.2-.3-.4-.4-.6-.1-.2-.2-.5-.2-.8v-14.4c0-1.6-.6-3-1.7-4.1-1.1-1.2-2.5-1.7-4.1-1.7-1.6 0-2.9.6-4.1 1.7-1.1 1.2-1.7 2.5-1.7 4.1v14.4c0 .3-.1.5-.2.8-.1.2-.3.5-.4.6-.2.2-.4.3-.6.4-.2.1-.5.1-.8.1-.5 0-1-.2-1.4-.6-.4-.4-.6-.8-.6-1.4v-22.3c0-.5.2-1 .6-1.4.4-.4.9-.6 1.4-.6.6 0 1.1.2 1.5.6.4.4.6.9.6 1.5 1.7-1.4 3.6-2.2 5.8-2.2 1.6 0 3.2.4 4.6 1.3 1.4.8 2.5 2 3.3 3.4.8-1.4 1.9-2.6 3.3-3.4 1.4-.8 2.9-1.3 4.6-1.3 2.7 0 5 1 6.9 2.9 1.9 1.9 2.9 4.3 2.9 6.9v14.6zM947.4 225.6c0 .3-.1.5-.2.8-.1.2-.3.5-.4.6-.2.2-.4.3-.6.4s-.5.1-.8.1c-.5 0-1-.2-1.4-.6-.4-.4-.6-.8-.6-1.4v-22.3c0-.5.2-1 .6-1.4.4-.4.9-.6 1.4-.6.5 0 1 .2 1.4.6.4.4.6.9.6 1.4v22.4zM966.1 220c0 2.1-.7 3.8-2.2 5.3-1.5 1.5-3.3 2.2-5.3 2.2-1.4 0-2.6-.3-3.8-.9-1.3-.7-2.2-1.7-2.7-2.8-.2-.4-.3-.7-.3-1 0-.3 0-.5.2-.8.1-.2.2-.5.4-.6.2-.2.4-.3.6-.4.2-.1.5-.1.8-.1.6 0 1.3.5 2.1 1.4.9.9 1.8 1.4 2.7 1.4.9 0 1.7-.4 2.5-1.1.7-.7 1.1-1.5 1.1-2.5 0-.9-.4-1.7-1.1-2.5-.7-.7-1.5-1.1-2.5-1.1-2.1 0-3.8-.7-5.3-2.2-1.5-1.5-2.2-3.3-2.2-5.3s.7-3.8 2.2-5.3c1.5-1.5 3.2-2.2 5.3-2.2 1.3 0 2.6.3 3.8 1 1.2.7 2.1 1.7 2.7 2.8.2.3.3.7.3 1 0 .5-.2 1-.6 1.4s-.9.6-1.4.6c-.5 0-1.2-.5-2.1-1.4-.8-.9-1.8-1.4-2.7-1.4-1 0-1.8.4-2.5 1.1-.7.7-1 1.5-1 2.5s.4 1.8 1 2.5 1.5 1 2.5 1c2.1 0 3.8.7 5.3 2.2 1.4 1.4 2.2 3.1 2.2 5.2zM973.7 225.6c0 .3-.1.5-.2.8-.1.2-.3.5-.4.6-.2.2-.4.3-.6.4-.2.1-.5.1-.8.1-.5 0-1-.2-1.4-.6-.4-.4-.6-.8-.6-1.4v-22.3c0-.5.2-1 .6-1.4.4-.4.9-.6 1.4-.6.5 0 1 .2 1.4.6.4.4.6.9.6 1.4v22.4zM1004.7 225.6c0 .3-.1.5-.2.8-.1.2-.3.5-.4.6-.2.2-.4.3-.6.4-.2.1-.5.1-.8.1-.5 0-1-.2-1.4-.6-.4-.4-.6-.8-.6-1.4v-11.1c0-2.5-.9-4.7-2.7-6.4-1.8-1.8-3.9-2.7-6.4-2.7-2.5 0-4.7.9-6.5 2.7-1.8 1.8-2.7 3.9-2.7 6.4v11.1c0 .3-.1.5-.2.8-.1.2-.3.5-.4.6-.2.2-.4.3-.6.4-.2.1-.5.1-.8.1-.5 0-1-.2-1.4-.6-.4-.4-.6-.8-.6-1.4v-22.3c0-.5.2-1 .6-1.4.4-.4.9-.6 1.4-.6.5 0 1 .2 1.4.6.4.4.6.9.6 1.4v2.1c2.4-2.7 5.6-4.1 9.4-4.1 3.5 0 6.5 1.3 9 3.9 2.5 2.6 3.8 5.7 3.8 9.2v11.4zM1034.2 232.9c0 .3-.1.5-.2.7-.1.2-.3.5-.4.6-.2.2-.4.3-.6.4-.2.1-.5.2-.8.2h-15c-.5 0-1-.2-1.4-.6-.4-.4-.6-.9-.6-1.4 0-.3.1-.5.2-.8.1-.2.3-.5.4-.6.2-.2.4-.3.6-.4.2-.1.5-.2.8-.2h13v-7.3c-2.4 2.7-5.5 4-9.1 4-3.6 0-6.7-1.3-9.3-3.8-2.6-2.6-3.8-5.6-3.8-9.2s1.3-6.7 3.8-9.3c2.6-2.6 5.7-3.9 9.3-3.9 3.6 0 6.7 1.4 9.1 4.1v-2.1c0-.5.2-1 .6-1.4.4-.4.9-.6 1.4-.6.3 0 .5.1.8.2.2.1.5.3.6.4.2.2.3.4.4.6.1.2.2.5.2.7v29.7zm-4-18.4c0-2.5-.9-4.7-2.7-6.4-1.8-1.8-3.9-2.7-6.4-2.7-2.5 0-4.7.9-6.5 2.7-1.8 1.8-2.7 3.9-2.7 6.4 0 2.5.9 4.6 2.7 6.4 1.8 1.8 4 2.7 6.5 2.7s4.7-.9 6.4-2.7c1.8-1.8 2.7-3.9 2.7-6.4zM1059 225.6c0 .3-.1.5-.2.8-.1.2-.3.5-.4.6-.2.2-.4.3-.6.4s-.5.1-.8.1c-.5 0-1-.2-1.4-.6-.4-.4-.6-.8-.6-1.4v-25.9c0-.3.1-.5.2-.7.1-.2.3-.5.4-.6s.4-.3.6-.4c.2-.1.5-.2.7-.2.5 0 1 .2 1.4.6.4.4.6.9.6 1.4v25.9zM1089.8 225.6c0 .3-.1.5-.2.8-.1.2-.3.5-.4.6-.2.2-.4.3-.6.4-.2.1-.5.1-.8.1-.5 0-1-.2-1.4-.6-.4-.4-.6-.8-.6-1.4v-2.1c-2.4 2.7-5.6 4-9.4 4-3.5 0-6.6-1.3-9-3.9-2.5-2.6-3.8-5.7-3.8-9.2v-11.1c0-.5.2-1 .6-1.4.4-.4.9-.6 1.4-.6.5 0 1 .2 1.4.6.4.4.6.9.6 1.4v11.1c0 2.5.9 4.6 2.7 6.4 1.8 1.8 4 2.7 6.5 2.7s4.6-.9 6.4-2.7c1.8-1.8 2.7-3.9 2.7-6.4v-11.1c0-.5.2-1 .6-1.4.4-.4.9-.6 1.4-.6.5 0 1 .2 1.4.6.4.4.6.9.6 1.4v22.4zM1129.9 225.6c0 .5-.2 1-.6 1.4-.4.4-.9.6-1.4.6-.3 0-.5 0-.8-.1-.2-.1-.5-.2-.6-.4-.2-.2-.3-.4-.4-.6-.1-.2-.2-.5-.2-.8v-14.4c0-1.6-.6-3-1.7-4.1-1.2-1.2-2.5-1.7-4.1-1.7-1.6 0-3 .6-4.1 1.7-1.2 1.2-1.7 2.5-1.7 4.1v14.4c0 .3-.1.5-.2.8-.1.2-.3.5-.4.6-.2.2-.4.3-.6.4-.2.1-.5.1-.8.1s-.5 0-.8-.1-.5-.2-.6-.4c-.2-.2-.3-.4-.4-.6-.1-.2-.2-.5-.2-.8v-14.4c0-1.6-.6-3-1.7-4.1-1.1-1.2-2.5-1.7-4.1-1.7-1.6 0-2.9.6-4.1 1.7-1.1 1.2-1.7 2.5-1.7 4.1v14.4c0 .3-.1.5-.2.8-.1.2-.3.5-.4.6-.2.2-.4.3-.6.4s-.5.1-.8.1c-.5 0-1-.2-1.4-.6-.4-.4-.6-.8-.6-1.4v-22.3c0-.5.2-1 .6-1.4.4-.4.9-.6 1.4-.6.6 0 1.1.2 1.5.6.4.4.6.9.6 1.5 1.7-1.4 3.6-2.2 5.8-2.2 1.6 0 3.2.4 4.6 1.3 1.4.8 2.5 2 3.3 3.4.8-1.4 1.9-2.6 3.3-3.4 1.4-.8 2.9-1.3 4.6-1.3 2.7 0 5 1 6.9 2.9s2.9 4.3 2.9 6.9v14.6zM1160.9 214.5c0 3.6-1.3 6.7-3.9 9.2-2.6 2.6-5.7 3.8-9.3 3.8-3.7 0-6.7-1.3-9.1-4v2.1c0 .3-.1.5-.2.8-.1.2-.3.5-.4.6-.2.2-.4.3-.6.4s-.5.1-.8.1c-.5 0-1-.2-1.4-.6-.4-.4-.6-.8-.6-1.4v-25.9c0-.3.1-.5.2-.7.1-.2.3-.5.4-.6.2-.2.4-.3.6-.4.2-.1.5-.2.7-.2.5 0 1 .2 1.4.6.4.4.6.9.6 1.4v5.7c2.4-2.7 5.5-4.1 9.1-4.1 3.6 0 6.7 1.3 9.3 3.9 2.7 2.6 4 5.7 4 9.3zm-4.1 0c0-2.5-.9-4.7-2.7-6.4-1.8-1.8-3.9-2.7-6.4-2.7-2.5 0-4.7.9-6.5 2.7-1.8 1.8-2.7 3.9-2.7 6.4 0 2.5.9 4.6 2.7 6.4 1.8 1.8 4 2.7 6.5 2.7s4.6-.9 6.4-2.7c1.8-1.8 2.7-3.9 2.7-6.4zM1189.4 225.6c0 .3-.1.5-.2.8-.1.2-.3.5-.4.6-.2.2-.4.3-.6.4-.2.1-.5.1-.8.1-.3 0-.5 0-.8-.1-.2-.1-.5-.2-.6-.4-.2-.2-.3-.4-.4-.6-.1-.2-.2-.5-.2-.8v-2.1c-2.4 2.7-5.5 4-9.1 4-3.6 0-6.7-1.3-9.3-3.8-2.6-2.6-3.8-5.6-3.8-9.2s1.3-6.7 3.8-9.3c2.6-2.6 5.7-3.9 9.3-3.9 3.6 0 6.7 1.4 9.1 4.1v-2.1c0-.5.2-1 .6-1.4.4-.4.9-.6 1.4-.6.3 0 .5.1.8.2.2.1.5.3.6.4.2.2.3.4.4.6.1.2.2.5.2.7v22.4zm-4-11.1c0-2.5-.9-4.7-2.7-6.4-1.8-1.8-3.9-2.7-6.4-2.7-2.5 0-4.7.9-6.5 2.7-1.8 1.8-2.7 3.9-2.7 6.4 0 2.5.9 4.6 2.7 6.4 1.8 1.8 4 2.7 6.5 2.7s4.7-.9 6.4-2.7c1.8-1.8 2.7-3.9 2.7-6.4zM1209.3 203.3c0 .5-.2 1-.6 1.4-.4.4-.9.6-1.4.6-2.5 0-4.7.9-6.5 2.7-1.8 1.8-2.7 3.9-2.7 6.4v11.1c0 .3-.1.5-.2.8-.1.2-.3.5-.4.6-.2.2-.4.3-.6.4-.2.1-.5.1-.8.1-.5 0-1-.2-1.4-.6-.4-.4-.6-.8-.6-1.4v-22.3c0-.5.2-1 .6-1.4.4-.4.9-.6 1.4-.6s1 .2 1.4.6c.4.4.6.9.6 1.4v2.1c2.4-2.7 5.4-4.1 9.1-4.1.5 0 1 .2 1.4.6.5.7.7 1.1.7 1.6zM1255.5 214.5c0 3.6-1.3 6.7-3.9 9.2-2.6 2.6-5.7 3.8-9.3 3.8-3.7 0-6.7-1.3-9.1-4v9.3c0 .5-.2 1-.6 1.4-.4.4-.9.6-1.4.6-.5 0-1-.2-1.4-.6-.4-.4-.6-.9-.6-1.4v-29.5c0-.5.2-1 .6-1.4.4-.4.9-.6 1.4-.6.5 0 1 .2 1.4.6.4.4.6.9.6 1.4v2.1c2.4-2.7 5.5-4.1 9.1-4.1 3.6 0 6.7 1.3 9.3 3.9 2.6 2.6 3.9 5.7 3.9 9.3zm-4.1 0c0-2.5-.9-4.7-2.7-6.4-1.8-1.8-3.9-2.7-6.4-2.7-2.5 0-4.7.9-6.5 2.7-1.8 1.8-2.7 3.9-2.7 6.4 0 2.5.9 4.6 2.7 6.4 1.8 1.8 4 2.7 6.5 2.7s4.6-.9 6.4-2.7c1.8-1.8 2.7-3.9 2.7-6.4zM1284.9 225.6c0 .3-.1.5-.2.8-.1.2-.3.5-.4.6-.2.2-.4.3-.6.4-.2.1-.5.1-.8.1-.5 0-1-.2-1.4-.6-.4-.4-.6-.8-.6-1.4v-2.1c-2.4 2.7-5.6 4-9.4 4-3.5 0-6.6-1.3-9-3.9-2.5-2.6-3.8-5.7-3.8-9.2v-11.1c0-.5.2-1 .6-1.4.4-.4.9-.6 1.4-.6s1 .2 1.4.6c.4.4.6.9.6 1.4v11.1c0 2.5.9 4.6 2.7 6.4 1.8 1.8 4 2.7 6.5 2.7s4.6-.9 6.4-2.7c1.8-1.8 2.7-3.9 2.7-6.4v-11.1c0-.5.2-1 .6-1.4.4-.4.9-.6 1.4-.6.5 0 1 .2 1.4.6.4.4.6.9.6 1.4v22.4zM1315.9 225.6c0 .3-.1.5-.2.8-.1.2-.3.5-.4.6-.2.2-.4.3-.6.4-.2.1-.5.1-.8.1-.5 0-1-.2-1.4-.6-.4-.4-.6-.8-.6-1.4v-11.1c0-2.5-.9-4.7-2.7-6.4-1.8-1.8-3.9-2.7-6.4-2.7-2.5 0-4.7.9-6.5 2.7-1.8 1.8-2.7 3.9-2.7 6.4v11.1c0 .3-.1.5-.2.8-.1.2-.3.5-.4.6-.2.2-.4.3-.6.4-.2.1-.5.1-.8.1-.5 0-1-.2-1.4-.6-.4-.4-.6-.8-.6-1.4v-22.3c0-.5.2-1 .6-1.4.4-.4.9-.6 1.4-.6s1 .2 1.4.6c.4.4.6.9.6 1.4v2.1c2.4-2.7 5.6-4.1 9.4-4.1 3.5 0 6.5 1.3 9 3.9 2.5 2.6 3.8 5.7 3.8 9.2v11.4zM1342.2 206.6c0 .5-.2 1-.6 1.4-.4.4-.9.6-1.4.6-.2 0-.5 0-.7-.1-.2-.1-.4-.2-.6-.4-.2-.1-.4-.3-.6-.5-.2-.2-.4-.3-.6-.5-1.4-1.2-3.2-1.8-5.4-1.8-2.5 0-4.7.9-6.5 2.7-1.8 1.8-2.7 3.9-2.7 6.4 0 2.5.9 4.6 2.7 6.4 1.8 1.8 4 2.7 6.5 2.7 2.2 0 4-.6 5.4-1.8.2-.2.4-.3.5-.5.2-.2.4-.3.5-.5.5-.3.9-.5 1.4-.5.3 0 .5.1.8.2.2.1.5.3.6.4.2.2.3.4.4.7.1.2.2.5.2.8 0 .8-.7 1.7-2 2.6-2.5 1.7-5.2 2.6-7.8 2.6-3.6 0-6.7-1.3-9.3-3.8-2.6-2.6-3.8-5.6-3.8-9.2s1.3-6.7 3.8-9.3c2.6-2.6 5.7-3.9 9.3-3.9 2.7 0 5.3.9 7.8 2.6 1.4 1 2.1 1.9 2.1 2.7zM1361.5 225.6c0 .5-.2 1-.6 1.4-.4.4-.9.6-1.4.6h-8c-.5 0-1-.2-1.4-.6-.4-.4-.6-.8-.6-1.4v-20.2h-3.3c-.3 0-.5-.1-.8-.2-.2-.1-.5-.3-.6-.4-.2-.2-.3-.4-.4-.6-.1-.2-.2-.5-.2-.8 0-.5.2-1 .6-1.4.4-.4.9-.6 1.4-.6h3.3v-1.6c0-.3.1-.5.2-.7.1-.2.3-.5.4-.6.2-.2.4-.3.6-.4.2-.1.5-.2.7-.2.5 0 1 .2 1.4.6.4.4.6.9.6 1.4v1.6h3.3c.5 0 1 .2 1.4.6.4.4.6.9.6 1.4 0 .5-.2 1-.6 1.4-.4.4-.9.6-1.4.6h-3.3v18.2h6c.5 0 1 .2 1.4.6.5.3.7.8.7 1.3zM1388.8 225.6c0 .3-.1.5-.2.8-.1.2-.3.5-.4.6-.2.2-.4.3-.6.4-.2.1-.5.1-.8.1-.5 0-1-.2-1.4-.6-.4-.4-.6-.8-.6-1.4v-2.1c-2.4 2.7-5.6 4-9.4 4-3.5 0-6.6-1.3-9-3.9-2.5-2.6-3.8-5.7-3.8-9.2v-11.1c0-.5.2-1 .6-1.4.4-.4.9-.6 1.4-.6s1 .2 1.4.6c.4.4.6.9.6 1.4v11.1c0 2.5.9 4.6 2.7 6.4 1.8 1.8 4 2.7 6.5 2.7s4.6-.9 6.4-2.7c1.8-1.8 2.7-3.9 2.7-6.4v-11.1c0-.5.2-1 .6-1.4.4-.4.9-.6 1.4-.6.5 0 1 .2 1.4.6.4.4.6.9.6 1.4v22.4zM1408.7 203.3c0 .5-.2 1-.6 1.4-.4.4-.9.6-1.4.6-2.5 0-4.7.9-6.5 2.7-1.8 1.8-2.7 3.9-2.7 6.4v11.1c0 .3-.1.5-.2.8-.1.2-.3.5-.4.6-.2.2-.4.3-.6.4s-.5.1-.8.1c-.5 0-1-.2-1.4-.6-.4-.4-.6-.8-.6-1.4v-22.3c0-.5.2-1 .6-1.4.4-.4.9-.6 1.4-.6.5 0 1 .2 1.4.6.4.4.6.9.6 1.4v2.1c2.4-2.7 5.4-4.1 9.1-4.1.5 0 1 .2 1.4.6.5.7.7 1.1.7 1.6zM1432.1 206.6c0 .6-.2 1-.6 1.4l-14.2 14.2c1.5.9 3.1 1.4 4.9 1.4 2.2 0 4-.6 5.4-1.8.2-.2.4-.3.6-.5.2-.2.4-.3.6-.5.4-.3.8-.5 1.3-.5.3 0 .5.1.8.2.2.1.5.3.6.4.2.2.3.4.4.7.1.2.2.5.2.8 0 .8-.7 1.7-2 2.6-2.5 1.7-5.2 2.6-7.8 2.6-3.6 0-6.7-1.3-9.3-3.8-2.6-2.6-3.8-5.6-3.8-9.2s1.3-6.7 3.8-9.3c2.6-2.6 5.7-3.9 9.3-3.9 2.6 0 5.2.9 7.8 2.6 1.3.9 2 1.7 2 2.6zm-4.8.3c-1.4-1-3.1-1.6-5.1-1.6-2.5 0-4.7.9-6.5 2.7-1.8 1.8-2.7 3.9-2.7 6.4 0 2 .5 3.6 1.6 5.1l12.7-12.6zM1449.9 220c0 2.1-.7 3.8-2.2 5.3-1.5 1.5-3.3 2.2-5.3 2.2-1.4 0-2.6-.3-3.8-.9-1.3-.7-2.2-1.7-2.7-2.8-.2-.4-.3-.7-.3-1 0-.3 0-.5.2-.8.1-.2.2-.5.4-.6.2-.2.4-.3.6-.4.2-.1.5-.1.8-.1.6 0 1.3.5 2.1 1.4.9.9 1.8 1.4 2.7 1.4.9 0 1.7-.4 2.5-1.1.7-.7 1.1-1.5 1.1-2.5 0-.9-.4-1.7-1.1-2.5-.7-.7-1.5-1.1-2.5-1.1-2.1 0-3.8-.7-5.3-2.2-1.5-1.5-2.2-3.3-2.2-5.3s.7-3.8 2.2-5.3c1.5-1.5 3.2-2.2 5.3-2.2 1.3 0 2.6.3 3.8 1 1.2.7 2.1 1.7 2.7 2.8.2.3.3.7.3 1 0 .5-.2 1-.6 1.4s-.9.6-1.4.6c-.5 0-1.2-.5-2.1-1.4-.8-.9-1.8-1.4-2.7-1.4-1 0-1.8.4-2.5 1.1-.7.7-1 1.5-1 2.5s.4 1.8 1 2.5 1.5 1 2.5 1c2.1 0 3.8.7 5.3 2.2 1.5 1.4 2.2 3.1 2.2 5.2zM819.6 278.1c0 .3-.1.5-.2.8-.1.2-.3.5-.4.6-.2.2-.4.3-.6.4-.2.1-.5.1-.8.1-.5 0-1-.2-1.4-.6-.4-.4-.6-.8-.6-1.4v-22.3c0-.5.2-1 .6-1.4.4-.4.9-.6 1.4-.6.5 0 1 .2 1.4.6.4.4.6.9.6 1.4v22.4zM850.6 278.1c0 .3-.1.5-.2.8-.1.2-.3.5-.4.6-.2.2-.4.3-.6.4-.2.1-.5.1-.8.1-.5 0-1-.2-1.4-.6-.4-.4-.6-.8-.6-1.4v-11c0-2.5-.9-4.7-2.7-6.4-1.8-1.8-3.9-2.7-6.4-2.7-2.5 0-4.7.9-6.5 2.7-1.8 1.8-2.7 3.9-2.7 6.4v11.1c0 .3-.1.5-.2.8-.1.2-.3.5-.4.6-.2.2-.4.3-.6.4-.2.1-.5.1-.8.1-.5 0-1-.2-1.4-.6-.4-.4-.6-.8-.6-1.4v-22.3c0-.5.2-1 .6-1.4.4-.4.9-.6 1.4-.6.5 0 1 .2 1.4.6.4.4.6.9.6 1.4v2.1c2.4-2.7 5.6-4.1 9.4-4.1 3.5 0 6.5 1.3 9 3.9 2.5 2.6 3.8 5.7 3.8 9.2v11.3zM897.6 278.1c0 .3-.1.5-.2.8-.1.2-.3.5-.4.6-.2.2-.4.3-.6.4-.2.1-.5.1-.8.1-.5 0-1-.2-1.4-.6-.4-.4-.6-.8-.6-1.4v-11c0-2.5-.9-4.7-2.7-6.4-1.8-1.8-3.9-2.7-6.4-2.7-2.5 0-4.7.9-6.5 2.7-1.8 1.8-2.7 3.9-2.7 6.4v11.1c0 .3-.1.5-.2.8-.1.2-.3.5-.4.6-.2.2-.4.3-.6.4-.2.1-.5.1-.8.1-.5 0-1-.2-1.4-.6-.4-.4-.6-.8-.6-1.4v-22.3c0-.5.2-1 .6-1.4.4-.4.9-.6 1.4-.6s1 .2 1.4.6c.4.4.6.9.6 1.4v2.1c2.4-2.7 5.6-4.1 9.4-4.1 3.5 0 6.5 1.3 9 3.9 2.5 2.6 3.8 5.7 3.8 9.2v11.3zM923.8 259.1c0 .6-.2 1-.6 1.4L909 274.7c1.5.9 3.1 1.4 4.9 1.4 2.2 0 4-.6 5.4-1.8.2-.2.4-.3.6-.5.2-.2.4-.3.6-.5.4-.3.8-.5 1.3-.5.3 0 .5.1.8.2s.5.3.6.4c.2.2.3.4.4.7.1.2.2.5.2.8 0 .8-.7 1.7-2 2.6-2.5 1.7-5.2 2.6-7.8 2.6-3.6 0-6.7-1.3-9.3-3.8-2.6-2.6-3.8-5.6-3.8-9.2s1.3-6.7 3.8-9.3c2.6-2.6 5.7-3.9 9.3-3.9 2.6 0 5.2.9 7.8 2.6 1.4.9 2 1.8 2 2.6zm-4.7.3c-1.4-1-3.1-1.6-5.1-1.6-2.5 0-4.7.9-6.5 2.7-1.8 1.8-2.7 3.9-2.7 6.4 0 2 .5 3.6 1.6 5.1l12.7-12.6zM960.7 255.9c0 .3-.1.5-.2.8l-9.7 21.9c0 .1 0 .1-.1.2s-.1.2-.1.3c-.3.7-.9 1-1.8 1s-1.5-.3-1.8-1c0-.1 0-.1-.1-.2s-.1-.2-.1-.3l-3.5-7.8-3.5 7.8c0 .1 0 .1-.1.2s-.1.2-.1.3c-.3.7-.9 1-1.8 1s-1.5-.3-1.8-1c0-.1 0-.1-.1-.2s-.1-.2-.1-.3l-9.7-21.9c-.1-.3-.2-.5-.2-.8 0-.5.2-1 .6-1.4.4-.4.9-.6 1.4-.6.8 0 1.4.4 1.8 1.2l8.1 18 3.3-7.3-4-9.1c-.1-.3-.2-.5-.2-.8 0-.5.2-1 .6-1.4.4-.4.9-.6 1.4-.6.8 0 1.4.4 1.8 1.2l2.6 5.8 2.6-5.8c.4-.8 1-1.2 1.8-1.2.5 0 1 .2 1.4.6.4.4.6.9.6 1.4 0 .3-.1.5-.2.8l-4 9.1 3.3 7.3 8.1-18c.4-.8 1-1.2 1.8-1.2.5 0 1 .2 1.4.6.4.4.6.9.6 1.4zM989.4 267c0 3.6-1.3 6.7-3.9 9.2-2.6 2.6-5.7 3.8-9.3 3.8-3.7 0-6.7-1.3-9.1-4v2.1c0 .3-.1.5-.2.8-.1.2-.3.5-.4.6-.2.2-.4.3-.6.4-.2.1-.5.1-.8.1-.5 0-1-.2-1.4-.6-.4-.4-.6-.8-.6-1.4v-25.9c0-.3.1-.5.2-.7.1-.2.3-.5.4-.6.2-.2.4-.3.6-.4.2-.1.5-.2.7-.2.5 0 1 .2 1.4.6.4.4.6.9.6 1.4v5.7c2.4-2.7 5.5-4.1 9.1-4.1 3.6 0 6.7 1.3 9.3 3.9 2.8 2.6 4 5.7 4 9.3zm-4 0c0-2.5-.9-4.7-2.7-6.4-1.8-1.8-3.9-2.7-6.4-2.7-2.5 0-4.7.9-6.5 2.7-1.8 1.8-2.7 3.9-2.7 6.4 0 2.5.9 4.6 2.7 6.4 1.8 1.8 4 2.7 6.5 2.7s4.6-.9 6.4-2.7c1.8-1.7 2.7-3.9 2.7-6.4zM1018 267c0 3.6-1.3 6.7-3.9 9.2-2.6 2.6-5.6 3.8-9.3 3.8s-6.7-1.3-9.3-3.8c-2.6-2.6-3.8-5.6-3.8-9.2s1.3-6.7 3.8-9.3c2.6-2.6 5.7-3.9 9.3-3.9s6.7 1.3 9.3 3.9c2.6 2.6 3.9 5.7 3.9 9.3zm-4 0c0-2.5-.9-4.7-2.7-6.4-1.8-1.8-3.9-2.7-6.4-2.7s-4.7.9-6.5 2.7c-1.8 1.8-2.7 3.9-2.7 6.4 0 2.5.9 4.6 2.7 6.4 1.8 1.8 4 2.7 6.5 2.7s4.7-.9 6.4-2.7c1.8-1.7 2.7-3.9 2.7-6.4zM1036.7 255.9c0 .5-.2 1-.6 1.4-.4.4-.9.6-1.4.6-2.5 0-4.7.9-6.5 2.7-1.8 1.8-2.7 3.9-2.7 6.4v11.1c0 .3-.1.5-.2.8-.1.2-.3.5-.4.6-.2.2-.4.3-.6.4s-.5.1-.8.1c-.5 0-1-.2-1.4-.6-.4-.4-.6-.8-.6-1.4v-22.3c0-.5.2-1 .6-1.4.4-.4.9-.6 1.4-.6.5 0 1 .2 1.4.6.4.4.6.9.6 1.4v2.1c2.4-2.7 5.4-4.1 9.1-4.1.5 0 1 .2 1.4.6.5.6.7 1.1.7 1.6zM1065.7 278.1c0 .3-.1.5-.2.8-.1.2-.3.5-.4.6-.2.2-.4.3-.6.4-.2.1-.5.1-.8.1-.5 0-1-.2-1.4-.6-.4-.4-.6-.8-.6-1.4v-11c0-2.5-.9-4.7-2.7-6.4-1.8-1.8-3.9-2.7-6.4-2.7-2.5 0-4.7.9-6.5 2.7-1.8 1.8-2.7 3.9-2.7 6.4v11.1c0 .3-.1.5-.2.8-.1.2-.3.5-.4.6-.2.2-.4.3-.6.4s-.5.1-.8.1c-.5 0-1-.2-1.4-.6-.4-.4-.6-.8-.6-1.4v-22.3c0-.5.2-1 .6-1.4.4-.4.9-.6 1.4-.6.5 0 1 .2 1.4.6.4.4.6.9.6 1.4v2.1c2.4-2.7 5.6-4.1 9.4-4.1 3.5 0 6.5 1.3 9 3.9 2.5 2.6 3.8 5.7 3.8 9.2v11.3zM1083.9 272.5c0 2.1-.7 3.8-2.2 5.3-1.5 1.5-3.3 2.2-5.3 2.2-1.4 0-2.6-.3-3.8-.9-1.3-.7-2.2-1.7-2.7-2.8-.2-.4-.3-.7-.3-1 0-.3 0-.5.2-.8.1-.2.2-.5.4-.6.2-.2.4-.3.6-.4s.5-.1.8-.1c.6 0 1.3.5 2.1 1.4.9.9 1.8 1.4 2.7 1.4.9 0 1.7-.4 2.5-1.1.7-.7 1.1-1.5 1.1-2.5 0-.9-.4-1.7-1.1-2.5-.7-.7-1.5-1.1-2.5-1.1-2.1 0-3.8-.7-5.3-2.2-1.5-1.5-2.2-3.3-2.2-5.3s.7-3.8 2.2-5.3c1.5-1.5 3.2-2.2 5.3-2.2 1.3 0 2.6.3 3.8 1 1.2.7 2.1 1.7 2.7 2.8.2.3.3.7.3 1 0 .5-.2 1-.6 1.4s-.9.6-1.4.6c-.5 0-1.2-.5-2.1-1.4-.8-.9-1.8-1.4-2.7-1.4-1 0-1.8.4-2.5 1.1-.7.7-1 1.5-1 2.5s.4 1.8 1 2.5 1.5 1 2.5 1c2.1 0 3.8.7 5.3 2.2s2.2 3.2 2.2 5.2z"/></g><path fill="#009590" d="M868.8 108.5c-14.8 0-27.6-5.4-38.2-16-10.6-10.6-16-23.5-16-38.3 0-14.8 5.4-27.6 16-38.2 10.6-10.6 23.5-16 38.2-16 11 0 21.9 3.6 32.4 10.8 5.6 3.9 8.3 7.3 8.3 10.5 0 1-.2 2-.7 3-.4.9-1 1.7-1.7 2.4s-1.5 1.2-2.4 1.7c-2.8 1.3-5.9.7-8.6-1.6-1.5-1.2-2.9-2.4-4.1-3.6-6.2-5.2-14-7.8-23.3-7.8-10.5 0-19.7 3.9-27.4 11.5-7.6 7.6-11.5 16.8-11.5 27.3 0 10.6 3.9 19.8 11.5 27.4 7.7 7.6 16.9 11.5 27.4 11.5 9.2 0 17.1-2.6 23.4-7.8 1.1-1.1 2.5-2.3 4-3.5 2.6-2.2 5.8-2.9 8.6-1.6.9.4 1.7 1 2.4 1.7s1.2 1.5 1.7 2.4c.4 1 .7 2 .7 3 0 3.3-2.7 6.7-8.3 10.5-10.6 7-21.5 10.7-32.4 10.7zM1031.4 108.5h-60.3c-2.1 0-3.9-.8-5.4-2.3-1.5-1.5-2.3-3.3-2.3-5.4V7.6c0-1 .2-2 .7-3 .4-.9 1-1.7 1.6-2.3.7-.7 1.5-1.2 2.4-1.7 1.9-.9 4-.9 6 0 .9.4 1.7 1 2.4 1.7s1.2 1.5 1.7 2.3c.4.9.7 1.9.7 3v85.5h52.6c2.1 0 3.9.8 5.4 2.3 1.5 1.5 2.3 3.3 2.3 5.4s-.8 3.9-2.3 5.4c-1.6 1.5-3.4 2.3-5.5 2.3zM1161 108.5h-60.3c-2.1 0-3.9-.8-5.4-2.3-1.5-1.5-2.3-3.3-2.3-5.4V7.6c0-1 .2-2 .7-3 .4-.9 1-1.7 1.7-2.3.7-.7 1.5-1.2 2.4-1.7 1-.4 2-.7 3-.7h60.3c1 0 2 .2 3 .7.9.4 1.7 1 2.4 1.7s1.2 1.5 1.7 2.3c.4.9.7 1.9.7 3 0 2.1-.8 3.9-2.3 5.4-1.5 1.5-3.3 2.3-5.4 2.3h-52.6v31.3h39.6c2 0 3.8.8 5.3 2.3 1.5 1.5 2.3 3.3 2.3 5.3 0 1-.2 2-.7 3-.4.9-1 1.7-1.7 2.4s-1.5 1.2-2.3 1.7c-.9.4-1.9.7-3 .7h-39.6v31.2h52.6c2.1 0 3.9.8 5.4 2.3 1.5 1.5 2.3 3.3 2.3 5.4 0 2.1-.8 3.9-2.3 5.4-1.6 1.4-3.4 2.2-5.5 2.2zM1313.3 97.9l-37.8-92.3c-1.8-4.6-4.9-5.6-7.3-5.6-2.3 0-5.4 1-7.3 5.6l-37.8 92.3c-.3.9-.5 1.8-.5 2.9 0 2.1.7 3.9 2.2 5.4 1.5 1.5 3.3 2.3 5.4 2.3 3.5 0 6-1.7 7.3-4.8l8.7-21.4h44l8.8 21.4c1.2 3.2 3.7 4.8 7.3 4.8 2.1 0 3.9-.8 5.4-2.3 1.4-1.5 2.2-3.3 2.2-5.4-.1-1.1-.3-2-.6-2.9zm-60.8-31l15.7-38.8 15.7 38.8h-31.4zM1425.3 72.8c6.8-2.4 12.4-6.6 16.9-12.5 5.1-6.7 7.7-14.4 7.7-22.8 0-10.2-3.7-19.1-11-26.4-7.3-7.3-16.2-11-26.4-11h-44.8v100.8c0 2.1.8 3.9 2.3 5.4 3 3 7.8 3 10.8 0 1.5-1.5 2.3-3.3 2.3-5.4V75h22.7l31.2 31.2c1.5 1.5 3.3 2.2 5.3 2.2 1 0 2-.2 3-.7.9-.4 1.7-1 2.3-1.6.7-.7 1.2-1.5 1.7-2.4.4-.9.7-1.9.7-3 0-2.1-.7-3.9-2.2-5.4l-22.5-22.5zm-42.2-13.2V15.3h29.4c6.1 0 11.2 2.1 15.6 6.6 4.4 4.4 6.5 9.5 6.5 15.6s-2.1 11.2-6.5 15.7c-4.4 4.4-9.5 6.5-15.6 6.5h-29.4z"/><path fill="#B51A82" d="M630 111.9c16.5 0 29.8 13.3 29.8 29.8s-13.3 29.8-29.8 29.8-29.8-13.3-29.8-29.8c0-16.4 13.3-29.8 29.8-29.8"/><path fill="#009590" d="M1461.9 129H687.5c.9 4.1 1.4 8.4 1.4 12.8s-.5 8.7-1.4 12.8h774.4c7.1 0 12.8-5.7 12.8-12.8 0-7.1-5.7-12.8-12.8-12.8zM297.8 280c-3.4 0-6.2-1.2-8.8-3.8-2.5-2.5-3.8-5.4-3.8-8.8V15.8c0-1.6.3-3 1-4.4.7-1.5 1.7-2.9 2.9-4 1.2-1.2 2.5-2.1 4.1-2.9 1.5-.7 3-1 4.6-1h183.9c1.6 0 3.1.3 4.6 1 1.6.7 2.9 1.7 4.1 2.9 1.2 1.2 2.1 2.5 2.9 4 .7 1.4 1 2.9 1 4.4 0 3.4-1.2 6.2-3.8 8.8-2.5 2.5-5.4 3.8-8.8 3.8H310.3V255h171c3.4 0 6.2 1.2 8.8 3.8 2.5 2.5 3.8 5.4 3.8 8.8 0 3.4-1.2 6.2-3.8 8.8-2.5 2.5-5.4 3.8-8.8 3.8H297.8z"/><path fill="#B51A82" d="M228.7 280c-3.7 0-7.3-2.1-10.9-6.3L25.1 51v216.5c0 3.4-1.2 6.2-3.8 8.8-2.5 2.5-5.4 3.8-8.8 3.8-3.4 0-6.2-1.2-8.8-3.8-2.5-2.5-3.8-5.4-3.8-8.8V15.8c0-1.6.3-3 1-4.4.7-1.5 1.7-2.9 2.9-4C5 6.2 6.4 5.2 8 4.5c1.5-.7 3-1 4.6-1 4 0 6.9 1.1 8.8 3.4l194.8 225.7V15.8c0-1.6.3-3 1-4.4.7-1.5 1.7-2.9 2.9-4 1.2-1.2 2.5-2.1 4.1-2.8 1.5-.7 3-1 4.6-1 1.6 0 3.1.3 4.6 1 1.6.7 2.9 1.7 4.1 2.8 1.2 1.2 2.1 2.5 2.9 4 .7 1.4 1 2.9 1 4.4v251.7c0 3.4-1.2 6.2-3.8 8.8-2.6 2.5-5.5 3.7-8.9 3.7z"/><path fill="#009590" d="M571 141.7c0-4.4.5-8.6 1.4-12.8H366c-7.1 0-12.8 5.7-12.8 12.8 0 7.1 5.7 12.8 12.8 12.8h206.5c-1-4.1-1.5-8.4-1.5-12.8z"/></svg>