<svg xmlns="http://www.w3.org/2000/svg" width="566.5" height="283.5" viewBox="0 0 566.5 283.5"><path fill="#878787" d="M4.3 180.6c5.9 42.1 81.3 32.6 81.3 32.6s21.9 16.9 51.6 20.7c29.9 3.6 69.9-10.5 69.9-10.5s28 26.8 76.3 26.8 75.6-26.8 75.6-26.8 34.7 13.3 68 10.7c33.5-2.4 53.9-21.1 53.9-21.1s75.3 10.7 81.5-32.6l4.3.5c-6.2 63.7-85.5 48-85.5 48s-20.7 27.3-53.9 30.9c-33.5 3.6-68-15.7-68-15.7s-27.3 39.4-75.6 39.4-76.5-39.5-76.5-39.5-40.2 20.7-69.9 15.2c-29.9-5.5-51.8-30.4-51.8-30.4S6.2 242.8 0 181.1m4.3-78C10.2 61 85.6 70.5 85.6 70.5s21.9-16.9 51.6-20.7S207 60.1 207 60.1s28-26.8 76.3-26.8 75.6 26.8 75.6 26.8 34.7-13.3 68-10.7c33.5 2.4 53.9 21.1 53.9 21.1s75.3-10.7 81.5 32.6l4.3-.5c-6.2-63.7-85.5-48-85.5-48S460.2 27.3 427 23.8c-33.5-3.6-68 15.7-68 15.7S331.5 0 283.2 0 207 39.4 207 39.4s-40.2-20.7-69.9-15.2-51.6 30.4-51.6 30.4-79.4-14-85.5 48"/><path fill="#662483" d="M132.6 125.9c0 9.3-3.3 17.3-10 24s-14.5 10-23.8 10H69.1V186c0 1.4-.5 2.9-1.7 4s-2.4 1.7-4 1.7c-1.4 0-2.9-.5-4-1.7-1.2-1.2-1.7-2.4-1.7-4V92.2h40.9c9.3 0 17.1 3.3 23.8 10 6.9 6.6 10.2 14.5 10.2 23.7zm-11.2 0c0-6.2-2.1-11.4-6.7-15.9-4.5-4.5-9.7-6.7-15.9-6.7H69.1v45.4h29.7c6.2 0 11.4-2.1 15.9-6.7 4.6-4.4 6.7-9.9 6.7-16.1zM222.2 186c0 1.4-.5 2.9-1.7 4s-2.4 1.7-4 1.7h-57c-1.4 0-2.9-.5-4-1.7s-1.7-2.4-1.7-4V97.7c0-.7.2-1.4.5-2.1.2-.7.7-1.2 1.2-1.7s1.2-1 1.9-1.2 1.4-.5 2.1-.5h57.3c.7 0 1.4.2 2.1.5.7.2 1.2.7 1.9 1.2.5.5 1 1.2 1.2 1.7.2.7.5 1.4.5 2.1 0 1.4-.5 2.9-1.7 4-1.2 1.2-2.4 1.7-4 1.7h-51.6v33h39.2c1.4 0 2.9.5 3.8 1.7 1.2 1.2 1.7 2.4 1.7 3.8 0 .7-.2 1.4-.5 2.1-.2.7-.7 1.2-1.2 1.9-.5.5-1.2 1-1.7 1.2-.7.2-1.4.2-2.1.2h-39.2v33h51.6c1.4 0 2.9.5 4 1.7.9 1.2 1.4 2.4 1.4 4zm78.4-30.4l-17.3-43-17.3 43-4.5 11.2-8.6 21.4c-1 2.4-2.9 3.6-5.5 3.6-1.4 0-2.9-.5-3.8-1.7-1-1.2-1.7-2.4-1.7-4 0-.7.2-1.4.5-2.1l35.9-87.4c1.2-2.9 2.9-4.3 5.2-4.3s4.3 1.4 5.2 4.3l35.9 87.4c.2.7.5 1.4.5 2.1 0 1.4-.5 2.9-1.7 4-1.2 1.2-2.4 1.7-3.8 1.7-2.6 0-4.5-1.2-5.2-3.6l-8.8-21.4-5-11.2zM418.7 186c0 .7-.2 1.4-.5 2.1-.2.7-.7 1.2-1.2 1.9-.5.5-1.2 1-1.7 1.2-.7.2-1.4.5-2.1.5-1.4 0-2.9-.5-3.8-1.7l-30.2-30.2h-24V186c0 1.4-.5 2.9-1.7 4-1.2 1.2-2.4 1.7-4 1.7-1.4 0-2.9-.5-4-1.7-1.2-1.2-1.7-2.4-1.7-4V92.2h41.1c9.3 0 17.1 3.3 23.8 10 6.7 6.7 10 14.5 10 23.8 0 7.6-2.4 14.5-6.9 20.7s-10.5 10.2-17.8 12.1l23.3 23.3c.9 1.1 1.4 2.3 1.4 3.9zm-11.2-60.1c0-6.2-2.1-11.4-6.7-15.9-4.5-4.5-9.7-6.7-15.9-6.7h-29.7v45.4h29.7c6.2 0 11.4-2.1 15.9-6.7 4.6-4.4 6.7-9.9 6.7-16.1zm101 60.1c0 1.4-.5 2.9-1.7 4-1.2 1.2-2.4 1.7-4 1.7h-57.3c-1.4 0-2.9-.5-4-1.7-1.2-1.2-1.7-2.4-1.7-4V97.7c0-.7.2-1.4.5-2.1.2-.7.7-1.2 1.2-1.7s1.2-1 1.9-1.2 1.4-.5 2.1-.5 1.4.2 2.1.5c.7.2 1.2.7 1.9 1.2.5.5 1 1.2 1.2 1.7.2.7.5 1.4.5 2.1v82.7h51.6c1.4 0 2.9.5 4 1.7 1 1.1 1.7 2.3 1.7 3.9z"/><radialGradient id="a" cx="111.079" cy="548.902" r="7.149" gradientTransform="translate(19.265 -1136.583) scale(2.3761)" gradientUnits="userSpaceOnUse"><stop offset="0" stop-color="#fff"/><stop offset="1" stop-color="#878787"/></radialGradient><circle fill="url(#a)" cx="283.2" cy="167.8" r="17.1"/></svg>