<svg xmlns="http://www.w3.org/2000/svg" width="794.9" height="283.5" viewBox="0 0 794.9 283.5"><path fill="#5C6DAA" d="M.3 210.7H795v72.7H.3z"/><path fill="#BCC0DC" d="M0 0v196.6h580.6c-2.6-.8-5.1-1.6-7.5-2.6-9.3-3.9-17.4-9.5-24.1-16.7-6.6-7.1-11.7-15.5-15.2-25.1-3.4-9.3-5.2-19.6-5.2-30.5 0-11 1.8-21.3 5.4-30.6 3.7-9.6 8.9-18 15.6-24.9 3.2-3.4 6.8-6.4 10.6-9-2.3 1-4.6 2.1-6.9 3.3-18 9.6-31.3 24.5-38.4 41.1 1.8-21.7 13.3-41.3 32.7-51.7 5.2-2.8 10.6-4.7 16.2-5.8-5.4-.6-10.8-1-16.3-1-72.8 0-132.4 54.5-138.3 123.8H4.2V4.2h785.4v162.4H665.1c-2.4 3.8-5 7.4-8 10.6-6.7 7.2-14.8 12.8-24.1 16.7-2.4 1-4.9 1.9-7.5 2.7h168.3V0H0z"/><path fill="#BCC0DC" d="M605.2 29c25.9 4.8 48 17.1 63.5 33.6-11-23.9-33-42.3-60.9-47.5-27.9-5.2-55 4.1-73.8 22.5 20.2-9.8 45.3-13.4 71.2-8.6z"/><path fill="#5C6DAA" d="M654.6 121.6c0 8.3-1.2 15.8-3.6 22.7-2.4 6.9-5.9 12.7-10.4 17.6-4.5 4.9-10 8.6-16.3 11.3-6.3 2.7-13.4 4-21.3 4-7.7 0-14.7-1.3-21.1-4-6.3-2.7-11.8-6.4-16.3-11.3s-8.1-10.7-10.6-17.6c-2.5-6.9-3.8-14.4-3.8-22.7 0-8.3 1.3-15.8 3.9-22.6 2.6-6.8 6.2-12.6 10.8-17.4 4.6-4.8 10-8.5 16.4-11.2 6.3-2.7 13.2-4 20.7-4 7.6 0 14.5 1.3 20.9 4 6.3 2.7 11.7 6.4 16.3 11.2 4.5 4.8 8.1 10.6 10.6 17.4 2.6 6.8 3.8 14.3 3.8 22.6zm-30.3 0c0-9.2-1.8-16.4-5.5-21.7-3.7-5.3-8.9-7.9-15.7-7.9-6.8 0-12 2.6-15.8 7.9-3.7 5.3-5.6 12.5-5.6 21.7s1.9 16.5 5.6 21.9c3.7 5.4 9 8.1 15.8 8.1 6.8 0 12-2.7 15.7-8.1 3.7-5.5 5.5-12.8 5.5-21.9zM399.3 19.3c5.6 0 10.7.6 15.4 1.7 4.7 1.1 8.3 2.2 10.8 3.3l-5.8 23.8c-2.7-1.2-5.6-2.1-8.7-2.7-3.1-.6-6-.9-8.7-.9-3.6 0-6.6.5-9.1 1.5s-4.4 2.4-5.8 4.1c-1.4 1.7-2.4 3.8-3 6.2-.6 2.4-.9 5-.9 7.8v5.2h36.7V94h-36.7v80.3h-29.8V63.7c0-13.6 3.8-24.4 11.5-32.3 7.7-8.1 19.1-12.1 34.1-12.1zM75.5 150.5c4.4 0 8-.4 10.9-1.1 2.9-.7 5.2-1.7 6.9-3 1.7-1.3 2.9-2.8 3.6-4.5.7-1.7 1-3.7 1-5.8 0-4.5-2.1-8.3-6.4-11.3-4.3-3-11.6-6.2-22-9.7-4.5-1.6-9.1-3.4-13.6-5.5s-8.6-4.7-12.2-7.8c-3.6-3.1-6.5-6.9-8.8-11.4-2.3-4.5-3.4-9.9-3.4-16.3s1.2-12.1 3.6-17.3c2.4-5.1 5.8-9.5 10.2-13.1 4.4-3.6 9.7-6.4 16-8.3 6.3-1.9 13.3-2.9 21.2-2.9 9.3 0 17.4 1 24.2 3 6.8 2 12.4 4.2 16.8 6.6l-9 24.6c-3.9-2-8.2-3.8-12.9-5.3-4.7-1.5-10.4-2.3-17.1-2.3-7.5 0-12.8 1-16.1 3.1-3.3 2.1-4.9 5.2-4.9 9.5 0 2.5.6 4.7 1.8 6.4 1.2 1.7 2.9 3.3 5.1 4.7 2.2 1.4 4.7 2.7 7.6 3.8 2.9 1.1 6 2.3 9.5 3.5 7.2 2.7 13.4 5.3 18.8 7.9 5.3 2.6 9.7 5.6 13.3 9.1 3.5 3.5 6.2 7.5 7.9 12.2 1.7 4.7 2.6 10.3 2.6 17 0 12.9-4.5 22.9-13.6 30-9.1 7.1-22.7 10.7-40.9 10.7-6.1 0-11.6-.4-16.6-1.1-4.9-.7-9.3-1.6-13.1-2.7-3.8-1.1-7.1-2.2-9.8-3.4-2.7-1.2-5-2.3-6.9-3.4l8.8-24.8c4.1 2.3 9.2 4.3 15.3 6.1 6 1.9 13.4 2.8 22.2 2.8zM332.8 95.6c-2.7-.7-5.8-1.4-9.4-2.1-3.6-.7-7.5-1.1-11.6-1.1-1.9 0-4.1.2-6.7.5-2.6.3-4.6.7-5.9 1.1v80.3h-29.8V74.8c5.3-1.9 11.6-3.6 18.9-5.3 7.3-1.7 15.3-2.5 24.3-2.5 1.6 0 3.5.1 5.8.3 2.3.2 4.5.5 6.8.8 2.3.3 4.5.7 6.8 1.2s4.2 1 5.8 1.7l-5 24.6zM241.6 170.7c-5.1 1.5-11.6 2.8-19.6 4.1-8 1.3-16.4 1.9-25.2 1.9-8.9 0-16.3-1.2-22.3-3.6-5.9-2.4-10.6-5.8-14.1-10.1s-5.9-9.5-7.4-15.5-2.2-12.6-2.2-19.8V69.3h29.8v54.9c0 9.6 1.3 16.5 3.8 20.8 2.5 4.3 7.3 6.4 14.2 6.4 2.1 0 4.4-.1 6.8-.3 2.4-.2 4.5-.4 6.4-.7V69.3h29.8v101.4zM764.7 174.6H740l-1.1-2c-6.2-11-13-22.1-20.3-32.9-5.1-7.7-10.6-15.1-16.3-22.2v57.1h-29.5V69h23.4l1.1 1.1c3.2 3.2 6.7 7.1 10.5 11.7s7.7 9.5 11.6 14.6c3.9 5.1 7.9 10.6 11.7 16.1 1.3 1.8 2.5 3.6 3.8 5.4V69h29.7v105.6z"/><g fill="#FFF"><path d="M166.5 262.6c1.3 0 2.5-.1 3.3-.3.9-.2 1.6-.5 2.1-.9s.9-.8 1.1-1.4c.2-.5.3-1.1.3-1.8 0-1.4-.7-2.5-2-3.4-1.3-.9-3.5-1.9-6.7-3-1.4-.5-2.8-1-4.1-1.7-1.4-.6-2.6-1.4-3.7-2.4s-2-2.1-2.7-3.5c-.7-1.4-1-3-1-5s.4-3.7 1.1-5.3c.7-1.6 1.8-2.9 3.1-4s3-1.9 4.9-2.5c1.9-.6 4.1-.9 6.5-.9 2.8 0 5.3.3 7.4.9 2.1.6 3.8 1.3 5.1 2l-2.7 7.5c-1.2-.6-2.5-1.1-3.9-1.6s-3.2-.7-5.2-.7c-2.3 0-3.9.3-4.9.9-1 .6-1.5 1.6-1.5 2.9 0 .8.2 1.4.5 2 .4.5.9 1 1.6 1.4.7.4 1.4.8 2.3 1.2.9.3 1.8.7 2.9 1.1 2.2.8 4.1 1.6 5.7 2.4 1.6.8 3 1.7 4.1 2.8 1.1 1.1 1.9 2.3 2.4 3.7.5 1.4.8 3.2.8 5.2 0 3.9-1.4 7-4.1 9.2-2.8 2.2-6.9 3.3-12.5 3.3-1.9 0-3.6-.1-5.1-.3-1.5-.2-2.8-.5-4-.8-1.2-.3-2.2-.7-3-1-.8-.4-1.5-.7-2.1-1l2.7-7.6c1.3.7 2.8 1.3 4.7 1.9 1.7.5 4 .7 6.6.7zM216.8 268.8c-1.5.4-3.5.9-6 1.3-2.4.4-5 .6-7.7.6s-5-.4-6.8-1.1c-1.8-.7-3.2-1.8-4.3-3.1-1.1-1.3-1.8-2.9-2.3-4.7-.4-1.8-.7-3.8-.7-6v-17.9h9.1v16.8c0 2.9.4 5 1.2 6.3.8 1.3 2.2 2 4.3 2 .7 0 1.3 0 2.1-.1.7-.1 1.4-.1 2-.2v-24.8h9.1v30.9zM244.3 245.8c-.8-.2-1.8-.4-2.9-.6s-2.3-.3-3.5-.3c-.6 0-1.3.1-2 .2-.8.1-1.4.2-1.8.3v24.5H225v-30.4c1.6-.6 3.5-1.1 5.8-1.6 2.2-.5 4.7-.8 7.4-.8.5 0 1.1 0 1.8.1s1.4.1 2.1.2c.7.1 1.4.2 2.1.4.7.1 1.3.3 1.8.5l-1.7 7.5zM264.4 222.5c1.7 0 3.3.2 4.7.5 1.4.3 2.5.7 3.3 1l-1.8 7.3c-.8-.4-1.7-.6-2.7-.8-1-.2-1.8-.3-2.7-.3-1.1 0-2 .2-2.8.5-.8.3-1.3.7-1.8 1.3-.4.5-.7 1.2-.9 1.9-.2.7-.3 1.5-.3 2.4v1.6h11.2v7.6h-11.2V270h-9.1v-33.8c0-4.1 1.2-7.4 3.5-9.9 2.5-2.5 6-3.8 10.6-3.8zM285.1 237.6c2.1 0 3.8.3 5.3.9 1.4.6 2.6 1.4 3.5 2.4.9 1 1.5 2.3 2 3.7.4 1.4.6 3 .6 4.6v19.9c-.4.1-1 .3-1.8.4-.8.1-1.7.3-2.7.5-1 .2-2.1.3-3.4.4-1.2.1-2.5.2-3.8.2-1.7 0-3.2-.2-4.6-.5-1.4-.4-2.6-.9-3.7-1.7-1-.8-1.9-1.8-2.4-3.1-.6-1.2-.9-2.8-.9-4.5 0-1.7.3-3.2 1-4.4.7-1.2 1.6-2.2 2.7-3 1.2-.8 2.6-1.4 4.2-1.7 1.6-.4 3.4-.5 5.3-.5.6 0 1.2 0 1.8.1.6.1 1.2.1 1.8.2.6.1 1.1.2 1.5.3.4.1.7.2.9.3v-2c0-1.1-.1-2.2-.2-3.2s-.5-2-1.1-2.8c-.5-.8-1.3-1.5-2.3-2-1-.5-2.3-.8-3.9-.8-2.3 0-4 .2-5.2.5-1.1.3-2 .6-2.5.8l-.5-3.5c.7-.3 1.8-.6 3.2-.9 1.5-.4 3.2-.6 5.2-.6zm.4 29.4c1.5 0 2.9-.1 4.1-.2 1.2-.1 2.1-.2 3-.4v-11.1c-.4-.2-1.2-.4-2.1-.6-1-.2-2.3-.3-4-.3-1 0-2 .1-3.1.2s-2 .4-2.9.9c-.9.5-1.6 1.1-2.2 1.9-.6.8-.9 1.9-.9 3.2 0 1.2.2 2.2.6 3 .4.8.9 1.5 1.6 2 .7.5 1.6.8 2.6 1.1.9.2 2 .3 3.3.3zM319 270.6c-2.4 0-4.6-.4-6.5-1.2-1.9-.8-3.4-1.9-4.7-3.3-1.2-1.4-2.2-3.2-2.8-5.2-.7-2-1-4.2-1-6.7s.3-4.7 1-6.8c.7-2 1.6-3.8 2.9-5.2 1.3-1.5 2.8-2.6 4.6-3.4 1.8-.8 3.8-1.2 6-1.2 1.7 0 3.3.1 4.8.4 1.5.3 2.6.7 3.4 1.1l-1 3.4c-.8-.4-1.7-.7-2.7-1-1-.2-2.4-.4-4.1-.4-3.5 0-6.2 1.1-8 3.4-1.8 2.3-2.7 5.5-2.7 9.6 0 1.9.2 3.6.6 5.2.4 1.6 1.1 2.9 2 4 .9 1.1 2.1 2 3.5 2.6 1.4.6 3.2.9 5.3.9 1.7 0 3.1-.2 4.3-.6 1.2-.4 2-.7 2.5-1l.9 3.4c-.7.4-1.9.8-3.4 1.2-1.6.6-3.2.8-4.9.8zM336.9 238.3h12.6v3.4h-12.6v16.8c0 1.8.2 3.2.5 4.4.3 1.1.7 2 1.3 2.6.6.6 1.3 1 2.1 1.2.8.2 1.7.3 2.7.3 1.7 0 3-.2 4-.6 1-.4 1.8-.7 2.4-1.1l1 3.3c-.6.4-1.6.8-3 1.3s-3 .7-4.6.7c-2 0-3.6-.3-4.9-.8-1.3-.5-2.4-1.3-3.2-2.3-.8-1-1.4-2.3-1.7-3.9-.3-1.5-.5-3.4-.5-5.5v-29l4-.7v9.9zM366.7 237.6c2.1 0 3.8.3 5.3.9 1.4.6 2.6 1.4 3.5 2.4.9 1 1.5 2.3 2 3.7.4 1.4.6 3 .6 4.6v19.9c-.4.1-1 .3-1.8.4-.8.1-1.7.3-2.7.5-1 .2-2.1.3-3.4.4-1.2.1-2.5.2-3.8.2-1.7 0-3.2-.2-4.6-.5-1.4-.4-2.6-.9-3.7-1.7-1-.8-1.9-1.8-2.4-3.1-.6-1.2-.9-2.8-.9-4.5 0-1.7.3-3.2 1-4.4.7-1.2 1.6-2.2 2.7-3 1.2-.8 2.6-1.4 4.2-1.7 1.6-.4 3.4-.5 5.3-.5.6 0 1.2 0 1.8.1.6.1 1.2.1 1.8.2.6.1 1.1.2 1.5.3.4.1.7.2.9.3v-2c0-1.1-.1-2.2-.2-3.2-.2-1-.5-2-1.1-2.8-.5-.8-1.3-1.5-2.3-2-1-.5-2.3-.8-3.9-.8-2.3 0-4 .2-5.2.5-1.1.3-2 .6-2.5.8l-.5-3.5c.7-.3 1.8-.6 3.2-.9 1.4-.4 3.1-.6 5.2-.6zm.3 29.4c1.5 0 2.9-.1 4.1-.2 1.2-.1 2.1-.2 3-.4v-11.1c-.4-.2-1.2-.4-2.1-.6-1-.2-2.3-.3-4-.3-1 0-2 .1-3.1.2s-2 .4-2.9.9c-.9.5-1.6 1.1-2.2 1.9-.6.8-.9 1.9-.9 3.2 0 1.2.2 2.2.6 3 .4.8.9 1.5 1.6 2 .7.5 1.6.8 2.6 1.1.9.2 2.1.3 3.3.3zM387.2 239.4c1.2-.3 2.8-.7 4.8-1.1 2-.4 4.4-.6 7.3-.6 2.4 0 4.4.3 6 1 1.6.7 2.9 1.7 3.8 3 1 1.3 1.6 2.8 2 4.6.4 1.8.6 3.8.6 5.9v17.6h-4v-16.4c0-2.2-.2-4.1-.5-5.7-.3-1.5-.8-2.8-1.5-3.8s-1.6-1.7-2.8-2.1c-1.2-.4-2.6-.6-4.4-.6-1.9 0-3.5.1-4.9.3-1.4.2-2.2.4-2.7.5v27.7h-4v-30.3zM424.6 238.3h12.6v3.4h-12.6v16.8c0 1.8.2 3.2.5 4.4.3 1.1.7 2 1.3 2.6.6.6 1.3 1 2.1 1.2.8.2 1.7.3 2.7.3 1.7 0 3-.2 4-.6 1-.4 1.8-.7 2.4-1.1l1 3.3c-.6.4-1.6.8-3 1.3s-3 .7-4.6.7c-2 0-3.6-.3-4.9-.8-1.3-.5-2.4-1.3-3.2-2.3-.8-1-1.4-2.3-1.7-3.9-.3-1.5-.5-3.4-.5-5.5v-29l4-.7v9.9zM499.6 248.7c0 3.6-.5 6.8-1.6 9.6-1.1 2.7-2.6 5-4.4 6.9-1.9 1.9-4.1 3.2-6.7 4.2-2.6.9-5.4 1.4-8.3 1.4-2.9 0-5.6-.5-8.2-1.4-2.6-.9-4.8-2.3-6.7-4.2-1.9-1.9-3.4-4.1-4.5-6.9-1.1-2.7-1.6-5.9-1.6-9.6 0-3.6.6-6.8 1.7-9.6 1.1-2.7 2.7-5.1 4.6-6.9 1.9-1.9 4.2-3.3 6.7-4.2 2.5-.9 5.2-1.4 8-1.4 2.9 0 5.6.5 8.2 1.4 2.6.9 4.8 2.3 6.7 4.2 1.9 1.9 3.4 4.2 4.5 6.9 1 2.8 1.6 6 1.6 9.6zm-32.3 0c0 2.1.3 3.9.8 5.6.5 1.7 1.2 3.1 2.2 4.3 1 1.2 2.1 2.1 3.5 2.8 1.4.7 3 1 4.8 1 1.7 0 3.3-.3 4.7-1 1.4-.7 2.6-1.6 3.5-2.8 1-1.2 1.7-2.6 2.2-4.3.5-1.7.8-3.5.8-5.6 0-2.1-.3-4-.8-5.6-.5-1.7-1.2-3.1-2.2-4.3-1-1.2-2.1-2.1-3.5-2.8-1.4-.7-3-1-4.7-1-1.8 0-3.4.3-4.8 1s-2.6 1.6-3.5 2.8c-1 1.2-1.7 2.6-2.2 4.3-.6 1.7-.8 3.6-.8 5.6zM517.8 237.7c1.3 0 2.5.1 3.7.3 1.2.2 2 .4 2.4.6l-.8 3.4c-.3-.2-1-.3-2-.5s-2.3-.3-3.9-.3c-1.7 0-3.1.1-4.1.4-1 .2-1.7.4-2 .6v27.6h-4v-30.1c1-.4 2.4-.9 4.2-1.4 1.8-.3 4-.6 6.5-.6zM573 269.9c-2.7-4.8-5.7-9.6-8.8-14.3-3.2-4.7-6.6-9.2-10.1-13.4v27.7h-9.4v-42.3h7.8c1.3 1.3 2.8 3 4.5 4.9 1.6 2 3.3 4 5 6.3 1.7 2.2 3.4 4.5 5 6.9 1.7 2.4 3.2 4.7 4.7 6.9v-25h9.5v42.3H573zM617.3 254.1c0 2.5-.4 4.7-1.1 6.8-.7 2-1.7 3.8-3 5.2-1.3 1.4-2.8 2.5-4.5 3.3-1.7.8-3.7 1.2-5.8 1.2-2.1 0-4-.4-5.8-1.2-1.7-.8-3.3-1.9-4.5-3.3-1.3-1.4-2.3-3.2-3-5.2-.7-2-1.1-4.3-1.1-6.8s.4-4.7 1.1-6.8c.7-2 1.7-3.8 3-5.2 1.3-1.4 2.8-2.6 4.5-3.4 1.7-.8 3.7-1.2 5.8-1.2 2.1 0 4 .4 5.8 1.2 1.7.8 3.3 1.9 4.5 3.4 1.3 1.4 2.3 3.2 3 5.2.7 2.1 1.1 4.4 1.1 6.8zm-4.2 0c0-3.9-.9-7.1-2.7-9.4-1.8-2.3-4.3-3.5-7.4-3.5-3.1 0-5.6 1.2-7.4 3.5-1.8 2.3-2.7 5.5-2.7 9.4 0 3.9.9 7.1 2.7 9.4s4.3 3.5 7.4 3.5c3.1 0 5.6-1.2 7.4-3.5 1.7-2.3 2.7-5.4 2.7-9.4zM628.7 238.3h12.6v3.4h-12.6v16.8c0 1.8.2 3.2.5 4.4.3 1.1.7 2 1.3 2.6.6.6 1.3 1 2.1 1.2.8.2 1.7.3 2.7.3 1.7 0 3-.2 4-.6 1-.4 1.8-.7 2.4-1.1l1 3.3c-.6.4-1.6.8-3 1.3s-3 .7-4.6.7c-2 0-3.6-.3-4.9-.8-1.3-.5-2.4-1.3-3.2-2.3-.8-1-1.4-2.3-1.7-3.9-.3-1.5-.5-3.4-.5-5.5v-29l4-.7v9.9z"/></g></svg>