<svg xmlns="http://www.w3.org/2000/svg" width="891.4" height="283.5" viewBox="0 0 891.4 283.5"><path fill="#F18626" d="M213 74.7c0-37.4 0-44.3-.5-52.1-.5-8.4-3-12.5-8.4-13.8-2.7-.8-5.9-1-8.8-1-2.5 0-3.9-.5-3.9-2.4 0-1.5 2-2 5.9-2 9.3 0 24.8.7 32 .7 6.2 0 20.7-.7 30-.7 3.2 0 5.2.5 5.2 2 0 2-1.5 2.4-3.9 2.4s-4.4.2-7.4.7c-6.7 1.2-8.6 5.4-9.1 14-.5 7.9-.5 14.8-.5 52.1V118c0 23.9 0 43.3 1 53.9.7 6.7 2.5 11.1 9.9 12.1 3.4.5 8.8 1 12.5 1 2.7 0 3.9.7 3.9 2 0 1.7-2 2.5-4.7 2.5-16.2 0-31.7-.7-38.4-.7-5.7 0-21.1.7-31 .7-3.2 0-4.9-.7-4.9-2.5 0-1.2 1-2 3.9-2 3.7 0 6.7-.5 8.9-1 4.9-1 6.4-5.2 7.1-12.3 1.2-10.3 1.2-29.8 1.2-53.6V74.7zm251.2 98.1c0 6.6-.3 7.1-3.2 8.9-16 8.3-40.1 11.1-59.3 11.1-60.2 0-113.6-28.5-113.6-96.4 0-39.4 20.4-66.9 42.8-80.4C354.5 1.7 376.4 0 397 0c17 0 38.6 2.9 43.5 3.9 5.2 1 13.8 2.4 19.4 2.7 3 .2 3.4 1.2 3.4 2.9 0 2.7-1.7 9.6-1.7 40.3 0 3.9-.7 5.2-2.7 5.2-1.7 0-2.2-1.2-2.5-3.2-.7-5.6-2-13.5-8.4-20.4-7.4-7.9-27-19.2-54.8-19.2-13.5 0-31.5 1-48.7 15.2-13.8 11.6-22.6 30-22.6 60.2 0 52.9 33.7 92.5 85.6 92.5 6.4 0 15 0 20.9-2.7 3.7-1.7 4.7-4.9 4.7-9.1v-23.1c0-12.3 0-21.7-.2-29-.2-8.4-2.5-12.3-10.6-14-2-.5-6.2-.7-9.6-.7-2.2 0-3.7-.5-3.7-2 0-2 1.7-2.5 5.2-2.5 12.8 0 28.3.7 35.7.7 7.6 0 20.6-.7 28.8-.7 3.2 0 4.9.5 4.9 2.5 0 1.5-1.5 2-3.2 2-2 0-3.7.2-6.6.7-6.7 1.2-9.1 5.4-9.3 14-.2 7.4-.2 17.2-.2 29.5l-.1 27.1zM69.6 17.2l-36.6 1c-14.3.5-20.2 1.7-23.9 7.1C6.7 29 5.4 32 4.9 33.9c-.5 2-1.2 3-2.7 3C.5 36.9 0 35.7 0 33 0 29 4.7 6.6 5.2 4.6 5.9 1.5 6.7 0 8.1 0c2 0 4.4 2.4 10.6 2.9 7.1.8 16.5 1.2 24.6 1.2h97.4c7.9 0 13.3-.7 17-1.2 3.7-.7 5.6-1.2 6.6-1.2 1.7 0 2 1.5 2 5.1 0 5.2-.7 22.1-.7 28.5-.2 2.4-.7 3.9-2.2 3.9-2 0-2.4-1.2-2.7-4.9l-.2-2.7c-.5-6.4-7.1-13.3-29-13.8l-31-.7V118c0 22.6 0 42 1.2 52.6.7 6.9 2.2 12.3 9.6 13.3 3.4.5 8.8 1 12.6 1 2.7 0 3.9.7 3.9 2 0 1.7-2 2.5-4.7 2.5-16.2 0-31.7-.7-38.6-.7-5.7 0-21.1.7-31 .7-3.2 0-4.9-.7-4.9-2.5 0-1.2 1-2 3.9-2 3.7 0 6.6-.5 8.8-1 4.9-1 6.4-6.4 7.1-13.5 1.2-10.3 1.2-29.8 1.2-52.4V17.2zm652.6 57.5c0-37.4 0-44.3-.5-52.1-.5-8.4-2.4-12.3-10.6-14-2-.5-6.1-.7-9.6-.7-2.7 0-4.2-.5-4.2-2.2s1.7-2.2 5.4-2.2c13 0 28.5.7 33.7.7 8.3 0 27-.7 34.7-.7 15.5 0 32 1.5 45.3 10.6 6.9 4.6 16.7 17.2 16.7 33.7 0 18.2-7.6 34.9-32.4 55.1 21.9 27.5 38.9 49.4 53.4 64.7 13.8 14.3 23.8 16 27.5 16.7 2.7.5 4.9.7 6.9.7s2.9.7 2.9 2c0 2-1.7 2.5-4.6 2.5h-23.4c-13.8 0-19.9-1.2-26.3-4.7-10.6-5.6-19.9-17.2-33.7-36.1-9.8-13.5-21.1-30.3-24.3-33.9-1.2-1.5-2.7-1.7-4.4-1.7l-21.4-.5c-1.2 0-2 .5-2 2v3.4c0 22.9 0 42.3 1.2 52.6.7 7.1 2.2 12.5 9.6 13.5 3.7.5 9.1 1 12.1 1 2 0 3 .7 3 2 0 1.7-1.7 2.5-4.9 2.5-14.3 0-32.5-.7-36.1-.7-4.7 0-20.2.7-30 .7-3.2 0-4.9-.7-4.9-2.5 0-1.2 1-2 4-2 3.7 0 6.6-.5 8.9-1 4.9-1 6.1-6.4 7.1-13.5 1.2-10.3 1.2-29.8 1.2-52.4V74.7h-.3zm29 19.5c0 2.7.5 3.7 2.2 4.4 5.1 1.7 12.5 2.5 18.7 2.5 9.8 0 13-1 17.5-4.2 7.4-5.4 14.5-16.7 14.5-36.9 0-34.9-23.1-45-37.6-45-6.2 0-10.6.2-13 1-1.7.5-2.2 1.5-2.2 3.4v74.8h-.1z"/><path fill="#1D1D1B" d="M840.1 102.9c-56.8-30.3-112.5-18.5-172.9-11.2-14.1 1.7-28.5 2.6-42.8 2.6-15.6-38.3-31.7-78.2-35.3-86.5-2.5-5.6-3.9-7.8-6.2-7.8-2.5 0-3.9 2.7-6.9 9.8l-30 74.3c-11.3-3.2-22.4-7.2-33.1-12.2 10.7 5 20.6 11.6 30.7 18l-29.3 72.3c-4.9 12.3-9.6 20.6-20.9 22.1-2 .2-5.4.5-7.6.5-2 0-3 .5-3 2 0 2 1.5 2.5 4.7 2.5 12.8 0 26.3-.7 29-.7 7.6 0 18.2.7 26.1.7 2.7 0 4.2-.5 4.2-2.5 0-1.5-.7-2-3.7-2h-3.7c-7.6 0-9.8-3.2-9.8-7.6 0-3 1.2-8.9 3.7-15l13.3-33.7 6.1-16 5.3-14.1c2.7 1.5 5.4 2.9 8.2 4.2 11 5.1 22.9 9.4 35.1 12.9l4.9 12.7 19.7 50.7c1.2 3-.5 5.2-2.2 5.6-2.5.3-3.4.8-3.4 2.2 0 1.7 2.9 1.7 7.4 2 19.7.5 37.6.5 46.5.5 9.1 0 11.3-.5 11.3-2.5 0-1.7-1.2-2-3.2-2-2.9 0-6.6-.3-10.3-1-5.2-1.2-12.3-4.7-21.6-26.8-3.6-8.6-8.5-20.5-14-33.9 22.4 3.4 45.1 4 66.3 1.4 64.6-7.8 127.9-24.6 189 8-13.1-6.5-35.3-20.7-51.6-29.5zM561.9 88.1l13.4-35.7c.2-1 .7-2.2 1.5-2.2s1 1.2 1.2 2.2l14.8 40.5c-10.4-1-20.7-2.6-30.9-4.8zM56.4 239.8v-19.5h-7.3v-2.6h17.5v2.6h-7.3v19.5h-2.9zm11.7 0v-16h2.4v2.4c.6-1.1 1.2-1.9 1.7-2.3.5-.4 1.1-.5 1.7-.5.9 0 1.8.3 2.8.9l-.9 2.5c-.7-.4-1.3-.6-2-.6-.6 0-1.1.2-1.6.5-.5.4-.8.9-1 1.5-.3 1-.5 2-.5 3.2v8.4h-2.6zm20.8-1.9c-1 .9-2 1.5-2.9 1.8-.9.4-1.9.5-3 .5-1.8 0-3.1-.4-4.1-1.3-.9-.9-1.4-2-1.4-3.3 0-.8.2-1.5.5-2.1.4-.7.8-1.2 1.4-1.6.6-.4 1.2-.7 2-.9.5-.1 1.3-.3 2.4-.4 2.2-.3 3.8-.6 4.8-.9v-.7c0-1.1-.3-1.9-.8-2.3-.7-.6-1.7-.9-3.1-.9-1.3 0-2.2.2-2.8.7-.6.4-1.1 1.2-1.4 2.4l-2.7-.4c.2-1.1.6-2.1 1.2-2.8s1.4-1.2 2.4-1.6c1-.4 2.3-.6 3.6-.6 1.4 0 2.5.2 3.3.5.9.3 1.5.7 1.9 1.2s.7 1.1.8 1.8c.1.5.1 1.3.1 2.5v3.6c0 2.5.1 4.1.2 4.8s.3 1.3.7 1.9h-2.8c0-.5-.2-1.2-.3-1.9zm-.2-6.1c-1 .4-2.5.7-4.4 1-1.1.2-1.9.3-2.4.5s-.8.5-1.1.9c-.3.4-.4.8-.4 1.3 0 .7.3 1.3.8 1.8s1.4.7 2.4.7 2-.2 2.8-.7 1.4-1.1 1.8-1.9c.3-.6.4-1.5.4-2.7l.1-.9zm17.4 2.2l2.7.3c-.3 1.8-1 3.3-2.2 4.3s-2.7 1.6-4.4 1.6c-2.2 0-4-.7-5.3-2.2-1.3-1.4-2-3.5-2-6.2 0-1.7.3-3.2.9-4.5s1.4-2.3 2.6-2.9c1.2-.7 2.4-1 3.8-1 1.7 0 3.2.4 4.3 1.3 1.1.9 1.8 2.1 2.1 3.8l-2.6.4c-.3-1.1-.7-1.9-1.3-2.4-.6-.5-1.4-.8-2.3-.8-1.4 0-2.5.5-3.3 1.5-.9 1-1.3 2.5-1.3 4.7s.4 3.7 1.2 4.7c.8 1 1.9 1.5 3.2 1.5 1.1 0 2-.3 2.7-1 .6-.8 1.1-1.8 1.2-3.1zm5.1 5.8v-22.1h2.7v12.6l6.4-6.5h3.5l-6.1 6 6.7 10.1H121l-5.3-8.2-1.9 1.8v6.4h-2.6v-.1zm15.4-19v-3.1h2.7v3.1h-2.7zm0 19v-16h2.7v16h-2.7zm6.9 0v-16h2.4v2.3c1.2-1.8 2.9-2.6 5.1-2.6 1 0 1.9.2 2.7.5.8.4 1.4.8 1.8 1.4.4.6.7 1.2.8 2 .1.5.2 1.4.2 2.6v9.9h-2.7v-9.8c0-1.1-.1-1.9-.3-2.5-.2-.5-.6-1-1.1-1.3s-1.2-.5-1.9-.5c-1.2 0-2.2.4-3 1.1-.8.7-1.3 2.1-1.3 4.2v8.8l-2.7-.1zm16.7 1.4l2.6.4c.1.8.4 1.4.9 1.8.7.5 1.6.8 2.8.8 1.3 0 2.2-.3 2.9-.8s1.1-1.2 1.4-2.1c.1-.6.2-1.7.2-3.5-1.2 1.4-2.7 2.1-4.4 2.1-2.2 0-3.9-.8-5.1-2.4-1.2-1.6-1.8-3.5-1.8-5.7 0-1.5.3-2.9.8-4.2.6-1.3 1.4-2.3 2.4-3 1.1-.7 2.3-1.1 3.7-1.1 1.9 0 3.5.8 4.7 2.3v-1.9h2.5v13.9c0 2.5-.3 4.3-.8 5.3s-1.3 1.9-2.4 2.5c-1.1.6-2.5.9-4.1.9-1.9 0-3.5-.4-4.6-1.3-1.2-1-1.8-2.3-1.7-4zm2.2-9.7c0 2.1.4 3.6 1.3 4.6.8 1 1.9 1.4 3.1 1.4 1.2 0 2.3-.5 3.1-1.4.8-1 1.3-2.5 1.3-4.5s-.4-3.4-1.3-4.4c-.9-1-1.9-1.5-3.1-1.5-1.2 0-2.2.5-3.1 1.5-.9.9-1.3 2.4-1.3 4.3zm30 5.9l.4 2.4c-.8.2-1.5.2-2.1.2-1 0-1.8-.2-2.3-.5s-.9-.7-1.1-1.2c-.2-.5-.3-1.6-.3-3.2v-9.2h-2v-2.1h2v-4l2.7-1.6v5.6h2.7v2.1h-2.7v9.4c0 .8 0 1.3.1 1.5s.3.4.5.5.5.2.9.2c.3 0 .7 0 1.2-.1zm2.7 2.4v-22.1h2.7v7.9c1.3-1.5 2.9-2.2 4.8-2.2 1.2 0 2.2.2 3.1.7.9.5 1.5 1.1 1.9 1.9.4.8.6 2 .6 3.6v10.2h-2.7v-10.2c0-1.4-.3-2.3-.9-3-.6-.6-1.4-.9-2.5-.9-.8 0-1.6.2-2.3.6-.7.4-1.2 1-1.5 1.7s-.5 1.7-.5 3v8.8h-2.7zm28.1-5.1l2.8.3c-.4 1.6-1.3 2.9-2.5 3.8-1.2.9-2.7 1.4-4.6 1.4-2.3 0-4.2-.7-5.6-2.2-1.4-1.4-2.1-3.5-2.1-6.1 0-2.7.7-4.8 2.1-6.3 1.4-1.5 3.2-2.2 5.4-2.2 2.1 0 3.9.7 5.3 2.2 1.4 1.5 2 3.5 2 6.2v.7h-12c.1 1.8.6 3.1 1.5 4s2 1.4 3.4 1.4c1 0 1.8-.3 2.6-.8.8-.4 1.3-1.3 1.7-2.4zm-8.9-4.4h9c-.1-1.4-.5-2.4-1-3-.9-1-2-1.6-3.4-1.6-1.2 0-2.3.4-3.1 1.3-.9.8-1.4 1.9-1.5 3.3zm24.6 9.5v-22.1h2.9v22.1h-2.9zm7.7 0v-16h2.4v2.2c.5-.8 1.2-1.4 2-1.9s1.8-.7 2.9-.7c1.2 0 2.2.2 2.9.7.8.5 1.3 1.2 1.6 2.1 1.3-1.9 2.9-2.8 5-2.8 1.6 0 2.8.4 3.7 1.3.9.9 1.3 2.2 1.3 4.1v11h-2.7v-10.1c0-1.1-.1-1.9-.3-2.3-.2-.5-.5-.9-1-1.2s-1-.4-1.6-.4c-1.1 0-2.1.4-2.8 1.1-.7.8-1.1 1.9-1.1 3.6v9.3h-2.7v-10.4c0-1.2-.2-2.1-.7-2.7-.4-.6-1.2-.9-2.2-.9-.8 0-1.5.2-2.1.6-.6.4-1.1 1-1.4 1.8-.3.8-.4 1.9-.4 3.4v8.3h-2.8v-.1zm25.8 6.2v-22.2h2.5v2.1c.6-.8 1.2-1.4 2-1.8.7-.4 1.6-.6 2.7-.6 1.4 0 2.6.4 3.6 1.1 1 .7 1.8 1.7 2.4 3 .5 1.3.8 2.7.8 4.2 0 1.6-.3 3.1-.9 4.4-.6 1.3-1.4 2.3-2.6 3-1.1.7-2.3 1.1-3.5 1.1-.9 0-1.7-.2-2.4-.6-.7-.4-1.3-.9-1.8-1.4v7.8h-2.8v-.1zm2.5-14.1c0 2.1.4 3.6 1.3 4.6.8 1 1.8 1.5 3 1.5s2.2-.5 3.1-1.5 1.3-2.6 1.3-4.7c0-2-.4-3.6-1.3-4.6-.8-1-1.8-1.5-3-1.5s-2.2.5-3.1 1.6c-.9 1-1.3 2.6-1.3 4.6zm25.2 6c-1 .9-2 1.5-2.9 1.8-.9.4-1.9.5-3 .5-1.8 0-3.1-.4-4.1-1.3-.9-.9-1.4-2-1.4-3.3 0-.8.2-1.5.5-2.1.4-.7.8-1.2 1.4-1.6.6-.4 1.2-.7 2-.9.5-.1 1.3-.3 2.4-.4 2.2-.3 3.8-.6 4.8-.9v-.7c0-1.1-.3-1.9-.8-2.3-.7-.6-1.7-.9-3.1-.9-1.3 0-2.2.2-2.8.7-.6.4-1.1 1.2-1.4 2.4l-2.7-.4c.2-1.1.6-2.1 1.2-2.8s1.4-1.2 2.4-1.6c1-.4 2.3-.6 3.6-.6 1.4 0 2.5.2 3.3.5.9.3 1.5.7 1.9 1.2s.7 1.1.8 1.8c.1.5.1 1.3.1 2.5v3.6c0 2.5.1 4.1.2 4.8s.3 1.3.7 1.9h-2.8c-.1-.5-.3-1.2-.3-1.9zm-.3-6.1c-1 .4-2.5.7-4.4 1-1.1.2-1.9.3-2.4.5s-.8.5-1.1.9c-.3.4-.4.8-.4 1.3 0 .7.3 1.3.8 1.8s1.4.7 2.4.7 2-.2 2.8-.7 1.4-1.1 1.8-1.9c.3-.6.4-1.5.4-2.7v-.9h.1zm17.5 2.2l2.7.3c-.3 1.8-1 3.3-2.2 4.3s-2.7 1.6-4.4 1.6c-2.2 0-4-.7-5.3-2.2-1.3-1.4-2-3.5-2-6.2 0-1.7.3-3.2.9-4.5s1.4-2.3 2.6-2.9c1.2-.7 2.4-1 3.8-1 1.7 0 3.2.4 4.3 1.3 1.1.9 1.8 2.1 2.1 3.8l-2.6.4c-.3-1.1-.7-1.9-1.3-2.4-.6-.5-1.4-.8-2.3-.8-1.4 0-2.5.5-3.3 1.5-.9 1-1.3 2.5-1.3 4.7s.4 3.7 1.2 4.7c.8 1 1.9 1.5 3.2 1.5 1.1 0 2-.3 2.7-1 .5-.8 1-1.8 1.2-3.1zm10.9 3.4l.4 2.4c-.8.2-1.4.2-2.1.2-1 0-1.8-.2-2.3-.5s-.9-.7-1.1-1.2-.3-1.6-.3-3.2v-9.2h-2v-2.1h2v-4l2.7-1.6v5.6h2.7v2.1h-2.7v9.4c0 .8 0 1.3.1 1.5s.3.4.5.5.5.2.9.2c.3 0 .7 0 1.2-.1zm10.2-5.6c0-3 .8-5.2 2.5-6.6 1.4-1.2 3.1-1.8 5-1.8 2.2 0 4 .7 5.4 2.2 1.4 1.4 2.1 3.4 2.1 6 0 2.1-.3 3.7-.9 4.9s-1.5 2.1-2.7 2.8-2.5 1-3.9 1c-2.2 0-4.1-.7-5.4-2.2-1.4-1.5-2.1-3.6-2.1-6.3zm2.8 0c0 2.1.4 3.6 1.3 4.6s2 1.5 3.4 1.5c1.3 0 2.5-.5 3.4-1.5s1.3-2.6 1.3-4.7c0-2-.5-3.5-1.4-4.5s-2-1.5-3.4-1.5-2.5.5-3.4 1.5c-.7 1-1.2 2.6-1.2 4.6zm16.1 8v-13.9h-2.4v-2.1h2.4v-1.7c0-1.1.1-1.9.3-2.4.3-.7.7-1.3 1.4-1.7.7-.4 1.6-.7 2.8-.7.8 0 1.6.1 2.5.3l-.4 2.4c-.6-.1-1.1-.2-1.6-.2-.8 0-1.4.2-1.8.5-.3.4-.5 1-.5 2v1.5h3.1v2.1H350v13.9h-2.7zm27.2-8.6v-2.6h9.4v8.2c-1.4 1.1-2.9 2-4.5 2.6-1.5.6-3.1.9-4.7.9-2.2 0-4.1-.5-5.9-1.4s-3.1-2.3-4-4c-.9-1.8-1.4-3.7-1.4-5.9s.5-4.2 1.4-6c.9-1.9 2.2-3.3 3.9-4.2 1.7-.9 3.6-1.4 5.8-1.4 1.6 0 3 .3 4.3.8s2.3 1.2 3 2.2c.7.9 1.3 2.1 1.7 3.6l-2.6.7c-.3-1.1-.7-2-1.2-2.7-.5-.6-1.2-1.2-2.1-1.5-.9-.4-1.9-.6-3-.6-1.3 0-2.5.2-3.5.6-1 .4-1.8.9-2.4 1.6-.6.7-1.1 1.4-1.4 2.2-.6 1.4-.8 2.9-.8 4.5 0 2 .3 3.6 1 5 .7 1.3 1.7 2.3 3 3 1.3.6 2.7 1 4.1 1 1.3 0 2.5-.2 3.7-.7s2.1-1 2.7-1.6v-4.1h-6.5v-.2zm24.4 3.5l2.8.3c-.4 1.6-1.3 2.9-2.5 3.8-1.2.9-2.7 1.4-4.6 1.4-2.3 0-4.2-.7-5.6-2.2-1.4-1.4-2.1-3.5-2.1-6.1 0-2.7.7-4.8 2.1-6.3s3.2-2.2 5.4-2.2c2.1 0 3.9.7 5.3 2.2s2 3.5 2 6.2v.7h-12c.1 1.8.6 3.1 1.5 4s2 1.4 3.4 1.4c1 0 1.8-.3 2.6-.8.7-.4 1.3-1.3 1.7-2.4zm-9-4.4h9c-.1-1.4-.5-2.4-1-3-.9-1-2-1.6-3.4-1.6-1.2 0-2.3.4-3.1 1.3-.9.8-1.4 1.9-1.5 3.3zm14.1 4.8l2.7-.4c.2 1.1.6 1.9 1.3 2.5.7.6 1.7.9 2.9.9s2.2-.3 2.8-.8c.6-.5.9-1.1.9-1.8 0-.6-.3-1.1-.8-1.4-.4-.2-1.3-.5-2.8-.9-2-.5-3.4-.9-4.1-1.3-.8-.4-1.4-.9-1.8-1.5-.4-.7-.6-1.4-.6-2.2 0-.7.2-1.4.5-2s.8-1.1 1.3-1.5c.4-.3 1-.6 1.7-.8s1.5-.3 2.3-.3c1.3 0 2.4.2 3.3.5 1 .4 1.7.9 2.1 1.5.5.6.8 1.4.9 2.5l-2.7.4c-.1-.8-.5-1.5-1-1.9-.6-.5-1.4-.7-2.5-.7-1.2 0-2.1.2-2.7.6-.5.4-.8.9-.8 1.4 0 .4.1.7.3 1 .2.3.6.5 1 .7.3.1 1.1.3 2.4.7 1.9.5 3.3.9 4 1.3.8.3 1.4.8 1.8 1.4.4.6.6 1.4.6 2.3 0 .9-.3 1.8-.8 2.6s-1.3 1.4-2.3 1.9c-1 .4-2.1.7-3.4.7-2.1 0-3.7-.4-4.8-1.3-.7-1.2-1.4-2.4-1.7-4.1zm22.5 2.3l.4 2.4c-.8.2-1.4.2-2.1.2-1 0-1.8-.2-2.3-.5s-.9-.7-1.1-1.2-.3-1.6-.3-3.2v-9.2h-2v-2.1h2v-4l2.7-1.6v5.6h2.7v2.1h-2.7v9.4c0 .8 0 1.3.1 1.5s.3.4.5.5.5.2.9.2c.3 0 .7 0 1.2-.1zm13.1.5c-1 .9-2 1.5-2.9 1.8-.9.4-1.9.5-3 .5-1.8 0-3.1-.4-4.1-1.3-.9-.9-1.4-2-1.4-3.3 0-.8.2-1.5.5-2.1.4-.7.8-1.2 1.4-1.6.6-.4 1.2-.7 2-.9.5-.1 1.3-.3 2.4-.4 2.2-.3 3.8-.6 4.8-.9v-.7c0-1.1-.3-1.9-.8-2.3-.7-.6-1.7-.9-3.1-.9-1.3 0-2.2.2-2.8.7-.6.4-1.1 1.2-1.4 2.4l-2.7-.4c.2-1.1.6-2.1 1.2-2.8s1.4-1.2 2.4-1.6c1-.4 2.3-.6 3.6-.6 1.4 0 2.5.2 3.3.5.9.3 1.5.7 1.9 1.2s.7 1.1.8 1.8c.1.5.1 1.3.1 2.5v3.6c0 2.5.1 4.1.2 4.8s.3 1.3.7 1.9h-2.8c0-.5-.2-1.2-.3-1.9zm-.2-6.1c-1 .4-2.5.7-4.4 1-1.1.2-1.9.3-2.4.5s-.8.5-1.1.9c-.3.4-.4.8-.4 1.3 0 .7.3 1.3.8 1.8s1.4.7 2.4.7 2-.2 2.8-.7 1.4-1.1 1.8-1.9c.3-.6.4-1.5.4-2.7v-.9h.1zm12.9 5.6l.4 2.4c-.8.2-1.4.2-2.1.2-1 0-1.8-.2-2.3-.5s-.9-.7-1.1-1.2-.3-1.6-.3-3.2v-9.2h-2v-2.1h2v-4l2.7-1.6v5.6h2.7v2.1h-2.7v9.4c0 .8 0 1.3.1 1.5s.3.4.5.5.5.2.9.2c.3 0 .7 0 1.2-.1zm2.6-16.6v-3.1h2.7v3.1h-2.7zm0 19v-16h2.7v16h-2.7zm5.9-8c0-3 .8-5.2 2.5-6.6 1.4-1.2 3.1-1.8 5-1.8 2.2 0 4 .7 5.4 2.2 1.4 1.4 2.1 3.4 2.1 6 0 2.1-.3 3.7-.9 4.9s-1.5 2.1-2.7 2.8-2.5 1-3.9 1c-2.2 0-4.1-.7-5.4-2.2-1.4-1.5-2.1-3.6-2.1-6.3zm2.8 0c0 2.1.4 3.6 1.3 4.6s2 1.5 3.4 1.5 2.5-.5 3.4-1.5 1.3-2.6 1.3-4.7c0-2-.4-3.5-1.4-4.5-.9-1-2-1.5-3.4-1.5s-2.5.5-3.4 1.5c-.8 1-1.2 2.6-1.2 4.6zm15.4 8v-16h2.4v2.3c1.2-1.8 2.9-2.6 5.1-2.6 1 0 1.9.2 2.7.5.8.4 1.4.8 1.8 1.4.4.6.7 1.2.8 2 .1.5.2 1.4.2 2.6v9.9h-2.7v-9.8c0-1.1-.1-1.9-.3-2.5s-.6-1-1.1-1.3-1.2-.5-1.9-.5c-1.2 0-2.2.4-3 1.1-.8.7-1.3 2.1-1.3 4.2v8.8l-2.7-.1zm27.7-1.9c-1 .9-2 1.5-2.9 1.8-.9.4-1.9.5-3 .5-1.8 0-3.1-.4-4.1-1.3-.9-.9-1.4-2-1.4-3.3 0-.8.2-1.5.5-2.1.4-.7.8-1.2 1.4-1.6.6-.4 1.2-.7 2-.9.5-.1 1.3-.3 2.4-.4 2.2-.3 3.8-.6 4.8-.9v-.7c0-1.1-.3-1.9-.8-2.3-.7-.6-1.7-.9-3.1-.9-1.3 0-2.2.2-2.8.7-.6.4-1.1 1.2-1.4 2.4l-2.7-.4c.2-1.1.6-2.1 1.2-2.8s1.4-1.2 2.4-1.6c1-.4 2.3-.6 3.6-.6 1.4 0 2.5.2 3.3.5.9.3 1.5.7 1.9 1.2s.7 1.1.8 1.8c.1.5.1 1.3.1 2.5v3.6c0 2.5.1 4.1.2 4.8s.3 1.3.7 1.9H507c-.1-.5-.3-1.2-.3-1.9zm-.3-6.1c-1 .4-2.5.7-4.4 1-1.1.2-1.9.3-2.4.5s-.8.5-1.1.9c-.3.4-.4.8-.4 1.3 0 .7.3 1.3.8 1.8s1.4.7 2.4.7 2-.2 2.8-.7 1.4-1.1 1.8-1.9c.3-.6.4-1.5.4-2.7v-.9h.1zm6.9 8v-22.1h2.7v22.1h-2.7zm11.8 0l8.5-22.1h3.2l9.1 22.1h-3.3l-2.6-6.7h-9.3l-2.4 6.7h-3.2zm6.4-9h7.5l-2.3-6.1c-.7-1.9-1.2-3.4-1.6-4.6-.3 1.4-.7 2.8-1.2 4.2l-2.4 6.5zm15.8 10.4l2.6.4c.1.8.4 1.4.9 1.8.7.5 1.6.8 2.8.8 1.3 0 2.2-.3 2.9-.8s1.1-1.2 1.4-2.1c.1-.6.2-1.7.2-3.5-1.2 1.4-2.7 2.1-4.4 2.1-2.2 0-3.9-.8-5.1-2.4-1.2-1.6-1.8-3.5-1.8-5.7 0-1.5.3-2.9.8-4.2.6-1.3 1.4-2.3 2.4-3 1.1-.7 2.3-1.1 3.7-1.1 1.9 0 3.5.8 4.7 2.3v-1.9h2.5v13.9c0 2.5-.3 4.3-.8 5.3s-1.3 1.9-2.4 2.5c-1.1.6-2.5.9-4.1.9-1.9 0-3.5-.4-4.6-1.3-1.2-1-1.8-2.3-1.7-4zm2.2-9.7c0 2.1.4 3.6 1.3 4.6.8 1 1.9 1.4 3.1 1.4 1.2 0 2.3-.5 3.1-1.4.8-1 1.3-2.5 1.3-4.5s-.4-3.4-1.3-4.4c-.9-1-1.9-1.5-3.1-1.5-1.2 0-2.2.5-3.1 1.5-.8.9-1.3 2.4-1.3 4.3zm26.5 3.2l2.8.3c-.4 1.6-1.3 2.9-2.5 3.8-1.2.9-2.7 1.4-4.6 1.4-2.3 0-4.2-.7-5.6-2.2-1.4-1.4-2.1-3.5-2.1-6.1 0-2.7.7-4.8 2.1-6.3 1.4-1.5 3.2-2.2 5.4-2.2 2.1 0 3.9.7 5.3 2.2 1.4 1.5 2 3.5 2 6.2v.7h-12c.1 1.8.6 3.1 1.5 4s2 1.4 3.4 1.4c1 0 1.8-.3 2.6-.8.7-.4 1.2-1.3 1.7-2.4zm-9-4.4h9c-.1-1.4-.5-2.4-1-3-.9-1-2-1.6-3.4-1.6-1.3 0-2.3.4-3.1 1.3-.9.8-1.4 1.9-1.5 3.3zm22.8 1.5c0-3 .8-5.2 2.5-6.6 1.4-1.2 3.1-1.8 5-1.8 2.2 0 4 .7 5.4 2.2 1.4 1.4 2.1 3.4 2.1 6 0 2.1-.3 3.7-.9 4.9-.6 1.2-1.5 2.1-2.7 2.8s-2.5 1-3.9 1c-2.2 0-4.1-.7-5.4-2.2-1.4-1.5-2.1-3.6-2.1-6.3zm2.8 0c0 2.1.4 3.6 1.3 4.6.9 1 2 1.5 3.4 1.5 1.3 0 2.5-.5 3.4-1.5s1.3-2.6 1.3-4.7c0-2-.4-3.5-1.3-4.5s-2-1.5-3.4-1.5-2.5.5-3.4 1.5-1.3 2.6-1.3 4.6zm15.4 8v-16h2.4v2.3c1.2-1.8 2.9-2.6 5.1-2.6 1 0 1.9.2 2.7.5.8.4 1.4.8 1.8 1.4.4.6.7 1.2.8 2 .1.5.2 1.4.2 2.6v9.9h-2.7v-9.8c0-1.1-.1-1.9-.3-2.5s-.6-1-1.1-1.3-1.2-.5-1.9-.5c-1.2 0-2.2.4-3 1.1-.8.7-1.3 2.1-1.3 4.2v8.8l-2.7-.1zm25.8 0v-22.1h2.7v7.9c1.3-1.5 2.9-2.2 4.8-2.2 1.2 0 2.2.2 3.1.7.9.5 1.5 1.1 1.9 1.9.4.8.6 2 .6 3.6v10.2h-2.7v-10.2c0-1.4-.3-2.3-.9-3-.6-.6-1.4-.9-2.5-.9-.8 0-1.6.2-2.3.6-.7.4-1.2 1-1.5 1.7s-.5 1.7-.5 3v8.8h-2.7zm28.1-5.1l2.8.3c-.4 1.6-1.3 2.9-2.5 3.8-1.2.9-2.7 1.4-4.6 1.4-2.3 0-4.2-.7-5.6-2.2-1.4-1.4-2.1-3.5-2.1-6.1 0-2.7.7-4.8 2.1-6.3 1.4-1.5 3.2-2.2 5.4-2.2 2.1 0 3.9.7 5.3 2.2 1.4 1.5 2 3.5 2 6.2v.7h-12c.1 1.8.6 3.1 1.5 4s2 1.4 3.4 1.4c1 0 1.8-.3 2.6-.8.8-.4 1.3-1.3 1.7-2.4zm-8.9-4.4h9c-.1-1.4-.5-2.4-1-3-.9-1-2-1.6-3.4-1.6-1.3 0-2.3.4-3.1 1.3-.9.8-1.4 1.9-1.5 3.3zm25.6 7.6c-1 .9-2 1.5-2.9 1.8-.9.4-1.9.5-3 .5-1.8 0-3.1-.4-4.1-1.3-.9-.9-1.4-2-1.4-3.3 0-.8.2-1.5.5-2.1.4-.7.8-1.2 1.4-1.6.6-.4 1.2-.7 2-.9.5-.1 1.3-.3 2.4-.4 2.2-.3 3.8-.6 4.8-.9v-.7c0-1.1-.3-1.9-.8-2.3-.7-.6-1.7-.9-3.1-.9-1.3 0-2.2.2-2.8.7-.6.4-1.1 1.2-1.4 2.4l-2.7-.4c.2-1.1.6-2.1 1.2-2.8.6-.7 1.4-1.2 2.4-1.6 1-.4 2.3-.6 3.6-.6 1.4 0 2.5.2 3.3.5.9.3 1.5.7 1.9 1.2s.7 1.1.8 1.8c.1.5.1 1.3.1 2.5v3.6c0 2.5.1 4.1.2 4.8.1.7.3 1.3.7 1.9h-2.8c0-.5-.2-1.2-.3-1.9zm-.2-6.1c-1 .4-2.5.7-4.4 1-1.1.2-1.9.3-2.4.5s-.8.5-1.1.9-.4.8-.4 1.3c0 .7.3 1.3.8 1.8s1.4.7 2.4.7 2-.2 2.8-.7 1.4-1.1 1.8-1.9c.3-.6.4-1.5.4-2.7v-.9h.1zm6.9 8v-22.1h2.7v22.1h-2.7zm12.9-2.4l.4 2.4c-.8.2-1.5.2-2.1.2-1 0-1.8-.2-2.3-.5s-.9-.7-1.1-1.2c-.2-.5-.3-1.6-.3-3.2v-9.2h-2v-2.1h2v-4l2.7-1.6v5.6h2.7v2.1h-2.7v9.4c0 .8 0 1.3.1 1.5s.3.4.5.5.5.2.9.2c.3 0 .7 0 1.2-.1zm2.6 2.4v-22.1h2.7v7.9c1.3-1.5 2.9-2.2 4.8-2.2 1.2 0 2.2.2 3.1.7.9.5 1.5 1.1 1.9 1.9.4.8.6 2 .6 3.6v10.2h-2.7v-10.2c0-1.4-.3-2.3-.9-3-.6-.6-1.4-.9-2.5-.9-.8 0-1.6.2-2.3.6-.7.4-1.2 1-1.5 1.7s-.5 1.7-.5 3v8.8h-2.7zm17.9 0v-3.1h3.1v3.1c0 1.1-.2 2.1-.6 2.8-.4.7-1 1.2-1.9 1.6l-.8-1.2c.6-.3 1-.6 1.3-1.1s.4-1.2.5-2.1h-1.6zm27.5-5.1l2.8.3c-.4 1.6-1.3 2.9-2.5 3.8-1.2.9-2.7 1.4-4.6 1.4-2.3 0-4.2-.7-5.6-2.2-1.4-1.4-2.1-3.5-2.1-6.1 0-2.7.7-4.8 2.1-6.3 1.4-1.5 3.2-2.2 5.4-2.2 2.1 0 3.9.7 5.3 2.2 1.4 1.5 2 3.5 2 6.2v.7h-12c.1 1.8.6 3.1 1.5 4s2 1.4 3.4 1.4c1 0 1.8-.3 2.6-.8.7-.4 1.3-1.3 1.7-2.4zm-8.9-4.4h9c-.1-1.4-.5-2.4-1-3-.9-1-2-1.6-3.4-1.6-1.3 0-2.3.4-3.1 1.3-1 .8-1.4 1.9-1.5 3.3zm25.5 9.5v-2c-1 1.6-2.5 2.4-4.5 2.4-1.3 0-2.5-.4-3.5-1.1-1.1-.7-1.9-1.7-2.5-3s-.9-2.7-.9-4.4c0-1.6.3-3.1.8-4.4.5-1.3 1.3-2.3 2.4-3 1.1-.7 2.3-1 3.6-1 1 0 1.8.2 2.6.6.8.4 1.4.9 1.8 1.6v-7.9h2.7v22.1l-2.5.1zm-8.6-8c0 2.1.4 3.6 1.3 4.6.9 1 1.9 1.5 3.1 1.5 1.2 0 2.2-.5 3-1.5s1.2-2.5 1.2-4.4c0-2.2-.4-3.8-1.3-4.8-.8-1-1.9-1.5-3.1-1.5-1.2 0-2.2.5-3 1.5s-1.2 2.5-1.2 4.6zm25.9 8v-2.4c-1.3 1.8-2.9 2.7-5.1 2.7-.9 0-1.8-.2-2.7-.5-.8-.4-1.4-.8-1.8-1.4-.4-.5-.7-1.2-.8-2-.1-.5-.2-1.4-.2-2.5v-9.9h2.7v8.9c0 1.4.1 2.4.2 2.9.2.7.5 1.3 1.1 1.7s1.2.6 2.1.6c.8 0 1.6-.2 2.3-.6.7-.4 1.2-1 1.5-1.7s.4-1.8.4-3.1v-8.6h2.7v16l-2.4-.1zm17.2-5.8l2.7.3c-.3 1.8-1 3.3-2.2 4.3s-2.7 1.6-4.4 1.6c-2.2 0-4-.7-5.3-2.2-1.3-1.4-2-3.5-2-6.2 0-1.7.3-3.2.9-4.5.6-1.3 1.4-2.3 2.6-2.9 1.2-.7 2.4-1 3.8-1 1.7 0 3.2.4 4.3 1.3 1.1.9 1.8 2.1 2.1 3.8l-2.6.4c-.3-1.1-.7-1.9-1.3-2.4s-1.4-.8-2.3-.8c-1.4 0-2.5.5-3.3 1.5-.9 1-1.3 2.5-1.3 4.7s.4 3.7 1.2 4.7 1.9 1.5 3.2 1.5c1.1 0 2-.3 2.7-1 .5-.8 1-1.8 1.2-3.1zm15.4 3.9c-1 .9-2 1.5-2.9 1.8-.9.4-1.9.5-3 .5-1.8 0-3.1-.4-4.1-1.3-.9-.9-1.4-2-1.4-3.3 0-.8.2-1.5.5-2.1.4-.7.8-1.2 1.4-1.6.6-.4 1.2-.7 2-.9.5-.1 1.3-.3 2.4-.4 2.2-.3 3.8-.6 4.8-.9v-.7c0-1.1-.3-1.9-.8-2.3-.7-.6-1.7-.9-3.1-.9-1.3 0-2.2.2-2.8.7-.6.4-1.1 1.2-1.4 2.4l-2.7-.4c.2-1.1.6-2.1 1.2-2.8.6-.7 1.4-1.2 2.4-1.6 1-.4 2.3-.6 3.6-.6 1.4 0 2.5.2 3.3.5.9.3 1.5.7 1.9 1.2s.7 1.1.8 1.8c.1.5.1 1.3.1 2.5v3.6c0 2.5.1 4.1.2 4.8.1.7.3 1.3.7 1.9H813c0-.5-.2-1.2-.3-1.9zm-.2-6.1c-1 .4-2.5.7-4.4 1-1.1.2-1.9.3-2.4.5s-.8.5-1.1.9-.4.8-.4 1.3c0 .7.3 1.3.8 1.8s1.4.7 2.4.7 2-.2 2.8-.7 1.4-1.1 1.8-1.9c.3-.6.4-1.5.4-2.7v-.9h.1zm12.9 5.6l.4 2.4c-.8.2-1.4.2-2.1.2-1 0-1.8-.2-2.3-.5s-.9-.7-1.1-1.2c-.2-.5-.3-1.6-.3-3.2v-9.2h-2v-2.1h2v-4l2.7-1.6v5.6h2.7v2.1h-2.7v9.4c0 .8 0 1.3.1 1.5s.3.4.5.5.5.2.9.2c.3 0 .7 0 1.2-.1zm2.7-16.6v-3.1h2.7v3.1h-2.7zm0 19v-16h2.7v16h-2.7zm5.8-8c0-3 .8-5.2 2.5-6.6 1.4-1.2 3.1-1.8 5-1.8 2.2 0 4 .7 5.4 2.2 1.4 1.4 2.1 3.4 2.1 6 0 2.1-.3 3.7-.9 4.9-.6 1.2-1.5 2.1-2.7 2.8s-2.5 1-3.9 1c-2.2 0-4.1-.7-5.4-2.2-1.4-1.5-2.1-3.6-2.1-6.3zm2.8 0c0 2.1.4 3.6 1.3 4.6.9 1 2 1.5 3.4 1.5s2.5-.5 3.4-1.5 1.3-2.6 1.3-4.7c0-2-.4-3.5-1.4-4.5-.9-1-2-1.5-3.4-1.5s-2.5.5-3.4 1.5c-.7 1-1.2 2.6-1.2 4.6zm15.4 8v-16h2.4v2.3c1.2-1.8 2.9-2.6 5.1-2.6 1 0 1.9.2 2.7.5.8.4 1.4.8 1.8 1.4.4.6.7 1.2.8 2 .1.5.2 1.4.2 2.6v9.9h-2.7v-9.8c0-1.1-.1-1.9-.3-2.5s-.6-1-1.1-1.3-1.2-.5-1.9-.5c-1.2 0-2.2.4-3 1.1-.8.7-1.3 2.1-1.3 4.2v8.8l-2.7-.1zm27.7-1.9c-1 .9-2 1.5-2.9 1.8-.9.4-1.9.5-3 .5-1.8 0-3.1-.4-4.1-1.3-.9-.9-1.4-2-1.4-3.3 0-.8.2-1.5.5-2.1.4-.7.8-1.2 1.4-1.6.6-.4 1.2-.7 2-.9.5-.1 1.3-.3 2.4-.4 2.2-.3 3.8-.6 4.8-.9v-.7c0-1.1-.3-1.9-.8-2.3-.7-.6-1.7-.9-3.1-.9-1.3 0-2.2.2-2.8.7-.6.4-1.1 1.2-1.4 2.4l-2.7-.4c.2-1.1.6-2.1 1.2-2.8.6-.7 1.4-1.2 2.4-1.6 1-.4 2.3-.6 3.6-.6 1.4 0 2.5.2 3.3.5.9.3 1.5.7 1.9 1.2s.7 1.1.8 1.8c.1.5.1 1.3.1 2.5v3.6c0 2.5.1 4.1.2 4.8.1.7.3 1.3.7 1.9h-2.8c0-.5-.2-1.2-.3-1.9zm-.2-6.1c-1 .4-2.5.7-4.4 1-1.1.2-1.9.3-2.4.5s-.8.5-1.1.9-.4.8-.4 1.3c0 .7.3 1.3.8 1.8s1.4.7 2.4.7 2-.2 2.8-.7 1.4-1.1 1.8-1.9c.3-.6.4-1.5.4-2.7v-.9h.1zm6.9 8v-22.1h2.7v22.1h-2.7zM71.8 275c-1 .9-2 1.5-2.9 1.8-.9.4-1.9.5-3 .5-1.8 0-3.1-.4-4.1-1.3-.9-.9-1.4-2-1.4-3.3 0-.8.2-1.5.5-2.1.4-.7.8-1.2 1.4-1.6.6-.4 1.2-.7 2-.9.5-.1 1.3-.3 2.4-.4 2.2-.3 3.8-.6 4.8-.9v-.7c0-1.1-.3-1.9-.8-2.3-.7-.6-1.7-.9-3.1-.9-1.3 0-2.2.2-2.8.7-.6.4-1.1 1.2-1.4 2.4l-2.7-.4c.2-1.1.6-2.1 1.2-2.8.6-.7 1.4-1.2 2.4-1.6s2.3-.6 3.6-.6c1.4 0 2.5.2 3.3.5.9.3 1.5.7 1.9 1.2s.7 1.1.8 1.8c.1.5.1 1.3.1 2.5v3.6c0 2.5.1 4.1.2 4.8.1.7.3 1.3.7 1.9h-2.8c0-.5-.2-1.2-.3-1.9zm-.2-6.1c-1 .4-2.5.7-4.4 1-1.1.2-1.9.3-2.4.5s-.8.5-1.1.9c-.3.4-.4.8-.4 1.3 0 .7.3 1.3.8 1.8s1.4.7 2.4.7 2-.2 2.8-.7 1.4-1.1 1.8-1.9c.3-.6.4-1.5.4-2.7l.1-.9zm7 8.1v-16H81v2.3c1.2-1.8 2.9-2.6 5.1-2.6 1 0 1.9.2 2.7.5.8.4 1.4.8 1.8 1.4s.7 1.2.8 2c.1.5.2 1.4.2 2.6v9.9h-2.7v-9.8c0-1.1-.1-1.9-.3-2.5-.2-.5-.6-1-1.1-1.3s-1.2-.5-1.9-.5c-1.2 0-2.2.4-3 1.1s-1.3 2.1-1.3 4.2v8.8h-2.7v-.1zm27.6 0v-2c-1 1.6-2.5 2.4-4.5 2.4-1.3 0-2.5-.4-3.5-1.1-1.1-.7-1.9-1.7-2.5-3s-.9-2.7-.9-4.4c0-1.6.3-3.1.8-4.4s1.3-2.3 2.4-3 2.3-1 3.6-1c1 0 1.8.2 2.6.6.8.4 1.4.9 1.8 1.6v-7.9h2.7V277h-2.5zm-8.6-8c0 2.1.4 3.6 1.3 4.6s1.9 1.5 3.1 1.5 2.2-.5 3-1.5 1.2-2.5 1.2-4.4c0-2.2-.4-3.8-1.3-4.8-.8-1-1.9-1.5-3.1-1.5s-2.2.5-3 1.5c-.8.9-1.2 2.4-1.2 4.6zm34.9 2.8l2.8.3c-.4 1.6-1.3 2.9-2.5 3.8s-2.7 1.4-4.6 1.4c-2.3 0-4.2-.7-5.6-2.2-1.4-1.4-2.1-3.5-2.1-6.1 0-2.7.7-4.8 2.1-6.3s3.2-2.2 5.4-2.2c2.1 0 3.9.7 5.3 2.2 1.4 1.5 2 3.5 2 6.2v.7h-12c.1 1.8.6 3.1 1.5 4s2 1.4 3.4 1.4c1 0 1.8-.3 2.6-.8.8-.4 1.3-1.3 1.7-2.4zm-8.9-4.4h9c-.1-1.4-.5-2.4-1-3-.9-1-2-1.6-3.4-1.6-1.2 0-2.3.4-3.1 1.3-.9.8-1.4 1.9-1.5 3.3zm25.6 3.7l2.7.3c-.3 1.8-1 3.3-2.2 4.3s-2.7 1.6-4.4 1.6c-2.2 0-4-.7-5.3-2.2-1.3-1.4-2-3.5-2-6.2 0-1.7.3-3.2.9-4.5.6-1.3 1.4-2.3 2.6-2.9 1.2-.7 2.4-1 3.8-1 1.7 0 3.2.4 4.3 1.3s1.8 2.1 2.1 3.8l-2.7.4c-.3-1.1-.7-1.9-1.3-2.4s-1.4-.8-2.3-.8c-1.4 0-2.5.5-3.3 1.5-.9 1-1.3 2.5-1.3 4.7s.4 3.7 1.2 4.7 1.9 1.5 3.2 1.5c1.1 0 2-.3 2.7-1 .7-.8 1.1-1.8 1.3-3.1zm4-2.2c0-3 .8-5.2 2.5-6.6 1.4-1.2 3.1-1.8 5-1.8 2.2 0 4 .7 5.4 2.2 1.4 1.4 2.1 3.4 2.1 6 0 2.1-.3 3.7-.9 4.9-.6 1.2-1.5 2.1-2.7 2.8-1.2.7-2.5 1-3.9 1-2.2 0-4.1-.7-5.4-2.2-1.4-1.5-2.1-3.6-2.1-6.3zm2.8 0c0 2.1.4 3.6 1.3 4.6.9 1 2 1.5 3.4 1.5 1.3 0 2.5-.5 3.4-1.5s1.3-2.6 1.3-4.7c0-2-.5-3.5-1.4-4.5s-2-1.5-3.4-1.5-2.5.5-3.4 1.5c-.8 1-1.2 2.6-1.2 4.6zm15.4 8.1v-16h2.4v2.3c1.2-1.8 2.9-2.6 5.1-2.6 1 0 1.9.2 2.7.5.8.4 1.4.8 1.8 1.4.4.6.7 1.2.8 2 .1.5.2 1.4.2 2.6v9.9h-2.7v-9.8c0-1.1-.1-1.9-.3-2.5-.2-.5-.6-1-1.1-1.3s-1.2-.5-1.9-.5c-1.2 0-2.2.4-3 1.1s-1.3 2.1-1.3 4.2v8.8h-2.7v-.1zm16.2-8.1c0-3 .8-5.2 2.5-6.6 1.4-1.2 3.1-1.8 5-1.8 2.2 0 4 .7 5.4 2.2 1.4 1.4 2.1 3.4 2.1 6 0 2.1-.3 3.7-.9 4.9-.6 1.2-1.5 2.1-2.7 2.8-1.2.7-2.5 1-3.9 1-2.2 0-4.1-.7-5.4-2.2-1.4-1.5-2.1-3.6-2.1-6.3zm2.8 0c0 2.1.4 3.6 1.3 4.6.9 1 2 1.5 3.4 1.5 1.3 0 2.5-.5 3.4-1.5s1.3-2.6 1.3-4.7c0-2-.5-3.5-1.4-4.5s-2-1.5-3.4-1.5-2.5.5-3.4 1.5c-.8 1-1.2 2.6-1.2 4.6zm15.4 8.1v-16h2.4v2.2c.5-.8 1.2-1.4 2-1.9s1.8-.7 2.9-.7c1.2 0 2.2.2 2.9.7.8.5 1.3 1.2 1.6 2.1 1.3-1.9 2.9-2.8 5-2.8 1.6 0 2.8.4 3.7 1.3s1.3 2.2 1.3 4.1v11h-2.7v-10.1c0-1.1-.1-1.9-.3-2.3-.2-.5-.5-.9-1-1.2-.5-.3-1-.4-1.6-.4-1.1 0-2.1.4-2.8 1.1-.7.8-1.1 1.9-1.1 3.6v9.3h-2.7v-10.4c0-1.2-.2-2.1-.7-2.7s-1.2-.9-2.2-.9c-.8 0-1.5.2-2.1.6s-1.1 1-1.4 1.8c-.3.8-.4 1.9-.4 3.4v8.3h-2.8v-.1zm25.8-19.1v-3.1h2.7v3.1h-2.7zm0 19.1v-16h2.7v16h-2.7zm17.3-5.9l2.7.3c-.3 1.8-1 3.3-2.2 4.3s-2.7 1.6-4.4 1.6c-2.2 0-4-.7-5.3-2.2-1.3-1.4-2-3.5-2-6.2 0-1.7.3-3.2.9-4.5.6-1.3 1.4-2.3 2.6-2.9 1.2-.7 2.4-1 3.8-1 1.7 0 3.2.4 4.3 1.3s1.8 2.1 2.1 3.8l-2.6.4c-.3-1.1-.7-1.9-1.3-2.4s-1.4-.8-2.3-.8c-1.4 0-2.5.5-3.3 1.5-.9 1-1.3 2.5-1.3 4.7s.4 3.7 1.2 4.7 1.9 1.5 3.2 1.5c1.1 0 2-.3 2.7-1 .6-.8 1-1.8 1.2-3.1zm12.6-2.2c0-3 .8-5.2 2.5-6.6 1.4-1.2 3.1-1.8 5-1.8 2.2 0 4 .7 5.4 2.2 1.4 1.4 2.1 3.4 2.1 6 0 2.1-.3 3.7-.9 4.9-.6 1.2-1.5 2.1-2.7 2.8-1.2.7-2.5 1-3.9 1-2.2 0-4.1-.7-5.4-2.2-1.4-1.5-2.1-3.6-2.1-6.3zm2.8 0c0 2.1.4 3.6 1.3 4.6s2 1.5 3.4 1.5c1.3 0 2.5-.5 3.4-1.5s1.3-2.6 1.3-4.7c0-2-.5-3.5-1.4-4.5s-2-1.5-3.4-1.5-2.5.5-3.4 1.5c-.8 1-1.2 2.6-1.2 4.6zm25.9 8.1v-2.4c-1.2 1.8-2.9 2.7-5.1 2.7-.9 0-1.8-.2-2.7-.5-.8-.4-1.4-.8-1.8-1.4-.4-.5-.7-1.2-.8-2-.1-.5-.2-1.4-.2-2.5V261h2.7v8.9c0 1.4.1 2.4.2 2.9.2.7.5 1.3 1.1 1.7.6.4 1.2.6 2.1.6.8 0 1.6-.2 2.3-.6.7-.4 1.2-1 1.5-1.7s.4-1.8.4-3.1v-8.6h2.7v16l-2.4-.1zm12.6-2.5l.4 2.4c-.8.2-1.4.2-2.1.2-1 0-1.8-.2-2.3-.5s-.9-.7-1.1-1.2-.3-1.6-.3-3.2V263h-2v-2.1h2v-4l2.7-1.6v5.6h2.7v2.1h-2.7v9.4c0 .8 0 1.3.1 1.5s.3.4.5.5.5.2.9.2c.3 0 .7 0 1.2-.1zm13.1-3.4l2.7.3c-.3 1.8-1 3.3-2.2 4.3s-2.7 1.6-4.4 1.6c-2.2 0-4-.7-5.3-2.2-1.3-1.4-2-3.5-2-6.2 0-1.7.3-3.2.9-4.5s1.4-2.3 2.6-2.9c1.2-.7 2.4-1 3.8-1 1.7 0 3.2.4 4.3 1.3 1.1.9 1.8 2.1 2.1 3.8l-2.6.4c-.3-1.1-.7-1.9-1.3-2.4-.6-.5-1.4-.8-2.3-.8-1.4 0-2.5.5-3.3 1.5-.9 1-1.3 2.5-1.3 4.7s.4 3.7 1.2 4.7c.8 1 1.9 1.5 3.2 1.5 1.1 0 2-.3 2.7-1 .6-.8 1.1-1.8 1.2-3.1zm4-2.2c0-3 .8-5.2 2.5-6.6 1.4-1.2 3.1-1.8 5-1.8 2.2 0 4 .7 5.4 2.2 1.4 1.4 2.1 3.4 2.1 6 0 2.1-.3 3.7-.9 4.9-.6 1.2-1.5 2.1-2.7 2.8-1.2.7-2.5 1-3.9 1-2.2 0-4.1-.7-5.4-2.2s-2.1-3.6-2.1-6.3zm2.8 0c0 2.1.4 3.6 1.3 4.6s2 1.5 3.4 1.5c1.3 0 2.5-.5 3.4-1.5s1.3-2.6 1.3-4.7c0-2-.5-3.5-1.4-4.5s-2-1.5-3.4-1.5-2.5.5-3.4 1.5c-.7 1-1.2 2.6-1.2 4.6zm15.4 8.1v-16h2.4v2.2c.5-.8 1.2-1.4 2-1.9s1.8-.7 2.9-.7c1.2 0 2.2.2 2.9.7.8.5 1.3 1.2 1.6 2.1 1.3-1.9 2.9-2.8 5-2.8 1.6 0 2.8.4 3.7 1.3.9.9 1.3 2.2 1.3 4.1v11h-2.7v-10.1c0-1.1-.1-1.9-.3-2.3-.2-.5-.5-.9-1-1.2-.5-.3-1-.4-1.6-.4-1.1 0-2.1.4-2.8 1.1-.7.8-1.1 1.9-1.1 3.6v9.3h-2.7v-10.4c0-1.2-.2-2.1-.7-2.7-.4-.6-1.2-.9-2.2-.9-.8 0-1.5.2-2.1.6s-1.1 1-1.4 1.8-.4 1.9-.4 3.4v8.3h-2.8v-.1zm36.8-5.2l2.8.3c-.4 1.6-1.3 2.9-2.5 3.8s-2.7 1.4-4.6 1.4c-2.3 0-4.2-.7-5.6-2.2-1.4-1.4-2.1-3.5-2.1-6.1 0-2.7.7-4.8 2.1-6.3s3.2-2.2 5.4-2.2c2.1 0 3.9.7 5.3 2.2s2 3.5 2 6.2v.7h-12c.1 1.8.6 3.1 1.5 4s2 1.4 3.4 1.4c1 0 1.8-.3 2.6-.8.7-.4 1.3-1.3 1.7-2.4zm-8.9-4.4h9c-.1-1.4-.5-2.4-1-3-.9-1-2-1.6-3.4-1.6-1.2 0-2.3.4-3.1 1.3-1 .8-1.4 1.9-1.5 3.3zm14 4.8l2.7-.4c.2 1.1.6 1.9 1.3 2.5.7.6 1.7.9 2.9.9s2.2-.3 2.8-.8c.6-.5.9-1.1.9-1.8 0-.6-.3-1.1-.8-1.4-.4-.2-1.3-.5-2.8-.9-2-.5-3.4-.9-4.1-1.3-.8-.4-1.4-.9-1.8-1.5-.4-.7-.6-1.4-.6-2.2 0-.7.2-1.4.5-2s.8-1.1 1.3-1.5c.4-.3 1-.6 1.7-.8.7-.2 1.5-.3 2.3-.3 1.3 0 2.4.2 3.3.5 1 .4 1.7.9 2.1 1.5.5.6.8 1.4.9 2.5l-2.7.4c-.1-.8-.5-1.5-1-1.9-.6-.5-1.4-.7-2.5-.7-1.2 0-2.1.2-2.7.6-.5.4-.8.9-.8 1.4 0 .4.1.7.3 1 .2.3.6.5 1 .7.3.1 1.1.3 2.4.7 1.9.5 3.3.9 4 1.3.8.3 1.4.8 1.8 1.4s.6 1.4.6 2.3-.3 1.8-.8 2.6-1.3 1.4-2.3 1.9c-1 .4-2.1.7-3.4.7-2.1 0-3.7-.4-4.8-1.3-.7-1.1-1.4-2.4-1.7-4.1zm17.3-8.2v-3.1h3.1v3.1h-3.1zm0 13v-3.1h3.1v3.1h-3.1zm26.9-2c-1 .9-2 1.5-2.9 1.8-.9.4-1.9.5-3 .5-1.8 0-3.1-.4-4.1-1.3-.9-.9-1.4-2-1.4-3.3 0-.8.2-1.5.5-2.1.4-.7.8-1.2 1.4-1.6s1.2-.7 2-.9c.5-.1 1.3-.3 2.4-.4 2.2-.3 3.8-.6 4.8-.9v-.7c0-1.1-.3-1.9-.8-2.3-.7-.6-1.7-.9-3.1-.9-1.3 0-2.2.2-2.8.7-.6.4-1.1 1.2-1.4 2.4l-2.7-.4c.2-1.1.6-2.1 1.2-2.8.6-.7 1.4-1.2 2.4-1.6s2.3-.6 3.6-.6c1.4 0 2.5.2 3.3.5.9.3 1.5.7 1.9 1.2s.7 1.1.8 1.8c.1.5.1 1.3.1 2.5v3.6c0 2.5.1 4.1.2 4.8.1.7.3 1.3.7 1.9h-2.8c0-.5-.2-1.2-.3-1.9zm-.2-6.1c-1 .4-2.5.7-4.4 1-1.1.2-1.9.3-2.4.5s-.8.5-1.1.9c-.3.4-.4.8-.4 1.3 0 .7.3 1.3.8 1.8s1.4.7 2.4.7 2-.2 2.8-.7 1.4-1.1 1.8-1.9c.3-.6.4-1.5.4-2.7v-.9h.1zm15.5 8.1v-22.1h2.7V277h-2.7zm5.9-8.1c0-3 .8-5.2 2.5-6.6 1.4-1.2 3.1-1.8 5-1.8 2.2 0 4 .7 5.4 2.2 1.4 1.4 2.1 3.4 2.1 6 0 2.1-.3 3.7-.9 4.9-.6 1.2-1.5 2.1-2.7 2.8-1.2.7-2.5 1-3.9 1-2.2 0-4.1-.7-5.4-2.2-1.4-1.5-2.1-3.6-2.1-6.3zm2.8 0c0 2.1.4 3.6 1.3 4.6s2 1.5 3.4 1.5 2.5-.5 3.4-1.5 1.3-2.6 1.3-4.7c0-2-.4-3.5-1.4-4.5-.9-1-2-1.5-3.4-1.5s-2.5.5-3.4 1.5c-.8 1-1.2 2.6-1.2 4.6zm15.4 8.1v-16h2.4v2.3c1.2-1.8 2.9-2.6 5.1-2.6 1 0 1.9.2 2.7.5.8.4 1.4.8 1.8 1.4s.7 1.2.8 2c.1.5.2 1.4.2 2.6v9.9h-2.7v-9.8c0-1.1-.1-1.9-.3-2.5-.2-.5-.6-1-1.1-1.3s-1.2-.5-1.9-.5c-1.2 0-2.2.4-3 1.1s-1.3 2.1-1.3 4.2v8.8h-2.7v-.1zm16.7 1.3l2.6.4c.1.8.4 1.4.9 1.8.7.5 1.6.8 2.8.8 1.3 0 2.2-.3 2.9-.8.7-.5 1.1-1.2 1.4-2.1.1-.6.2-1.7.2-3.5-1.2 1.4-2.7 2.1-4.4 2.1-2.2 0-3.9-.8-5.1-2.4s-1.8-3.5-1.8-5.7c0-1.5.3-2.9.8-4.2.6-1.3 1.4-2.3 2.4-3 1.1-.7 2.3-1.1 3.7-1.1 1.9 0 3.5.8 4.7 2.3V261h2.5v13.9c0 2.5-.3 4.3-.8 5.3s-1.3 1.9-2.4 2.5-2.5.9-4.1.9c-1.9 0-3.5-.4-4.6-1.3-1.2-1-1.7-2.3-1.7-4zm2.3-9.6c0 2.1.4 3.6 1.3 4.6.8 1 1.9 1.4 3.1 1.4s2.3-.5 3.1-1.4c.8-1 1.3-2.5 1.3-4.5s-.4-3.4-1.3-4.4-1.9-1.5-3.1-1.5-2.2.5-3.1 1.5c-.9.9-1.3 2.3-1.3 4.3zm15.4-10.8v-3.1h2.7v3.1H498zm0 19.1v-16h2.7v16H498zm12.8-2.5l.4 2.4c-.8.2-1.4.2-2.1.2-1 0-1.8-.2-2.3-.5s-.9-.7-1.1-1.2-.3-1.6-.3-3.2V263h-2v-2.1h2v-4l2.7-1.6v5.6h2.7v2.1h-2.7v9.4c0 .8 0 1.3.1 1.5s.3.4.5.5.5.2.9.2c.3 0 .7 0 1.2-.1zM524 277v-2.4c-1.3 1.8-2.9 2.7-5.1 2.7-.9 0-1.8-.2-2.7-.5-.8-.4-1.4-.8-1.8-1.4-.4-.5-.7-1.2-.8-2-.1-.5-.2-1.4-.2-2.5V261h2.7v8.9c0 1.4.1 2.4.2 2.9.2.7.5 1.3 1.1 1.7.6.4 1.2.6 2.1.6.8 0 1.6-.2 2.3-.6s1.2-1 1.5-1.7.4-1.8.4-3.1v-8.6h2.7v16l-2.4-.1zm17.1 0v-2c-1 1.6-2.5 2.4-4.5 2.4-1.3 0-2.5-.4-3.5-1.1-1.1-.7-1.9-1.7-2.5-3s-.9-2.7-.9-4.4c0-1.6.3-3.1.8-4.4s1.3-2.3 2.4-3c1.1-.7 2.3-1 3.6-1 1 0 1.8.2 2.6.6s1.4.9 1.8 1.6v-7.9h2.7V277h-2.5zm-8.6-8c0 2.1.4 3.6 1.3 4.6.9 1 1.9 1.5 3.1 1.5 1.2 0 2.2-.5 3-1.5s1.2-2.5 1.2-4.4c0-2.2-.4-3.8-1.3-4.8-.8-1-1.9-1.5-3.1-1.5-1.2 0-2.2.5-3 1.5-.8.9-1.2 2.4-1.2 4.6zm15.4-11.1v-3.1h2.7v3.1h-2.7zm0 19.1v-16h2.7v16h-2.7zm6.8 0v-16h2.4v2.3c1.2-1.8 2.9-2.6 5.1-2.6 1 0 1.9.2 2.7.5.8.4 1.4.8 1.8 1.4.4.6.7 1.2.8 2 .1.5.2 1.4.2 2.6v9.9H565v-9.8c0-1.1-.1-1.9-.3-2.5-.2-.5-.6-1-1.1-1.3s-1.2-.5-1.9-.5c-1.2 0-2.2.4-3 1.1s-1.3 2.1-1.3 4.2v8.8h-2.7v-.1zm27.7-2c-1 .9-2 1.5-2.9 1.8-.9.4-1.9.5-3 .5-1.8 0-3.1-.4-4.1-1.3-.9-.9-1.4-2-1.4-3.3 0-.8.2-1.5.5-2.1.4-.7.8-1.2 1.4-1.6.6-.4 1.2-.7 2-.9.5-.1 1.3-.3 2.4-.4 2.2-.3 3.8-.6 4.8-.9v-.7c0-1.1-.3-1.9-.8-2.3-.7-.6-1.7-.9-3.1-.9-1.3 0-2.2.2-2.8.7-.6.4-1.1 1.2-1.4 2.4l-2.7-.4c.2-1.1.6-2.1 1.2-2.8.6-.7 1.4-1.2 2.4-1.6s2.3-.6 3.6-.6c1.4 0 2.5.2 3.3.5.9.3 1.5.7 1.9 1.2s.7 1.1.8 1.8c.1.5.1 1.3.1 2.5v3.6c0 2.5.1 4.1.2 4.8.1.7.3 1.3.7 1.9H583c-.3-.5-.5-1.2-.6-1.9zm-.2-6.1c-1 .4-2.5.7-4.4 1-1.1.2-1.9.3-2.4.5s-.8.5-1.1.9-.4.8-.4 1.3c0 .7.3 1.3.8 1.8s1.4.7 2.4.7 2-.2 2.8-.7 1.4-1.1 1.8-1.9c.3-.6.4-1.5.4-2.7v-.9h.1zm6.9 8.1v-22.1h2.7V277h-2.7zm15.9 0v-22.1h9.8c2 0 3.5.2 4.5.6 1 .4 1.8 1.1 2.5 2.1.6 1 .9 2.1.9 3.3 0 1.6-.5 2.9-1.5 4s-2.6 1.8-4.7 2.1c.8.4 1.4.7 1.8 1.1.9.8 1.7 1.8 2.4 2.9l3.9 6h-3.7l-2.9-4.6c-.9-1.3-1.6-2.3-2.1-3.1-.6-.7-1-1.2-1.5-1.5-.4-.3-.9-.5-1.3-.6-.3-.1-.9-.1-1.6-.1h-3.4v9.8H605v.1zm2.9-12.4h6.3c1.3 0 2.4-.1 3.1-.4.8-.3 1.3-.7 1.7-1.3.4-.6.6-1.3.6-2 0-1-.4-1.9-1.1-2.6-.8-.7-2-1-3.6-1h-7v7.3zm30 7.2l2.8.3c-.4 1.6-1.3 2.9-2.5 3.8s-2.7 1.4-4.6 1.4c-2.3 0-4.2-.7-5.6-2.2-1.4-1.4-2.1-3.5-2.1-6.1 0-2.7.7-4.8 2.1-6.3 1.4-1.5 3.2-2.2 5.4-2.2 2.1 0 3.9.7 5.3 2.2 1.4 1.5 2 3.5 2 6.2v.7h-12c.1 1.8.6 3.1 1.5 4s2 1.4 3.4 1.4c1 0 1.8-.3 2.6-.8.7-.4 1.3-1.3 1.7-2.4zm-8.9-4.4h9c-.1-1.4-.5-2.4-1-3-.9-1-2-1.6-3.4-1.6-1.3 0-2.3.4-3.1 1.3-.9.8-1.4 1.9-1.5 3.3zm25.6 3.7l2.7.3c-.3 1.8-1 3.3-2.2 4.3s-2.7 1.6-4.4 1.6c-2.2 0-4-.7-5.3-2.2-1.3-1.4-2-3.5-2-6.2 0-1.7.3-3.2.9-4.5.6-1.3 1.4-2.3 2.6-2.9 1.2-.7 2.4-1 3.8-1 1.7 0 3.2.4 4.3 1.3s1.8 2.1 2.1 3.8l-2.6.4c-.3-1.1-.7-1.9-1.3-2.4s-1.4-.8-2.3-.8c-1.4 0-2.5.5-3.3 1.5-.9 1-1.3 2.5-1.3 4.7s.4 3.7 1.2 4.7 1.9 1.5 3.2 1.5c1.1 0 2-.3 2.7-1 .6-.8 1-1.8 1.2-3.1zm4-2.2c0-3 .8-5.2 2.5-6.6 1.4-1.2 3.1-1.8 5-1.8 2.2 0 4 .7 5.4 2.2 1.4 1.4 2.1 3.4 2.1 6 0 2.1-.3 3.7-.9 4.9-.6 1.2-1.5 2.1-2.7 2.8-1.2.7-2.5 1-3.9 1-2.2 0-4.1-.7-5.4-2.2-1.4-1.5-2.1-3.6-2.1-6.3zm2.8 0c0 2.1.4 3.6 1.3 4.6.9 1 2 1.5 3.4 1.5s2.5-.5 3.4-1.5 1.3-2.6 1.3-4.7c0-2-.4-3.5-1.4-4.5-.9-1-2-1.5-3.4-1.5s-2.5.5-3.4 1.5c-.8 1-1.2 2.6-1.2 4.6zm15.4 8.1v-16h2.4v2.4c.6-1.1 1.2-1.9 1.7-2.3s1.1-.5 1.7-.5c.9 0 1.8.3 2.8.9l-.9 2.5c-.7-.4-1.3-.6-2-.6-.6 0-1.1.2-1.6.5-.5.4-.8.9-1 1.5-.3 1-.5 2-.5 3.2v8.4h-2.6zm20.7 0v-2c-1 1.6-2.5 2.4-4.5 2.4-1.3 0-2.5-.4-3.5-1.1-1.1-.7-1.9-1.7-2.5-3s-.9-2.7-.9-4.4c0-1.6.3-3.1.8-4.4s1.3-2.3 2.4-3c1.1-.7 2.3-1 3.6-1 1 0 1.8.2 2.6.6s1.4.9 1.8 1.6v-7.9h2.7V277h-2.5zm-8.6-8c0 2.1.4 3.6 1.3 4.6.9 1 1.9 1.5 3.1 1.5 1.2 0 2.2-.5 3-1.5s1.2-2.5 1.2-4.4c0-2.2-.4-3.8-1.3-4.8-.8-1-1.9-1.5-3.1-1.5-1.2 0-2.2.5-3 1.5-.8.9-1.2 2.4-1.2 4.6zm23.9 8v-22.1h2.7V277h-2.7zm7-19.1v-3.1h2.7v3.1h-2.7zm0 19.1v-16h2.7v16h-2.7zm6.8 0v-16h2.4v2.3c1.2-1.8 2.9-2.6 5.1-2.6 1 0 1.9.2 2.7.5.8.4 1.4.8 1.8 1.4.4.6.7 1.2.8 2 .1.5.2 1.4.2 2.6v9.9h-2.7v-9.8c0-1.1-.1-1.9-.3-2.5-.2-.5-.6-1-1.1-1.3s-1.2-.5-1.9-.5c-1.2 0-2.2.4-3 1.1s-1.3 2.1-1.3 4.2v8.8h-2.7v-.1zm17.2 0v-22.1h2.7v12.6l6.4-6.5h3.5l-6.1 6 6.7 10.1h-3.4l-5.3-8.2-1.9 1.8v6.4l-2.6-.1zm26-2c-1 .9-2 1.5-2.9 1.8-.9.4-1.9.5-3 .5-1.8 0-3.1-.4-4.1-1.3-.9-.9-1.4-2-1.4-3.3 0-.8.2-1.5.5-2.1.4-.7.8-1.2 1.4-1.6.6-.4 1.2-.7 2-.9.5-.1 1.3-.3 2.4-.4 2.2-.3 3.8-.6 4.8-.9v-.7c0-1.1-.3-1.9-.8-2.3-.7-.6-1.7-.9-3.1-.9-1.3 0-2.2.2-2.8.7-.6.4-1.1 1.2-1.4 2.4l-2.7-.4c.2-1.1.6-2.1 1.2-2.8.6-.7 1.4-1.2 2.4-1.6s2.3-.6 3.6-.6c1.4 0 2.5.2 3.3.5.9.3 1.5.7 1.9 1.2s.7 1.1.8 1.8c.1.5.1 1.3.1 2.5v3.6c0 2.5.1 4.1.2 4.8.1.7.3 1.3.7 1.9h-2.8c-.1-.5-.3-1.2-.3-1.9zm-.3-6.1c-1 .4-2.5.7-4.4 1-1.1.2-1.9.3-2.4.5s-.8.5-1.1.9-.4.8-.4 1.3c0 .7.3 1.3.8 1.8s1.4.7 2.4.7 2-.2 2.8-.7 1.4-1.1 1.8-1.9c.3-.6.4-1.5.4-2.7v-.9h.1zm6.5 9.4l2.6.4c.1.8.4 1.4.9 1.8.7.5 1.6.8 2.8.8 1.3 0 2.2-.3 2.9-.8s1.1-1.2 1.4-2.1c.1-.6.2-1.7.2-3.5-1.2 1.4-2.7 2.1-4.4 2.1-2.2 0-3.9-.8-5.1-2.4-1.2-1.6-1.8-3.5-1.8-5.7 0-1.5.3-2.9.8-4.2.6-1.3 1.4-2.3 2.4-3 1.1-.7 2.3-1.1 3.7-1.1 1.9 0 3.5.8 4.7 2.3V261h2.5v13.9c0 2.5-.3 4.3-.8 5.3s-1.3 1.9-2.4 2.5c-1.1.6-2.5.9-4.1.9-1.9 0-3.5-.4-4.6-1.3-1.2-1-1.7-2.3-1.7-4zm2.2-9.6c0 2.1.4 3.6 1.3 4.6.8 1 1.9 1.4 3.1 1.4 1.2 0 2.3-.5 3.1-1.4.8-1 1.3-2.5 1.3-4.5s-.4-3.4-1.3-4.4c-.9-1-1.9-1.5-3.1-1.5-1.2 0-2.2.5-3.1 1.5-.8.9-1.3 2.3-1.3 4.3zm26.5 3.1l2.8.3c-.4 1.6-1.3 2.9-2.5 3.8s-2.7 1.4-4.6 1.4c-2.3 0-4.2-.7-5.6-2.2-1.4-1.4-2.1-3.5-2.1-6.1 0-2.7.7-4.8 2.1-6.3 1.4-1.5 3.2-2.2 5.4-2.2 2.1 0 3.9.7 5.3 2.2 1.4 1.5 2 3.5 2 6.2v.7h-12c.1 1.8.6 3.1 1.5 4s2 1.4 3.4 1.4c1 0 1.8-.3 2.6-.8.7-.4 1.3-1.3 1.7-2.4zm-9-4.4h9c-.1-1.4-.5-2.4-1-3-.9-1-2-1.6-3.4-1.6-1.3 0-2.3.4-3.1 1.3-.9.8-1.4 1.9-1.5 3.3zm22.7 4.8l2.7-.4c.2 1.1.6 1.9 1.3 2.5s1.7.9 2.9.9c1.3 0 2.2-.3 2.8-.8s.9-1.1.9-1.8c0-.6-.3-1.1-.8-1.4-.4-.2-1.3-.5-2.8-.9-2-.5-3.4-.9-4.1-1.3-.8-.4-1.4-.9-1.8-1.5-.4-.7-.6-1.4-.6-2.2 0-.7.2-1.4.5-2s.8-1.1 1.3-1.5c.4-.3 1-.6 1.7-.8.7-.2 1.5-.3 2.3-.3 1.3 0 2.4.2 3.3.5 1 .4 1.7.9 2.1 1.5.5.6.8 1.4.9 2.5l-2.7.4c-.1-.8-.5-1.5-1.1-1.9-.6-.5-1.4-.7-2.5-.7-1.3 0-2.1.2-2.7.6-.5.4-.8.9-.8 1.4 0 .4.1.7.3 1s.6.5 1 .7c.3.1 1.1.3 2.4.7 1.9.5 3.3.9 4 1.3.8.3 1.4.8 1.8 1.4.4.6.6 1.4.6 2.3s-.3 1.8-.8 2.6-1.3 1.4-2.3 1.9c-1 .4-2.1.7-3.4.7-2.1 0-3.7-.4-4.8-1.3-.6-1.1-1.3-2.4-1.6-4.1zm22.5 2.3l.4 2.4c-.8.2-1.4.2-2.1.2-1 0-1.8-.2-2.3-.5s-.9-.7-1.1-1.2c-.2-.5-.3-1.6-.3-3.2V263h-2v-2.1h2v-4l2.7-1.6v5.6h2.7v2.1h-2.7v9.4c0 .8 0 1.3.1 1.5s.3.4.5.5.5.2.9.2c.3 0 .7 0 1.2-.1zm13.2 2.5v-2.4c-1.2 1.8-2.9 2.7-5.1 2.7-.9 0-1.8-.2-2.6-.5-.8-.4-1.4-.8-1.8-1.4-.4-.5-.7-1.2-.8-2-.1-.5-.2-1.4-.2-2.5V261h2.7v8.9c0 1.4.1 2.4.2 2.9.2.7.5 1.3 1.1 1.7.6.4 1.2.6 2.1.6.8 0 1.6-.2 2.3-.6s1.2-1 1.5-1.7.4-1.8.4-3.1v-8.6h2.7v16l-2.5-.1zm17 0v-2c-1 1.6-2.5 2.4-4.5 2.4-1.3 0-2.5-.4-3.5-1.1-1.1-.7-1.9-1.7-2.5-3s-.9-2.7-.9-4.4c0-1.6.3-3.1.8-4.4s1.3-2.3 2.4-3c1.1-.7 2.3-1 3.6-1 1 0 1.8.2 2.6.6s1.4.9 1.8 1.6v-7.9h2.7V277h-2.5zm-8.5-8c0 2.1.4 3.6 1.3 4.6.9 1 1.9 1.5 3.1 1.5 1.2 0 2.2-.5 3-1.5s1.2-2.5 1.2-4.4c0-2.2-.4-3.8-1.3-4.8-.8-1-1.9-1.5-3.1-1.5-1.2 0-2.2.5-3 1.5-.8.9-1.2 2.4-1.2 4.6zm15.2 14.1l-.3-2.6c.6.2 1.1.2 1.6.2.6 0 1.1-.1 1.4-.3.4-.2.7-.5.9-.8s.4-1 .8-2c.1-.2.1-.4.2-.7l-6.1-16.1h2.9l3.3 9.3c.4 1.2.8 2.4 1.2 3.7.3-1.2.7-2.5 1.1-3.7l3.4-9.3h2.7l-6.1 16.3c-.7 1.8-1.2 3-1.5 3.6-.5.9-1 1.5-1.7 2-.6.4-1.4.6-2.2.6-.4.2-.9.1-1.6-.2z"/></svg>