<svg xmlns="http://www.w3.org/2000/svg" width="892.2" height="283.5" viewBox="0 0 892.2 283.5"><path fill="#009A96" d="M646.4 259.5c.7 4.7 2.9 9.1 6.5 12.8 3.2 3.3 9 7.6 18.3 9.7 4 .9 8.3 1.4 12.8 1.5 5.4.1 9.6-.3 13.2-1.1 4.4-.9 8.8-2.2 13.1-3.8 1.9-.7 4.1-1.6 6.1-2.6 1.5-.8 3-1.6 4.4-2.5-1.5-4.3-4.6-8.1-9.1-11.1-5.2-3.5-12-6-19.6-7.3-3.9-.7-8-1-12-1-4.9-.1-8.7 0-12.3.4-3.5.4-7.1 1-11.8 2.2-3.3.7-6.6 1.7-9.6 2.8z"/><path fill="#88CCCB" d="M698.3 239.4c1.5 4.3 4.4 8.1 8.3 10.8 4.8 3.4 11.3 5.5 18.8 6 7.2.7 15.1-.6 24.3-3.9 2-.7 4-1.5 6-2.4 1.6-.7 3.1-1.6 4.7-2.6l.9-.5c3.1-2 6.1-4.1 8.9-6.4-4.6-8.2-15.5-12.8-29.6-12.6-7.7-.2-15.3 1-22.7 3.4h-.1c-6.9 1.7-13.4 4.5-19.5 8.2z"/><path fill="#009A96" d="M743 212.3c4.6 8.4 15 12.8 28.1 11.8 7.2-.8 14.9-3.3 22.2-7.1 6.5-3.8 12.5-8.7 17.3-14-5.5-6.9-16.4-9.9-29.7-7.8-7.9 1.4-15 3.6-21 6.5-1.6.8-3.2 1.6-4.8 2.6l-2.3 1.4c-.9.5-1.6.9-2.4 1.4-2.6 1.6-5.1 3.3-7.4 5.2z"/><path fill="#88CCCB" d="M783.2 178.3c5.6 7.2 16.1 9.8 27.8 6.7 3.4-.9 6.9-2.1 10.3-3.8 1.6-.7 3.2-1.6 4.8-2.7 1.6-1 3.1-2.2 4.6-3.3 6.3-5 11.1-10.2 14.3-15.4-2.8-2.6-6.6-4.3-11.1-5-2.5-.4-5.3-.4-8.2 0-3.1.3-6.3.9-9.6 1.9-12.4 3.9-24.3 11.8-32.9 21.6z"/><path fill="#009A96" d="M863.7 132.2c-1.7 1.7-3.4 3.3-5.2 4.8v100.3c0 7.1-5.8 12.9-12.9 12.9h-82.3l-.8.5c-1.6 1-3.3 2-5.1 2.8-2 .9-4.1 1.8-6.2 2.5-2 .7-4 1.3-5.9 1.9h100.4c11.4 0 20.6-9.2 20.6-20.6V129.6c-.9.9-1.7 1.8-2.6 2.6zM816.8 139.2c6.2 5.8 16.2 6.7 27.1 2.3 1.8-.7 3.3-1.4 4.6-2.2 1.4-.8 2.9-1.8 4.3-2.8 2.8-2 5.5-4.4 8.1-7 4.4-4.3 8.1-9.8 11.1-16.4-6.6-4.4-16.6-4-27.3 1.3h-.1c-5.9 2.7-11.4 6.5-16.2 11.2-5 4.6-8.8 9.1-11.6 13.6z"/><path fill="#88CCCB" d="M844.7 94.2c2.9 1.9 6.4 2.9 10.3 2.9 5.1-.1 10.5-1.8 15.1-4.8 5.4-3.4 10.3-8.2 14.3-13.8 3.4-5.2 6.1-11 7.8-16.9-6.8-3.1-16.1-1.2-25.4 5.3-2.1 1.4-3.9 3.1-5.9 4.8-.4.4-.9.8-1.3 1.2-2.3 2.1-4.4 4.4-6.4 6.9-1.9 2.4-3.6 5-5.1 7.7-1.2 2.3-2.5 4.5-3.4 6.7z"/><path fill="#009A96" d="M671.8 179.2c-.9.4-1.7.8-2.6 1.3l-1.2.6-3 1.5c-2.6 1.5-5.2 3.3-7.5 5.4l-1.5 1.5c-1.9 1.8-3.7 3.5-5.4 5.4-2.2 2.5-4.1 5.3-5.8 8.3-3.6 6.4-5.8 12.2-6.5 17.8-.7 5.3-.2 10.2 1.5 14.4 3-.6 5.9-1.5 8.7-2.7 3-1.3 6.1-3.1 9.5-5.4 3.4-2.4 6-4.7 8.2-7.1 2.4-2.8 4.4-5.9 6.1-9 3.2-6.1 4.6-12.3 4.1-18.2-.4-5.1-1.9-9.8-4.6-13.8z"/><path fill="#88CCCB" d="M708.6 158.5c-2 1.2-4 2.7-5.8 4.3-.6.5-1.2 1.1-1.8 1.7-.5.5-1 1-1.6 1.5-1.1 1-2.1 2.1-3.1 3.2-3.5 4.1-6.8 9.6-9.7 16.6-2.3 5.9-3.4 12.1-3.1 17.8.3 5.2 1.5 9.5 3.8 13.2 5.5-2.4 11-6 15.8-10.6 5-5.4 8.7-11.4 10.9-17.6 3.6-11.6 1.6-22.5-5.4-30.1z"/><path fill="#009A96" d="M740.3 133.8c-4 3.3-7.4 7.3-10 12l-.1.1c-3.3 5.1-5.6 10.8-6.8 17-2.6 11.6-.7 22.3 5.2 28.9 2.3-1.4 4.5-3.1 6.6-4.9.6-.5 1.2-1.1 1.9-1.7.5-.5 1.1-1.2 1.6-1.8 1.1-1.3 2.1-2.6 3.1-4 4.4-6.2 6.9-12.1 7.7-18.1 1.7-11.4-1.6-21.3-9.2-27.5z"/><path fill="#88CCCB" d="M768.3 104.1c-2.7 3.4-5.8 7.7-7.9 12.7-.5 1.3-1 2.7-1.4 4.1l-1.2 4.4c-.7 2.8-1.2 5.8-1.4 8.8-.5 11.6 2.8 21.1 9.2 26.4 9.2-8 15.1-20.3 15.1-31.8.1-3-.2-5.9-.9-8.6-.7-2.5-1.7-5-3-7.2-2.1-3.8-5.1-6.7-8.5-8.8z"/><path fill="#009A96" d="M791.2 71c-2.7 4.3-4.3 9.2-5.5 13.2-.7 2.6-1.1 5.3-1.3 8.1-.1 1.4-.1 2.9-.1 4.3 0 1.3 0 2.8.1 4.3.8 10.5 5.5 19.2 12.3 23.4 3.7-4.5 6.3-9.3 7.9-14.1 1.8-6 2.4-12.2 1.7-17.8-1.5-10.2-7.1-18.1-15.1-21.4z"/><path fill="#88CCCB" d="M809.5 33.9c-1.8 3.9-2.8 8.3-3.1 12.9v.1c-.6 5.4-.2 10.7 1.2 15.7 1.6 5.7 3.7 10 6.4 13.4 2.4 3 5.4 5.3 8.5 6.6 1.1-1.7 2.2-3.8 3.1-6 .9-2.7 1.6-5.5 2.1-8.3.5-2.9.6-5.7.5-8.5 0-2.9-.9-5.9-1.6-8.3-3-9.4-9.2-15.7-17.1-17.6z"/><path fill="#009A96" d="M843.5 70l-2.1.9-.8-2.1c-.4-1.1-.7-2.2-1-3.3C800 164.8 710.5 236.6 604.1 250c-1 .1-9 .2-19 .2H21.6c-7.6 0-13.7-6.1-13.7-13.7V30.1c0-7.6 6.1-13.7 13.7-13.7H846c1.3-2.6 2.6-5 3.9-7.3.1-.2.3-.4.4-.6H21.6C9.7 8.5 0 18.2 0 30.1v206.4C0 248.3 9.7 258 21.6 258H585c7.2 0 18.3 0 19.9-.2 62.9-7.9 120.6-35.1 166.9-78.5 33.1-31.1 58.6-68.8 75.3-111-1.1.6-2.3 1.1-3.6 1.7z"/><path fill="#009A96" d="M863.3 0c-3.6 3-6.9 6.8-9.7 11.3-3 5.2-6.3 11.5-8.4 18.7-.5 1.7-.9 3.5-1.3 5.2l-.2 1.1c-.3 1.4-.5 2.8-.8 4.2-.6 3.2-.9 6.5-.9 9.7 0 3.1.2 6.2.7 9.1.3 1.9.7 3.9 1.2 5.7 1.9-1 3.5-2 4.8-3.1 2.3-1.9 4.4-4.1 6.5-6.7 2.1-2.6 4.1-5.6 5.8-8.7.9-1.5 1.6-3.1 2.3-4.9.7-1.8 1.3-3.7 1.8-5.5 2.3-8.2 3.1-15.4 2.2-21.4-.5-5.8-1.9-10.7-4-14.7zM39.5 67.8h13.8l27.4 96.7 38.5-96.7h2.8l38 96.7 27.9-96.7h13.7L163 201.9h-2.5l-39.8-101.5-40.6 101.5h-2.5L39.5 67.8zM220.2 67.8h13.4V124H302V67.8h13.4V202H302v-64.8h-68.3V202h-13.4V67.8h-.1zM346.3 67.8h76.9v13.1h-63.5v42h62.9V136h-62.9v52.7h62.9v13.1h-76.3v-134zM502.2 67.8L564.8 202h-14.5l-21.1-44.1h-57.8L450.5 202h-15l63.4-134.2h3.3zm-1.7 28.5l-23 48.6h45.9l-22.9-48.6zM559.2 80.9V67.8h73.5v13.1h-29.9v121h-13.7v-121h-29.9z"/></svg>