<svg xmlns="http://www.w3.org/2000/svg" width="283.5" height="48.2" viewBox="0 0 283.5 48.2"><path d="M14.2 1.8H12v14.6L3.4 1.8H.9v18.3h2.3L3.1 5.5l8.7 14.6h2.4zM30.4 6.8h-2.3v10.5c-.2.2-.6.4-1.2.6-.8.4-1.6.5-2.3.5-.8 0-1.4-.2-1.9-.7-.3-.3-.5-.8-.6-1.3-.1-.4-.1-1.1-.1-2.1V6.8h-2.3v7.7c0 1.3.1 2.2.2 2.7.2.8.5 1.5 1.1 2.1.7.7 1.8 1.1 3.2 1.1 1.4 0 2.8-.4 4.1-1.3v1h2.1V6.8zM55.2 1.6c-.3-.3-.6-.4-1-.4s-.7.1-1 .4c-.3.3-.4.6-.4 1s.1.7.4 1c.3.3.6.4 1 .4s.7-.1 1-.4c.3-.3.4-.6.4-1s-.1-.7-.4-1"/><path d="M55.4 20.1V6.8h-8.5V5.2c0-1.3.2-2.1.6-2.6.5-.4 1-.6 1.8-.6.7 0 1.4.2 1.9.6l.9-1.6c-.2-.2-.5-.3-.9-.5C50.5.1 49.8 0 49 0c-1.3 0-2.4.4-3.1 1.1-.9.9-1.3 2.2-1.3 4.1v1.6h-6.1V5.2c0-1.3.2-2.1.6-2.6.4-.4 1-.7 1.8-.7.7 0 1.4.2 1.9.6l.9-1.5c-.2-.2-.5-.3-.9-.5-.7-.4-1.5-.5-2.2-.5-1.3 0-2.4.4-3.1 1.1-.9.9-1.3 2.2-1.3 4.1v1.6h-2.3v1.9h2.3v11.4h2.3V8.7h6.1v11.4h2.3V8.7H53v11.4h2.4zM68.4 12.3h-7c.1-1.2.5-2.1 1.2-2.9.7-.7 1.6-1.1 2.6-1.1 1.1 0 2 .5 2.5 1.4.5.7.7 1.6.7 2.6m2.2.8c0-2.1-.5-3.7-1.5-4.9-1-1.2-2.3-1.8-4-1.8-1.8 0-3.3.6-4.5 1.9-1.1 1.3-1.7 3-1.7 5.1 0 2 .5 3.7 1.6 4.9 1.1 1.3 2.7 1.9 4.7 1.9 1.8 0 3.4-.5 4.8-1.4l-.9-1.6c-1.4.7-2.6 1-3.8 1-1.4 0-2.4-.4-3.2-1.3-.7-.8-1-1.8-1-3h9.2v-.5c.3 0 .3-.2.3-.3M74.3.3h2.3v19.8h-2.3z"/><g><path d="M90.1 17.3c-1.1.7-2.2 1.1-3.1 1.1-1.1 0-2.1-.4-2.8-1.3-.7-.9-1.1-2-1.1-3.5 0-1.6.4-2.9 1.2-3.8.8-.9 1.8-1.4 3.1-1.4 1 0 1.8.3 2.7.9v8zm2.3 2.8V.3h-2.3v6.9c-.9-.5-1.8-.8-2.9-.8-1.9 0-3.4.7-4.6 2-1.2 1.3-1.8 3-1.8 5.2 0 2 .5 3.6 1.6 4.9 1.1 1.3 2.5 1.9 4.3 1.9 1.4 0 2.7-.4 3.7-1.3v1h2zM116.9 10.8c0 2.4-.6 4.2-1.8 5.5-.8.8-1.7 1.3-2.8 1.6-.8.2-1.9.3-3.2.3h-2.3V3.8h1.6c1.8 0 3.1.1 3.9.3 1.1.2 2 .7 2.7 1.5 1.2 1.2 1.9 3 1.9 5.2m2.5 0c0-2.7-.9-5-2.6-6.7-1-1-2.2-1.7-3.7-2-1-.2-2.6-.4-4.7-.4h-4V20h4c2 0 3.6-.1 4.6-.4 1.5-.4 2.8-1.1 3.8-2.1 1.7-1.6 2.6-3.9 2.6-6.7M131.3 12.3h-7c.1-1.2.5-2.1 1.2-2.9.7-.7 1.6-1.1 2.6-1.1 1.1 0 2 .5 2.5 1.4.5.7.7 1.6.7 2.6m2.3.8c0-2.1-.5-3.7-1.5-4.9-1-1.2-2.3-1.8-4-1.8-1.8 0-3.3.6-4.5 1.9-1.1 1.3-1.7 3-1.7 5.1 0 2 .5 3.7 1.6 4.9 1.1 1.3 2.7 1.9 4.7 1.9 1.8 0 3.4-.5 4.8-1.4l-.9-1.6c-1.4.7-2.6 1-3.8 1-1.4 0-2.4-.4-3.2-1.3-.7-.8-1-1.8-1-3h9.2v-.5c.3 0 .3-.2.3-.3M147 13.2c0 1.6-.4 2.9-1.2 3.8-.8.9-1.8 1.4-3.1 1.4-1 0-1.8-.3-2.7-.9v-8c1.1-.8 2.1-1.2 3.1-1.2 1.1 0 2.1.4 2.8 1.3.7 1.1 1.1 2.2 1.1 3.6m2.4 0c0-2-.5-3.6-1.6-4.9-1.1-1.3-2.5-1.9-4.3-1.9-1.4 0-2.7.4-3.7 1.3v-1h-2.1V26h2.3v-6.4c.9.5 1.8.8 2.9.8 1.9 0 3.4-.7 4.6-2 1.2-1.3 1.9-3 1.9-5.2M160.8 17.5c-1.3.7-2.4 1-3.3 1-.8 0-1.5-.2-1.9-.6-.5-.4-.7-1-.7-1.6 0-.6.2-1.1.6-1.5.8-.8 2.3-1.2 4.7-1.2h.7v3.9zm2.3 2.6v-8.3c0-1-.1-1.8-.2-2.3-.1-.7-.4-1.2-.9-1.7-.9-.9-2.2-1.3-3.8-1.3-1.2 0-2.3.2-3.4.6-.6.3-1.1.5-1.3.7l.9 1.6c1.2-.7 2.4-1 3.6-1 1.1 0 1.9.2 2.3.7.4.4.5 1 .5 1.9v.9h-.6c-5 0-7.6 1.5-7.6 4.5 0 1.2.4 2.2 1.2 3 .8.8 1.8 1.1 3.1 1.1s2.6-.4 4.1-1.3v1h2.1zM174 6.5c-1.1 0-2.2.3-3.1 1-.5.3-.9.7-1.2 1.1V6.8h-2.1v13.3h2.3v-9.4c1.1-1.4 2.4-2.2 3.9-2.2.3 0 .7 0 1 .1l.5-1.9c-.3-.1-.8-.2-1.3-.2M184.9 18.1c-.8.2-1.4.4-1.8.4-.8 0-1.4-.3-1.7-.8-.2-.3-.3-.9-.3-1.8V8.7h4.1V6.8h-4.1V3.1h-2.3v3.7h-2.3v1.9h2.3v6.8c0 1.1 0 1.8.1 2.2.1.7.4 1.3.8 1.7.7.7 1.7 1 3 1 1 0 2-.2 2.9-.7l-.7-1.6zM207 12.4c0-1.2-.1-2.1-.2-2.7-.2-.8-.6-1.5-1.1-2.1-.8-.8-1.8-1.2-3.2-1.2-1.4 0-3 .5-4.6 1.5-.8-1-1.9-1.5-3.3-1.5s-2.7.4-4.1 1.3v-1h-2.1V20h2.3V9.5c1.1-.7 2.2-1.1 3.4-1.1.7 0 1.3.2 1.7.6.3.3.5.8.6 1.5.1.4.1 1.1.1 2.2V20h2.3v-7.4c0-1.7-.1-2.8-.2-3.1 1.2-.7 2.4-1.1 3.5-1.1.8 0 1.4.2 1.8.7.4.5.6 1.5.6 3.2v7.8h2.3v-7.7zM220.8 12.3h-7c.1-1.2.5-2.1 1.2-2.9.7-.7 1.6-1.1 2.6-1.1 1.1 0 2 .5 2.5 1.4.5.7.7 1.6.7 2.6m2.3.8c0-2.1-.5-3.7-1.5-4.9-1-1.2-2.3-1.8-4-1.8-1.8 0-3.3.6-4.5 1.9-1.1 1.3-1.7 3-1.7 5.1 0 2 .5 3.7 1.6 4.9 1.1 1.3 2.7 1.9 4.7 1.9 1.8 0 3.4-.5 4.8-1.4l-.9-1.6c-1.4.7-2.6 1-3.8 1-1.4 0-2.4-.4-3.2-1.3-.7-.8-1-1.8-1-3h9.2v-.5c.3 0 .3-.2.3-.3M237.9 12.4c0-1.2-.1-2.1-.2-2.7-.2-.8-.6-1.5-1.1-2.1-.8-.8-1.8-1.2-3.2-1.2-1.4 0-2.8.4-4.1 1.3v-1h-2.1V20h2.3V9.6c.2-.2.6-.4 1.2-.6.8-.4 1.6-.5 2.3-.5.8 0 1.4.2 1.9.7.3.3.5.8.6 1.3.1.4.1 1.1.1 2.1v7.5h2.3v-7.7zM249.1 18.1c-.8.2-1.4.4-1.8.4-.8 0-1.4-.3-1.7-.8-.2-.3-.3-.9-.3-1.8V8.7h4.1V6.8h-4.1V3.1H243v3.7h-2.3v1.9h2.3v6.8c0 1.1 0 1.8.1 2.2.1.7.4 1.3.8 1.7.7.7 1.7 1 3 1 1 0 2-.2 2.9-.7l-.7-1.6zM269 13.5c0 1.5-.3 2.7-1 3.6-.7.9-1.6 1.3-2.9 1.3-1.2 0-2.1-.5-2.9-1.4-.7-.9-1.1-2.2-1.1-3.7s.4-2.7 1.1-3.6c.7-.9 1.6-1.4 2.8-1.4 1.2 0 2.1.5 2.8 1.4.8 1 1.2 2.3 1.2 3.8m2.3 0c0-2.1-.6-3.8-1.7-5.1-1.1-1.3-2.6-1.9-4.5-1.9s-3.5.6-4.6 1.9c-1.2 1.3-1.7 3-1.7 5.1s.6 3.8 1.7 5c1.1 1.3 2.6 1.9 4.5 1.9s3.5-.6 4.6-1.9c1.1-1.3 1.7-3 1.7-5M282.5.4c-.7-.3-1.4-.4-2.2-.4-1.3 0-2.4.4-3.1 1.1-.9.9-1.3 2.2-1.3 4.1v1.6h-2.3v1.9h2.3v11.4h2.3V8.7h4.1V6.8h-4.1V5.2c0-1.3.2-2.1.6-2.6s1-.7 1.8-.7c.7 0 1.4.2 1.9.6l.9-1.6c-.1-.1-.4-.3-.9-.5M279.1 27.5h-2.7V36H267v-8.5h-2.7v20.3h2.7v-9.5h9.3v9.5h2.7V27.5zm-18.5 0H246v2.3h6v18.1h2.7V29.7h5.9v-2.2zm-12.5 18h-8.4v-18H237v20.3h11.2v-2.3zm-27.3-5.3l3.4-9.9 3.4 9.9h-6.8zm4.9-12.7h-2.9l-7.4 20.3h2.7l1.9-5.3h8.4l1.9 5.3h2.9l-7.5-20.3zm-12.3 18h-8.8v-7.2h8v-2.2h-8v-6.4h8.6v-2.3H202v20.3h11.5v-2.2zm-17.2-18h-2.7V36h-9.3v-8.5h-2.7v20.3h2.7v-9.5h9.3v9.5h2.7V27.5zm-28.5 0h-2.5l.1 16.2-9.6-16.2H153v20.3h2.5l-.1-16.2 9.6 16.2h2.7V27.5zm-23.2 15.9c-1.2 1.6-2.8 2.4-4.8 2.4-1.9 0-3.5-.8-4.7-2.3-1.2-1.5-1.9-3.5-1.9-5.9 0-2.5.6-4.5 1.8-6 1.2-1.5 2.7-2.3 4.6-2.3 1.9 0 3.5.7 4.8 2.2 1.2 1.5 1.8 3.4 1.8 5.8 0 2.6-.5 4.6-1.6 6.1m1.8-13.4c-1.7-1.9-3.9-2.9-6.6-2.9-2.8 0-5 1-6.8 3-1.7 2-2.6 4.5-2.6 7.6 0 3.1.9 5.6 2.6 7.6 1.7 2 3.9 3 6.6 3 2.8 0 5-1 6.7-3 1.7-2 2.6-4.5 2.6-7.7.1-3.2-.8-5.7-2.5-7.6m-20.7-2.5h-2.7v20.3h2.7V27.5zm-6.7 0h-14.7v2.3h6v18.1h2.7V29.7h5.9v-2.2zM93.8 40.2l3.4-9.9 3.4 9.9h-6.8zm4.9-12.7h-2.9l-7.4 20.3h2.7l1.9-5.3h8.4l1.9 5.3h2.9l-7.5-20.3zm-11.4 18h-8.4v-18h-2.7v20.3h11.2v-2.3zm-16.7-18h-2.7v10.8c0 2.1 0 3.4-.1 4-.1 1-.5 1.8-1.1 2.4-.8.8-1.9 1.2-3.4 1.2s-2.7-.4-3.6-1.3c-.5-.5-.9-1.2-1-2-.1-.4-.1-1.2-.1-2.3V27.5h-2.7V40c0 1.4.1 2.5.2 3.1.2 1.2.8 2.2 1.6 3 1.4 1.4 3.3 2.1 5.6 2.1 2.4 0 4.2-.7 5.5-2 .9-.9 1.4-2 1.6-3.5.1-.8.2-2.4.2-4.9V27.5zm-23.4 8.9c-.5.5-1.2.8-2.1.9-.5.1-1.4.1-2.9.1h-1.4v-7.9H43c2.2 0 3.6.3 4.2.9.8.8 1.1 1.7 1.1 2.9.1 1.4-.3 2.4-1.1 3.1m2.2-7.3c-.7-.7-1.6-1.2-2.7-1.4-.8-.2-1.9-.2-3.4-.2h-5.1v20.3h2.7v-8.1h1.4c1.9 0 3.3-.1 3.9-.2 1.3-.2 2.3-.8 3.2-1.6 1.1-1.1 1.7-2.6 1.7-4.4 0-1.8-.6-3.3-1.7-4.4M30 43.4c-1.2 1.6-2.8 2.4-4.8 2.4-1.9 0-3.5-.8-4.7-2.3-1.2-1.5-1.9-3.5-1.9-5.9 0-2.5.6-4.5 1.8-6 1.2-1.5 2.7-2.3 4.6-2.3 1.9 0 3.5.7 4.8 2.2 1.2 1.5 1.8 3.4 1.8 5.8 0 2.6-.5 4.6-1.6 6.1M31.8 30c-1.7-1.9-3.9-2.9-6.6-2.9-2.8 0-5 1-6.8 3-1.7 2-2.6 4.5-2.6 7.6 0 3.1.9 5.6 2.6 7.6 1.7 2 3.9 3 6.6 3 2.8 0 5-1 6.7-3 1.7-2 2.6-4.5 2.6-7.7.1-3.2-.8-5.7-2.5-7.6M9 36.4c-.5.5-1.2.8-2.1.9-.5.1-1.4.1-2.9.1H2.7v-7.9h2.2c2.2 0 3.6.3 4.2.9.8.8 1.1 1.7 1.1 2.9 0 1.4-.4 2.4-1.2 3.1m2.2-7.3c-.7-.7-1.6-1.2-2.7-1.4-.8-.2-1.9-.2-3.4-.2H0v20.3h2.7v-8.1h1.4c1.9 0 3.3-.1 3.9-.2 1.3-.2 2.3-.8 3.2-1.6 1.1-1.1 1.7-2.6 1.7-4.4 0-1.8-.5-3.3-1.7-4.4"/></g></svg>