<?xml version="1.0" encoding="utf-8"?>
<!-- Generator: Adobe Illustrator 24.0.2, SVG Export Plug-In . SVG Version: 6.00 Build 0)  -->
<svg version="1.1" id="Layer_1" xmlns="http://www.w3.org/2000/svg" xmlns:xlink="http://www.w3.org/1999/xlink" x="0px" y="0px"
	 width="283.5px" height="48.2px" viewBox="0 0 283.5 48.2" enable-background="new 0 0 283.5 48.2" xml:space="preserve">
<polygon points="14.2,1.8 12,1.8 12,16.4 3.4,1.8 0.9,1.8 0.9,20.1 3.2,20.1 3.1,5.5 11.8,20.1 14.2,20.1 "/>
<g>
	<path d="M30.4,6.8h-2.3v10.5c-0.2,0.2-0.6,0.4-1.2,0.6c-0.8,0.4-1.6,0.5-2.3,0.5c-0.8,0-1.4-0.2-1.9-0.7c-0.3-0.3-0.5-0.8-0.6-1.3
		c-0.1-0.4-0.1-1.1-0.1-2.1V6.8h-2.3v7.7c0,1.3,0.1,2.2,0.2,2.7c0.2,0.8,0.5,1.5,1.1,2.1c0.7,0.7,1.8,1.1,3.2,1.1
		c1.4,0,2.8-0.4,4.1-1.3v1h2.1V6.8z"/>
	<path d="M55.2,1.6c-0.3-0.3-0.6-0.4-1-0.4c-0.4,0-0.7,0.1-1,0.4c-0.3,0.3-0.4,0.6-0.4,1c0,0.4,0.1,0.7,0.4,1c0.3,0.3,0.6,0.4,1,0.4
		c0.4,0,0.7-0.1,1-0.4c0.3-0.3,0.4-0.6,0.4-1C55.6,2.2,55.5,1.9,55.2,1.6"/>
	<path d="M55.4,20.1V6.8h-2.3H53h-6.1V5.2c0-1.3,0.2-2.1,0.6-2.6C48,2.2,48.5,2,49.3,2c0.7,0,1.4,0.2,1.9,0.6L52.1,1
		c-0.2-0.2-0.5-0.3-0.9-0.5C50.5,0.1,49.8,0,49,0c-1.3,0-2.4,0.4-3.1,1.1C45,2,44.6,3.3,44.6,5.2v1.6h-2h-0.3h-3.8V5.2
		c0-1.3,0.2-2.1,0.6-2.6c0.4-0.4,1-0.7,1.8-0.7c0.7,0,1.4,0.2,1.9,0.6L43.7,1c-0.2-0.2-0.5-0.3-0.9-0.5C42.1,0.1,41.3,0,40.6,0
		c-1.3,0-2.4,0.4-3.1,1.1c-0.9,0.9-1.3,2.2-1.3,4.1v1.6h-2.3v1.9h2.3v11.4h2.3V8.7h3.8h0.3h2v11.4h2.3V8.7H53v11.4H55.4z"/>
	<path d="M68.4,12.3h-7c0.1-1.2,0.5-2.1,1.2-2.9c0.7-0.7,1.6-1.1,2.6-1.1c1.1,0,2,0.5,2.5,1.4C68.2,10.4,68.4,11.3,68.4,12.3
		 M70.6,13.1c0-2.1-0.5-3.7-1.5-4.9c-1-1.2-2.3-1.8-4-1.8c-1.8,0-3.3,0.6-4.5,1.9c-1.1,1.3-1.7,3-1.7,5.1c0,2,0.5,3.7,1.6,4.9
		c1.1,1.3,2.7,1.9,4.7,1.9c1.8,0,3.4-0.5,4.8-1.4l-0.9-1.6c-1.4,0.7-2.6,1-3.8,1c-1.4,0-2.4-0.4-3.2-1.3c-0.7-0.8-1-1.8-1-3h9.2
		c0-0.1,0-0.2,0-0.5C70.6,13.4,70.6,13.2,70.6,13.1"/>
</g>
<rect x="74.3" y="0.3" width="2.3" height="19.8"/>
<g>
	<path d="M90.1,17.3C89,18,87.9,18.4,87,18.4c-1.1,0-2.1-0.4-2.8-1.3c-0.7-0.9-1.1-2-1.1-3.5c0-1.6,0.4-2.9,1.2-3.8
		c0.8-0.9,1.8-1.4,3.1-1.4c1,0,1.8,0.3,2.7,0.9V17.3z M92.4,20.1V0.3h-2.3v6.9c-0.9-0.5-1.8-0.8-2.9-0.8c-1.9,0-3.4,0.7-4.6,2
		c-1.2,1.3-1.8,3-1.8,5.2c0,2,0.5,3.6,1.6,4.9c1.1,1.3,2.5,1.9,4.3,1.9c1.4,0,2.7-0.4,3.7-1.3v1H92.4z"/>
	<path d="M116.9,10.8c0,2.4-0.6,4.2-1.8,5.5c-0.8,0.8-1.7,1.3-2.8,1.6c-0.8,0.2-1.9,0.3-3.2,0.3h-2.3V3.8h1.6c1.8,0,3.1,0.1,3.9,0.3
		c1.1,0.2,2,0.7,2.7,1.5C116.2,6.8,116.9,8.6,116.9,10.8 M119.4,10.8c0-2.7-0.9-5-2.6-6.7c-1-1-2.2-1.7-3.7-2
		c-1-0.2-2.6-0.4-4.7-0.4h-4v18.3h4c2,0,3.6-0.1,4.6-0.4c1.5-0.4,2.8-1.1,3.8-2.1C118.5,15.9,119.4,13.6,119.4,10.8"/>
	<path d="M131.3,12.3h-7c0.1-1.2,0.5-2.1,1.2-2.9c0.7-0.7,1.6-1.1,2.6-1.1c1.1,0,2,0.5,2.5,1.4C131.1,10.4,131.3,11.3,131.3,12.3
		 M133.6,13.1c0-2.1-0.5-3.7-1.5-4.9c-1-1.2-2.3-1.8-4-1.8c-1.8,0-3.3,0.6-4.5,1.9c-1.1,1.3-1.7,3-1.7,5.1c0,2,0.5,3.7,1.6,4.9
		c1.1,1.3,2.7,1.9,4.7,1.9c1.8,0,3.4-0.5,4.8-1.4l-0.9-1.6c-1.4,0.7-2.6,1-3.8,1c-1.4,0-2.4-0.4-3.2-1.3c-0.7-0.8-1-1.8-1-3h9.2
		c0-0.1,0-0.2,0-0.5C133.6,13.4,133.6,13.2,133.6,13.1"/>
	<path d="M147,13.2c0,1.6-0.4,2.9-1.2,3.8c-0.8,0.9-1.8,1.4-3.1,1.4c-1,0-1.8-0.3-2.7-0.9v-8c1.1-0.8,2.1-1.2,3.1-1.2
		c1.1,0,2.1,0.4,2.8,1.3C146.6,10.7,147,11.8,147,13.2 M149.4,13.2c0-2-0.5-3.6-1.6-4.9c-1.1-1.3-2.5-1.9-4.3-1.9
		c-1.4,0-2.7,0.4-3.7,1.3v-1h-2.1V26h2.3v-6.4c0.9,0.5,1.8,0.8,2.9,0.8c1.9,0,3.4-0.7,4.6-2C148.7,17.1,149.4,15.4,149.4,13.2"/>
	<path d="M160.8,17.5c-1.3,0.7-2.4,1-3.3,1c-0.8,0-1.5-0.2-1.9-0.6c-0.5-0.4-0.7-1-0.7-1.6c0-0.6,0.2-1.1,0.6-1.5
		c0.8-0.8,2.3-1.2,4.7-1.2h0.7V17.5z M163.1,20.1v-8.3c0-1-0.1-1.8-0.2-2.3c-0.1-0.7-0.4-1.2-0.9-1.7c-0.9-0.9-2.2-1.3-3.8-1.3
		c-1.2,0-2.3,0.2-3.4,0.6c-0.6,0.3-1.1,0.5-1.3,0.7l0.9,1.6c1.2-0.7,2.4-1,3.6-1c1.1,0,1.9,0.2,2.3,0.7c0.4,0.4,0.5,1,0.5,1.9v0.9
		h-0.6c-5,0-7.6,1.5-7.6,4.5c0,1.2,0.4,2.2,1.2,3c0.8,0.8,1.8,1.1,3.1,1.1c1.3,0,2.6-0.4,4.1-1.3v1H163.1z"/>
	<path d="M174,6.5c-1.1,0-2.2,0.3-3.1,1c-0.5,0.3-0.9,0.7-1.2,1.1V6.8h-2.1v13.3h2.3v-9.4c1.1-1.4,2.4-2.2,3.9-2.2
		c0.3,0,0.7,0,1,0.1l0.5-1.9C175,6.6,174.5,6.5,174,6.5"/>
	<path d="M184.9,18.1c-0.8,0.2-1.4,0.4-1.8,0.4c-0.8,0-1.4-0.3-1.7-0.8c-0.2-0.3-0.3-0.9-0.3-1.8V8.7h4.1V6.8h-4.1V3.1h-2.3v3.7
		h-2.3v1.9h2.3v6.8c0,1.1,0,1.8,0.1,2.2c0.1,0.7,0.4,1.3,0.8,1.7c0.7,0.7,1.7,1,3,1c1,0,2-0.2,2.9-0.7L184.9,18.1z"/>
	<path d="M207,12.4c0-1.2-0.1-2.1-0.2-2.7c-0.2-0.8-0.6-1.5-1.1-2.1c-0.8-0.8-1.8-1.2-3.2-1.2c-1.4,0-3,0.5-4.6,1.5
		c-0.8-1-1.9-1.5-3.3-1.5c-1.4,0-2.7,0.4-4.1,1.3v-1h-2.1v13.3h2.3V9.5c1.1-0.7,2.2-1.1,3.4-1.1c0.7,0,1.3,0.2,1.7,0.6
		c0.3,0.3,0.5,0.8,0.6,1.5c0.1,0.4,0.1,1.1,0.1,2.2v7.3h2.3v-7.4c0-1.7-0.1-2.8-0.2-3.1c1.2-0.7,2.4-1.1,3.5-1.1
		c0.8,0,1.4,0.2,1.8,0.7c0.4,0.5,0.6,1.5,0.6,3.2v7.8h2.3V12.4z"/>
	<path d="M220.8,12.3h-7c0.1-1.2,0.5-2.1,1.2-2.9c0.7-0.7,1.6-1.1,2.6-1.1c1.1,0,2,0.5,2.5,1.4C220.6,10.4,220.8,11.3,220.8,12.3
		 M223.1,13.1c0-2.1-0.5-3.7-1.5-4.9c-1-1.2-2.3-1.8-4-1.8c-1.8,0-3.3,0.6-4.5,1.9c-1.1,1.3-1.7,3-1.7,5.1c0,2,0.5,3.7,1.6,4.9
		c1.1,1.3,2.7,1.9,4.7,1.9c1.8,0,3.4-0.5,4.8-1.4l-0.9-1.6c-1.4,0.7-2.6,1-3.8,1c-1.4,0-2.4-0.4-3.2-1.3c-0.7-0.8-1-1.8-1-3h9.2
		c0-0.1,0-0.2,0-0.5C223.1,13.4,223.1,13.2,223.1,13.1"/>
	<path d="M237.9,12.4c0-1.2-0.1-2.1-0.2-2.7c-0.2-0.8-0.6-1.5-1.1-2.1c-0.8-0.8-1.8-1.2-3.2-1.2c-1.4,0-2.8,0.4-4.1,1.3v-1h-2.1
		v13.3h2.3V9.6c0.2-0.2,0.6-0.4,1.2-0.6c0.8-0.4,1.6-0.5,2.3-0.5c0.8,0,1.4,0.2,1.9,0.7c0.3,0.3,0.5,0.8,0.6,1.3
		c0.1,0.4,0.1,1.1,0.1,2.1v7.5h2.3V12.4z"/>
	<path d="M249.1,18.1c-0.8,0.2-1.4,0.4-1.8,0.4c-0.8,0-1.4-0.3-1.7-0.8c-0.2-0.3-0.3-0.9-0.3-1.8V8.7h4.1V6.8h-4.1V3.1H243v3.7h-2.3
		v1.9h2.3v6.8c0,1.1,0,1.8,0.1,2.2c0.1,0.7,0.4,1.3,0.8,1.7c0.7,0.7,1.7,1,3,1c1,0,2-0.2,2.9-0.7L249.1,18.1z"/>
	<path d="M269,13.5c0,1.5-0.3,2.7-1,3.6c-0.7,0.9-1.6,1.3-2.9,1.3c-1.2,0-2.1-0.5-2.9-1.4c-0.7-0.9-1.1-2.2-1.1-3.7
		c0-1.5,0.4-2.7,1.1-3.6c0.7-0.9,1.6-1.4,2.8-1.4c1.2,0,2.1,0.5,2.8,1.4C268.6,10.7,269,12,269,13.5 M271.3,13.5
		c0-2.1-0.6-3.8-1.7-5.1c-1.1-1.3-2.6-1.9-4.5-1.9c-1.9,0-3.5,0.6-4.6,1.9c-1.2,1.3-1.7,3-1.7,5.1s0.6,3.8,1.7,5
		c1.1,1.3,2.6,1.9,4.5,1.9c1.9,0,3.5-0.6,4.6-1.9C270.7,17.2,271.3,15.5,271.3,13.5"/>
	<path d="M282.5,0.4c-0.7-0.3-1.4-0.4-2.2-0.4c-1.3,0-2.4,0.4-3.1,1.1c-0.9,0.9-1.3,2.2-1.3,4.1v1.6h-2.3v1.9h2.3v11.4h2.3V8.7h4.1
		V6.8h-4.1V5.2c0-1.3,0.2-2.1,0.6-2.6s1-0.7,1.8-0.7c0.7,0,1.4,0.2,1.9,0.6l0.9-1.6C283.3,0.8,283,0.6,282.5,0.4"/>
	<path d="M279.1,27.5h-2.7V36H267v-8.5h-2.7v20.3h2.7v-9.5h9.3v9.5h2.7V27.5z M260.6,27.5H246v2.3h6v18.1h2.7V29.7h5.9V27.5z
		 M248.1,45.5h-8.4v-18h-2.7v20.3h11.2V45.5z M220.8,40.2l3.4-9.9l3.4,9.9H220.8z M225.7,27.5h-2.9l-7.4,20.3h2.7l1.9-5.3h8.4
		l1.9,5.3h2.9L225.7,27.5z M213.4,45.5h-8.8v-7.2h8v-2.2h-8v-6.4h8.6v-2.3h-11.2v20.3h11.5V45.5z M196.2,27.5h-2.7V36h-9.3v-8.5
		h-2.7v20.3h2.7v-9.5h9.3v9.5h2.7V27.5z M167.7,27.5h-2.5l0.1,16.2l-9.6-16.2h-2.7v20.3h2.5l-0.1-16.2l9.6,16.2h2.7V27.5z
		 M144.5,43.4c-1.2,1.6-2.8,2.4-4.8,2.4c-1.9,0-3.5-0.8-4.7-2.3c-1.2-1.5-1.9-3.5-1.9-5.9c0-2.5,0.6-4.5,1.8-6
		c1.2-1.5,2.7-2.3,4.6-2.3c1.9,0,3.5,0.7,4.8,2.2c1.2,1.5,1.8,3.4,1.8,5.8C146.1,39.9,145.6,41.9,144.5,43.4 M146.3,30
		c-1.7-1.9-3.9-2.9-6.6-2.9c-2.8,0-5,1-6.8,3c-1.7,2-2.6,4.5-2.6,7.6c0,3.1,0.9,5.6,2.6,7.6c1.7,2,3.9,3,6.6,3c2.8,0,5-1,6.7-3
		c1.7-2,2.6-4.5,2.6-7.7C148.9,34.4,148,31.9,146.3,30 M125.6,27.5h-2.7v20.3h2.7V27.5z M118.9,27.5h-14.7v2.3h6v18.1h2.7V29.7h5.9
		V27.5z M93.8,40.2l3.4-9.9l3.4,9.9H93.8z M98.7,27.5h-2.9l-7.4,20.3h2.7l1.9-5.3h8.4l1.9,5.3h2.9L98.7,27.5z M87.3,45.5h-8.4v-18
		h-2.7v20.3h11.2V45.5z M70.6,27.5h-2.7v10.8c0,2.1,0,3.4-0.1,4c-0.1,1-0.5,1.8-1.1,2.4c-0.8,0.8-1.9,1.2-3.4,1.2
		c-1.5,0-2.7-0.4-3.6-1.3c-0.5-0.5-0.9-1.2-1-2c-0.1-0.4-0.1-1.2-0.1-2.3V27.5h-2.7v12.5c0,1.4,0.1,2.5,0.2,3.1
		c0.2,1.2,0.8,2.2,1.6,3c1.4,1.4,3.3,2.1,5.6,2.1c2.4,0,4.2-0.7,5.5-2c0.9-0.9,1.4-2,1.6-3.5c0.1-0.8,0.2-2.4,0.2-4.9V27.5z
		 M47.2,36.4c-0.5,0.5-1.2,0.8-2.1,0.9c-0.5,0.1-1.4,0.1-2.9,0.1h-1.4v-7.9H43c2.2,0,3.6,0.3,4.2,0.9c0.8,0.8,1.1,1.7,1.1,2.9
		C48.4,34.7,48,35.7,47.2,36.4 M49.4,29.1c-0.7-0.7-1.6-1.2-2.7-1.4c-0.8-0.2-1.9-0.2-3.4-0.2h-5.1v20.3h2.7v-8.1h1.4
		c1.9,0,3.3-0.1,3.9-0.2c1.3-0.2,2.3-0.8,3.2-1.6c1.1-1.1,1.7-2.6,1.7-4.4C51.1,31.7,50.5,30.2,49.4,29.1 M30,43.4
		c-1.2,1.6-2.8,2.4-4.8,2.4c-1.9,0-3.5-0.8-4.7-2.3c-1.2-1.5-1.9-3.5-1.9-5.9c0-2.5,0.6-4.5,1.8-6c1.2-1.5,2.7-2.3,4.6-2.3
		c1.9,0,3.5,0.7,4.8,2.2c1.2,1.5,1.8,3.4,1.8,5.8C31.6,39.9,31.1,41.9,30,43.4 M31.8,30c-1.7-1.9-3.9-2.9-6.6-2.9c-2.8,0-5,1-6.8,3
		c-1.7,2-2.6,4.5-2.6,7.6c0,3.1,0.9,5.6,2.6,7.6c1.7,2,3.9,3,6.6,3c2.8,0,5-1,6.7-3c1.7-2,2.6-4.5,2.6-7.7
		C34.4,34.4,33.5,31.9,31.8,30 M9,36.4c-0.5,0.5-1.2,0.8-2.1,0.9c-0.5,0.1-1.4,0.1-2.9,0.1H2.7v-7.9h2.2c2.2,0,3.6,0.3,4.2,0.9
		c0.8,0.8,1.1,1.7,1.1,2.9C10.2,34.7,9.8,35.7,9,36.4 M11.2,29.1c-0.7-0.7-1.6-1.2-2.7-1.4c-0.8-0.2-1.9-0.2-3.4-0.2H0v20.3h2.7
		v-8.1h1.4c1.9,0,3.3-0.1,3.9-0.2c1.3-0.2,2.3-0.8,3.2-1.6c1.1-1.1,1.7-2.6,1.7-4.4C12.9,31.7,12.4,30.2,11.2,29.1"/>
</g>
</svg>
